M48
INCH,TZ
T01C.03543
;EXTENTS: -25.000 -25.000 25.000  25.000  
;LEADER: 12 
;HEADER: 
;CODE  : ASCII 
;FILE  : G:/2022/TEST/QIANG/Light/Test/sch_pcb/gerber/dwin_1-4.rou for board G:/2022/TEST/QIANG/Light/Test/sch_pcb/#Taaaabb12136.tmp, layers TOP to BOTTOM
%
G90
F1
M16
T01
M16
G00X-1143000Y1054500
G40
M15
G01X-1143000Y1054500
M16
G00X-1153000Y1054500
G40
M15
G01X-1153000Y1054500
M16
G00X-1163000Y1054500
G40
M15
G01X-1163000Y1054500
M16
G00X-1173000Y1054500
G40
M15
G01X-1173000Y1054500
M16
G00X-1183000Y1054500
G40
M15
G01X-1183000Y1054500
M16
G00X-1193000Y1054500
G40
M15
G01X-1193000Y1054500
M16
G00X-1203000Y1054500
G40
M15
G01X-1203000Y1054500
M16
G00X-1143000Y1114500
G40
M15
G01X-1143000Y1114500
M16
G00X-1153000Y1114500
G40
M15
G01X-1153000Y1114500
M16
G00X-1163000Y1114500
G40
M15
G01X-1163000Y1114500
M16
G00X-1173000Y1114500
G40
M15
G01X-1173000Y1114500
M16
G00X-1183000Y1114500
G40
M15
G01X-1183000Y1114500
M16
G00X-1193000Y1114500
G40
M15
G01X-1193000Y1114500
M16
G00X-1203000Y1114500
G40
M15
G01X-1203000Y1114500
M16
G40
M30
