G04 ================== begin FILE IDENTIFICATION RECORD ==================*
G04 Layout Name:  G:/2022/TEST/QIANG/Light/Test/sch_pcb/dwin.brd*
G04 Film Name:    L1_TOP*
G04 File Format:  Gerber RS274X*
G04 File Origin:  Cadence Allegro 17.2-061*
G04 Origin Date:  Tue May 31 09:43:27 2022*
G04 *
G04 Layer:  BOARD GEOMETRY/OUTLINE*
G04 Layer:  ETCH/TOP*
G04 Layer:  PIN/TOP*
G04 Layer:  VIA CLASS/TOP*
G04 *
G04 Offset:    (0.00 0.00)*
G04 Mirror:    No*
G04 Mode:      Positive*
G04 Rotation:  0*
G04 FullContactRelief:  No*
G04 UndefLineWidth:     6.00*
G04 ================== end FILE IDENTIFICATION RECORD ====================*
%FSLAX25Y25*MOIN*%
%IR0*IPPOS*OFA0.00000B0.00000*MIA0B0*SFA1.00000B1.00000*%
%ADD10C,.02*%
%AMMACRO12*
4,1,40,-.01356,-.0175,
.01356,-.0175,
.014244,-.01744,
.014908,-.017262,
.01553,-.016972,
.016093,-.016578,
.016578,-.016093,
.016972,-.01553,
.017262,-.014908,
.01744,-.014244,
.0175,-.01356,
.0175,.01356,
.01744,.014244,
.017262,.014908,
.016972,.01553,
.016578,.016093,
.016093,.016578,
.01553,.016972,
.014908,.017262,
.014244,.01744,
.01356,.0175,
-.01356,.0175,
-.014244,.01744,
-.014908,.017262,
-.01553,.016972,
-.016093,.016578,
-.016578,.016093,
-.016972,.01553,
-.017262,.014908,
-.01744,.014244,
-.0175,.01356,
-.0175,-.01356,
-.01744,-.014244,
-.017262,-.014908,
-.016972,-.01553,
-.016578,-.016093,
-.016093,-.016578,
-.01553,-.016972,
-.014908,-.017262,
-.014244,-.01744,
-.01356,-.0175,
0.0*
%
%ADD12MACRO12*%
%ADD11C,.075*%
%ADD14R,.075X.075*%
%AMMACRO16*
4,1,40,.02953,-.00492,
.02953,.00492,
.02947,.005604,
.029292,.006268,
.029002,.00689,
.028608,.007453,
.028123,.007938,
.02756,.008332,
.026938,.008622,
.026274,.0088,
.02559,.00886,
-.02559,.00886,
-.026274,.0088,
-.026938,.008622,
-.02756,.008332,
-.028123,.007938,
-.028608,.007453,
-.029002,.00689,
-.029292,.006268,
-.02947,.005604,
-.02953,.00492,
-.02953,-.00492,
-.02947,-.005604,
-.029292,-.006268,
-.029002,-.00689,
-.028608,-.007453,
-.028123,-.007938,
-.02756,-.008332,
-.026938,-.008622,
-.026274,-.0088,
-.02559,-.00886,
.02559,-.00886,
.026274,-.0088,
.026938,-.008622,
.02756,-.008332,
.028123,-.007938,
.028608,-.007453,
.029002,-.00689,
.029292,-.006268,
.02947,-.005604,
.02953,-.00492,
0.0*
%
%ADD16MACRO16*%
%ADD15O,.06299X.17843*%
%AMMACRO13*
4,1,40,.01356,.0175,
-.01356,.0175,
-.014244,.01744,
-.014908,.017262,
-.01553,.016972,
-.016093,.016578,
-.016578,.016093,
-.016972,.01553,
-.017262,.014908,
-.01744,.014244,
-.0175,.01356,
-.0175,-.01356,
-.01744,-.014244,
-.017262,-.014908,
-.016972,-.01553,
-.016578,-.016093,
-.016093,-.016578,
-.01553,-.016972,
-.014908,-.017262,
-.014244,-.01744,
-.01356,-.0175,
.01356,-.0175,
.014244,-.01744,
.014908,-.017262,
.01553,-.016972,
.016093,-.016578,
.016578,-.016093,
.016972,-.01553,
.017262,-.014908,
.01744,-.014244,
.0175,-.01356,
.0175,.01356,
.01744,.014244,
.017262,.014908,
.016972,.01553,
.016578,.016093,
.016093,.016578,
.01553,.016972,
.014908,.017262,
.014244,.01744,
.01356,.0175,
0.0*
%
%ADD13MACRO13*%
%AMMACRO17*
4,1,44,-.02362,.0059,
-.02362,-.0059,
-.023591,-.006242,
-.023503,-.006574,
-.023359,-.006886,
-.023162,-.007167,
-.02292,-.007411,
-.022639,-.007609,
-.022328,-.007754,
-.021997,-.007844,
-.021655,-.007875,
-.02165,-.00787,
.02165,-.00787,
.021992,-.007845,
.022324,-.007756,
.022635,-.007611,
.022916,-.007414,
.023159,-.007171,
.023356,-.00689,
.023501,-.006579,
.02359,-.006247,
.02362,-.005905,
.02362,-.0059,
.02362,.0059,
.023591,.006242,
.023503,.006574,
.023359,.006886,
.023162,.007167,
.02292,.007411,
.022639,.007609,
.022328,.007754,
.021997,.007844,
.021655,.007875,
.02165,.00787,
-.02165,.00787,
-.021992,.007845,
-.022324,.007756,
-.022635,.007611,
-.022916,.007414,
-.023159,.007171,
-.023356,.00689,
-.023501,.006579,
-.02359,.006247,
-.02362,.005905,
-.02362,.0059,
0.0*
%
%ADD17MACRO17*%
%ADD18C,.015*%
%ADD19C,.005*%
%ADD22C,.03004*%
%ADD21C,.08504*%
%ADD20O,.07302X.18846*%
G75*
%LPD*%
G75*
G36*
G01X-1235000Y1153000D02*
X-1113000D01*
X-1110000Y1150000D01*
Y1016500D01*
X-1113000Y1013500D01*
X-1236000D01*
X-1238000Y1015500D01*
Y1150000D01*
X-1235000Y1153000D01*
G37*
%LPC*%
G75*
G36*
G01X-1220252Y1069144D02*
Y1071856D01*
G02X-1219356Y1072752I896J0D01*
G01X-1216644D01*
G02X-1215748Y1071856I0J-896D01*
G01Y1069144D01*
G02X-1216644Y1068248I-896J0D01*
G01X-1219356D01*
G02X-1220252Y1069144I0J896D01*
G37*
G36*
G01X-1214500Y1110998D02*
G02X-1215469Y1111353I1J1502D01*
G01X-1215525Y1111400D01*
X-1215798D01*
Y1111144D01*
G02X-1216694Y1110248I-896J0D01*
G01X-1219130D01*
G03X-1219523Y1109775I0J-400D01*
G02X-1219498Y1109500I-1477J-273D01*
G01Y1109499D01*
G02X-1219531Y1109186I-1502J0D01*
G03X-1219140Y1108702I391J-84D01*
G01X-1216694D01*
G02X-1215798Y1107806I0J-896D01*
G01Y1107550D01*
X-1215525D01*
X-1215469Y1107597D01*
G02X-1214500Y1107952I970J-1147D01*
G02Y1104948I0J-1502D01*
G02X-1215469Y1105303I1J1502D01*
G01X-1215525Y1105350D01*
X-1215798D01*
Y1105094D01*
G02X-1216694Y1104198I-896J0D01*
G01X-1219122D01*
G03X-1219517Y1103736I0J-400D01*
G02X-1219498Y1103500I-1483J-238D01*
G02X-1219542Y1103141I-1502J2D01*
G01X-1219569Y1103031D01*
X-1219239Y1102702D01*
X-1216694D01*
G02X-1215798Y1101806I0J-896D01*
G01Y1099094D01*
G02X-1216694Y1098198I-896J0D01*
G01X-1219406D01*
G02X-1220302Y1099094I0J896D01*
G01Y1101639D01*
X-1220690Y1102027D01*
X-1220789Y1102013D01*
G02X-1221000Y1101998I-212J1487D01*
G02X-1221532Y1102096I2J1502D01*
G03X-1221802Y1101890I-71J-187D01*
G02X-1221798Y1101806I-892J-85D01*
G01Y1099094D01*
G02X-1222575Y1098206I-896J0D01*
G01X-1222748Y1098183D01*
Y1096947D01*
G03X-1222565Y1096748I200J0D01*
G02X-1221748Y1095856I-78J-892D01*
G01Y1093144D01*
G02X-1221749Y1093122I-895J30D01*
G03X-1221485Y1092922I200J-11D01*
G02X-1221003Y1093002I484J-1422D01*
G01X-1221000D01*
G02X-1220714Y1092974I-3J-1502D01*
G01X-1220609Y1092954D01*
X-1220252Y1093311D01*
Y1095856D01*
G02X-1219356Y1096752I896J0D01*
G01X-1216811D01*
X-1214456Y1099106D01*
G02X-1213925Y1099326I531J-531D01*
G01X-1209343D01*
X-1209289Y1099443D01*
G02X-1208476Y1099962I813J-377D01*
G01X-1203356D01*
G02X-1202462Y1099067I-1J-895D01*
G01Y1098083D01*
G02X-1202647Y1097539I-896J1D01*
G03Y1097052I318J-243D01*
G02X-1202462Y1096508I-711J-545D01*
G01Y1096317D01*
G03X-1201944Y1095935I400J0D01*
G02X-1201620Y1095997I443J-1435D01*
G03X-1201252Y1096395I-32J399D01*
G01Y1100689D01*
X-1202811Y1102248D01*
X-1206500D01*
G02X-1207031Y1102469I1J751D01*
G01X-1209531Y1104969D01*
G02X-1209752Y1105500I530J532D01*
G01Y1114689D01*
X-1224531Y1129469D01*
G02X-1224752Y1130000I530J532D01*
G01Y1150000D01*
G02X-1224531Y1150531I751J-1D01*
G01X-1223031Y1152031D01*
G02X-1222500Y1152252I532J-530D01*
G01X-1154000D01*
G02X-1153469Y1152031I-1J-751D01*
G01X-1150430Y1148993D01*
X-1150295Y1149080D01*
G02X-1148002Y1149752I2294J-3580D01*
G01X-1148000D01*
G02X-1152252Y1145500I0J-4252D01*
G01Y1145502D01*
G02X-1151580Y1147795I4252J-1D01*
G01X-1151493Y1147930D01*
X-1154311Y1150748D01*
X-1161220D01*
G03X-1161503Y1150066I0J-400D01*
G01X-1160430Y1148993D01*
X-1160295Y1149080D01*
G02X-1158002Y1149752I2294J-3580D01*
G01X-1158000D01*
G02X-1162252Y1145500I0J-4252D01*
G01Y1145502D01*
G02X-1161580Y1147795I4252J-1D01*
G01X-1161493Y1147930D01*
X-1163311Y1149748D01*
X-1165387D01*
G03X-1165611Y1149018I1J-400D01*
G02X-1163748Y1145500I-2390J-3518D01*
G02X-1168000Y1141248I-4252J0D01*
G01X-1168002D01*
G02X-1170295Y1141920I1J4252D01*
G01X-1170430Y1142007D01*
X-1171748Y1140689D01*
Y1138729D01*
G03X-1171061Y1138452I400J1D01*
G02X-1168001Y1139752I3060J-2952D01*
G01X-1168000D01*
G02X-1164482Y1137889I0J-4253D01*
G03X-1163752Y1138113I330J225D01*
G01Y1138500D01*
G02X-1163531Y1139031I751J-1D01*
G01X-1162031Y1140531D01*
G02X-1161500Y1140752I532J-530D01*
G01X-1152500D01*
G02X-1151969Y1140531I-1J-751D01*
G01X-1150430Y1138993D01*
X-1150295Y1139080D01*
G02X-1148002Y1139752I2294J-3580D01*
G01X-1148000D01*
G02X-1152252Y1135500I0J-4252D01*
G01Y1135502D01*
G02X-1151580Y1137795I4252J-1D01*
G01X-1151493Y1137930D01*
X-1152811Y1139248D01*
X-1154771D01*
G03X-1155048Y1138561I1J-400D01*
G02X-1153748Y1135501I-2952J-3060D01*
G01Y1135500D01*
G02X-1158000Y1131248I-4252J0D01*
G01X-1158002D01*
G02X-1160295Y1131920I1J4252D01*
G01X-1160430Y1132007D01*
X-1166748Y1125689D01*
Y1122552D01*
G03X-1166018Y1122327I400J0D01*
G02X-1163000Y1123923I3018J-2055D01*
G02X-1159349Y1120272I0J-3651D01*
G01Y1108728D01*
G02X-1163000Y1105077I-3651J0D01*
G02X-1166363Y1107307I0J3651D01*
G01X-1166415Y1107430D01*
X-1166748D01*
Y1106501D01*
G02X-1166968Y1105970I-751J0D01*
G01X-1172970Y1099968D01*
G02X-1173501Y1099748I-531J531D01*
G01X-1174853D01*
G03X-1175218Y1099186I0J-400D01*
G02X-1175088Y1098575I-1371J-611D01*
G02X-1176590Y1097073I-1502J0D01*
G02X-1176797Y1097087I-2J1502D01*
G03X-1177226Y1096549I-55J-396D01*
G02X-1177128Y1096016I-1404J-534D01*
G02X-1178630Y1094514I-1502J0D01*
G02X-1179624Y1094890I0J1502D01*
G03X-1179916Y1094860I-132J-150D01*
G02X-1179919Y1094856I-710J529D01*
G03X-1179899Y1094591I159J-121D01*
G02X-1179628Y1093949I-625J-642D01*
G01Y1092965D01*
G02X-1179813Y1092421I-896J1D01*
G03Y1091934I318J-243D01*
G02X-1179711Y1091766I-710J-546D01*
G01X-1179657Y1091650D01*
X-1179398D01*
G02X-1178867Y1091429I-1J-751D01*
G01X-1178391Y1090954D01*
X-1178286Y1090974D01*
G02X-1178000Y1091002I289J-1474D01*
G02Y1087998I0J-1502D01*
G02X-1178970Y1088353I0J1503D01*
G03X-1179628Y1088048I-258J-305D01*
G01Y1087847D01*
G02X-1179813Y1087303I-896J1D01*
G03Y1086816I318J-244D01*
G02X-1179628Y1086272I-711J-545D01*
G01Y1085288D01*
G02X-1179813Y1084743I-895J0D01*
G03Y1084257I317J-243D01*
G02X-1179628Y1083712I-710J-545D01*
G01Y1082728D01*
G02X-1179636Y1082615I-896J7D01*
G01X-1179269Y1082481D01*
G02X-1178000Y1083179I1269J-805D01*
G02Y1080175I0J-1502D01*
G02X-1178970Y1080530I0J1503D01*
G03X-1179628Y1080225I-258J-305D01*
G01Y1080169D01*
G02X-1179813Y1079625I-896J1D01*
G03Y1079138I318J-244D01*
G02X-1179711Y1078970I-710J-546D01*
G01X-1179657Y1078854D01*
X-1172602D01*
G02X-1172071Y1078633I-1J-751D01*
G01X-1156969Y1063531D01*
G02X-1156748Y1063000I-530J-532D01*
G01Y1062552D01*
G03X-1156018Y1062327I400J0D01*
G02X-1153000Y1063923I3018J-2055D01*
G01X-1152956D01*
G03X-1152668Y1064605I5J400D01*
G01X-1153109Y1065046D01*
X-1153214Y1065026D01*
G02X-1153500Y1064998I-289J1474D01*
G02Y1068002I0J1502D01*
G02X-1152513Y1067632I0J-1501D01*
G03X-1151987I263J302D01*
G02X-1151000Y1068002I987J-1131D01*
G02X-1150714Y1067974I-3J-1502D01*
G01X-1150609Y1067954D01*
X-1148252Y1070311D01*
Y1070798D01*
G03X-1148830Y1071156I-400J0D01*
G02X-1149500Y1070998I-671J1344D01*
G02X-1150800Y1071748I0J1502D01*
G01X-1151115D01*
X-1151133Y1071745D01*
G02X-1151266Y1071732I-139J738D01*
G01X-1155160D01*
X-1155212Y1071613D01*
G02X-1155851Y1071196I-639J281D01*
G01X-1160183D01*
G02X-1160273Y1071201I-6J698D01*
G03X-1160490Y1071054I-24J-199D01*
G02X-1161941Y1069939I-1451J387D01*
G02X-1163443Y1071441I0J1502D01*
G02X-1163437Y1071571I1502J-4D01*
G03X-1163870Y1072004I-399J34D01*
G02X-1164000Y1071998I-134J1496D01*
G02X-1162498Y1073500I0J1502D01*
G02X-1162504Y1073370I-1502J4D01*
G03X-1162071Y1072937I399J-34D01*
G02X-1161941Y1072943I134J-1496D01*
G02X-1161181Y1072736I-1J-1502D01*
G03X-1160880Y1072909I101J173D01*
G01Y1073074D01*
G02X-1160725Y1073512I699J-1D01*
G03Y1074015I-311J252D01*
G02X-1160880Y1074453I544J439D01*
G01Y1075633D01*
G02X-1160725Y1076071I699J-1D01*
G03Y1076574I-311J252D01*
G02X-1160880Y1077012I544J439D01*
G01Y1078192D01*
G02X-1160725Y1078630I699J-1D01*
G03Y1079133I-311J252D01*
G02X-1160820Y1079290I545J437D01*
G01X-1160873Y1079410D01*
X-1163967D01*
G02X-1165000Y1078998I-1033J1089D01*
G02X-1166065Y1079441I0J1502D01*
G03X-1166748Y1079159I-283J-282D01*
G01Y1078550D01*
G02X-1165998Y1077250I-752J-1300D01*
G02X-1169002I-1502J0D01*
G02X-1168252Y1078550I1502J0D01*
G01Y1081000D01*
G02X-1168031Y1081531I751J-1D01*
G01X-1166311Y1083251D01*
G02X-1165780Y1083472I532J-530D01*
G01X-1160872D01*
X-1160820Y1083592D01*
G02X-1160724Y1083749I639J-283D01*
G03Y1084251I-312J251D01*
G02X-1160880Y1084690I543J440D01*
G01Y1085870D01*
G02X-1160725Y1086308I699J-1D01*
G03Y1086811I-311J251D01*
G02X-1160820Y1086968I545J437D01*
G01X-1160873Y1087088D01*
X-1163120D01*
X-1164046Y1086161D01*
X-1164026Y1086056D01*
G02X-1163998Y1085770I-1474J-289D01*
G02X-1165500Y1087272I-1502J0D01*
G02X-1165214Y1087244I-3J-1502D01*
G01X-1165109Y1087224D01*
X-1164393Y1087939D01*
G03X-1164534Y1088596I-283J283D01*
G02X-1165502Y1090000I534J1404D01*
G02X-1162498I1502J0D01*
G02X-1162727Y1089203I-1501J0D01*
G03X-1162388Y1088590I339J-213D01*
G01X-1160873D01*
X-1160820Y1088710D01*
G02X-1160725Y1088867I640J-280D01*
G03Y1089370I-311J251D01*
G02X-1160880Y1089808I544J439D01*
G01Y1090988D01*
G02X-1160725Y1091426I699J-1D01*
G03Y1091929I-311J251D01*
G02X-1160820Y1092086I545J437D01*
G01X-1160873Y1092206D01*
X-1161738D01*
G02X-1162499Y1091998I-763J1294D01*
G01X-1162500D01*
G02X-1164002Y1093500I0J1502D01*
G01Y1093501D01*
G02X-1163838Y1094183I1502J0D01*
G03X-1164194Y1094764I-356J181D01*
G01X-1166673D01*
X-1169546Y1091891D01*
X-1169526Y1091786D01*
G02X-1169498Y1091500I-1474J-289D01*
G02X-1171000Y1093002I-1502J0D01*
G02X-1170714Y1092974I-3J-1502D01*
G01X-1170609Y1092954D01*
X-1167515Y1096047D01*
G02X-1166984Y1096268I532J-530D01*
G01X-1160872D01*
X-1160820Y1096387D01*
G02X-1160181Y1096804I639J-281D01*
G01X-1155849D01*
G02X-1155152Y1096106I-1J-698D01*
G01Y1094926D01*
G02X-1155307Y1094488I-699J1D01*
G03Y1093985I311J-251D01*
G02X-1155152Y1093547I-544J-439D01*
G01Y1092367D01*
G02X-1155307Y1091929I-699J1D01*
G03Y1091426I311J-252D01*
G02X-1155152Y1090988I-544J-439D01*
G01Y1089808D01*
G02X-1155307Y1089370I-699J1D01*
G03Y1088867I311J-252D01*
G02X-1155152Y1088429I-544J-439D01*
G01Y1087249D01*
G02X-1155307Y1086811I-699J1D01*
G03Y1086308I311J-252D01*
G02X-1155152Y1085870I-544J-439D01*
G01Y1084690D01*
G02X-1155308Y1084251I-699J1D01*
G03Y1083749I312J-251D01*
G02X-1155152Y1083310I-543J-440D01*
G01Y1082130D01*
G02X-1155307Y1081692I-699J1D01*
G03Y1081189I311J-251D01*
G02X-1155152Y1080751I-544J-439D01*
G01Y1079571D01*
G02X-1155307Y1079133I-699J1D01*
G03Y1078630I311J-251D01*
G02X-1155152Y1078192I-544J-439D01*
G01Y1077012D01*
G02X-1155307Y1076574I-699J1D01*
G03Y1076071I311J-251D01*
G02X-1155212Y1075914I-545J-437D01*
G01X-1155159Y1075794D01*
X-1153793D01*
G02X-1153262Y1075574I0J-751D01*
G01X-1153187Y1075500D01*
G03X-1152609Y1075513I283J283D01*
G02X-1151500Y1076002I1109J-1013D01*
G02X-1149998Y1074500I0J-1502D01*
G02X-1150000Y1074420I-1502J-2D01*
G03X-1149580Y1074000I399J-21D01*
G02X-1149500Y1074002I78J-1500D01*
G02X-1148830Y1073844I-1J-1502D01*
G03X-1148252Y1074202I178J358D01*
G01Y1078750D01*
G02X-1148031Y1079281I751J-1D01*
G01X-1145281Y1082031D01*
G02X-1144750Y1082252I532J-530D01*
G01X-1140800D01*
G02X-1139500Y1083002I1300J-752D01*
G02X-1138511Y1082630I0J-1501D01*
G03X-1137848Y1082931I263J301D01*
G01Y1083310D01*
G02X-1137692Y1083749I699J-1D01*
G03Y1084251I-312J251D01*
G02X-1137848Y1084690I543J440D01*
G01Y1085870D01*
G02X-1137693Y1086308I699J-1D01*
G03Y1086811I-311J251D01*
G02X-1137848Y1087249I544J439D01*
G01Y1087636D01*
G03X-1138406Y1088003I-400J0D01*
G02X-1139000Y1087880I-595J1379D01*
G02X-1139629Y1088018I0J1502D01*
G03X-1140154Y1087832I-167J-363D01*
G02X-1141500Y1086998I-1346J669D01*
G02X-1142800Y1087748I0J1502D01*
G01X-1149118D01*
G02X-1149610Y1087932I1J752D01*
G02X-1150000Y1087880I-392J1450D01*
G02X-1151502Y1089382I0J1502D01*
G01Y1089383D01*
G02X-1151406Y1089911I1502J0D01*
G03X-1151826Y1090449I-374J141D01*
G02X-1151998Y1090439I-173J1492D01*
G01X-1152000D01*
G02Y1093443I0J1502D01*
G02X-1150700Y1092692I0J-1501D01*
G01X-1144941D01*
G02X-1144410Y1092472I0J-751D01*
G01X-1143891Y1091954D01*
X-1143786Y1091974D01*
G02X-1143613Y1091998I293J-1473D01*
G03X-1143360Y1092679I-30J399D01*
G01X-1146429Y1095748D01*
X-1151700D01*
G02X-1153000Y1094998I-1300J752D01*
G02Y1098002I0J1502D01*
G02X-1152520Y1097923I-1J-1502D01*
G03X-1151994Y1098344I128J379D01*
G02X-1152002Y1098499I1494J155D01*
G01Y1098501D01*
G02X-1151926Y1098973I1502J0D01*
G03X-1152305Y1099498I-380J125D01*
G01X-1165798D01*
G03X-1166156Y1098920I0J-400D01*
G02X-1165998Y1098250I-1344J-671D01*
G02X-1167500Y1096748I-1502J0D01*
G02X-1168608Y1097236I0J1502D01*
G03X-1169239Y1097184I-295J-270D01*
G02X-1170500Y1096498I-1261J816D01*
G02Y1099502I0J1502D01*
G02X-1170214Y1099474I-3J-1502D01*
G01X-1170109Y1099454D01*
X-1168781Y1100781D01*
G02X-1168250Y1101002I532J-530D01*
G01X-1154053D01*
G03X-1153726Y1101632I0J400D01*
G02X-1154002Y1102500I1227J868D01*
G02X-1152500Y1104002I1502J0D01*
G01X-1152497D01*
G02X-1152009Y1103920I-2J-1502D01*
G03X-1151484Y1104235I130J378D01*
G02X-1150000Y1105502I1484J-236D01*
G02X-1148700Y1104752I0J-1502D01*
G01X-1144902D01*
G03X-1144714Y1105505I0J400D01*
G02X-1146651Y1108728I1713J3223D01*
G01Y1120272D01*
G02X-1139349I3651J0D01*
G01Y1115252D01*
X-1120500D01*
G02X-1119969Y1115031I-1J-751D01*
G01X-1117619Y1112681D01*
G02X-1117398Y1112150I-530J-532D01*
G01Y1101752D01*
X-1116794D01*
G02X-1115898Y1100856I0J-896D01*
G01Y1098311D01*
X-1113969Y1096381D01*
G02X-1113748Y1095850I-530J-532D01*
G01Y1018500D01*
G02X-1113969Y1017969I-751J1D01*
G01X-1116969Y1014969D01*
G02X-1117500Y1014748I-532J530D01*
G01X-1201500D01*
G02X-1202031Y1014969I1J751D01*
G01X-1204031Y1016969D01*
G02X-1204252Y1017500I530J532D01*
G01Y1017887D01*
G03X-1204982Y1018111I-400J-1D01*
G02X-1208500Y1016248I-3518J2390D01*
G02Y1024752I0J4252D01*
G02X-1204982Y1022889I0J-4253D01*
G03X-1204252Y1023113I330J225D01*
G01Y1025189D01*
X-1206070Y1027007D01*
X-1206205Y1026920D01*
G02X-1208498Y1026248I-2294J3580D01*
G01X-1208500D01*
G02Y1034752I0J4252D01*
G02X-1204634Y1032271I0J-4253D01*
G01Y1032270D01*
X-1204252Y1032354D01*
Y1032500D01*
G02X-1204031Y1033031I751J-1D01*
G01X-1199252Y1037811D01*
Y1046448D01*
G03X-1199982Y1046673I-400J0D01*
G02X-1203000Y1045077I-3018J2055D01*
G02X-1206651Y1048728I0J3651D01*
G01Y1053748D01*
X-1214000D01*
G02X-1214531Y1053969I1J751D01*
G01X-1216811Y1056248D01*
X-1219356D01*
G02X-1220252Y1057144I0J896D01*
G01Y1059856D01*
G02X-1220184Y1060196I896J-2D01*
G03X-1220554Y1060748I-370J152D01*
G01X-1220689D01*
X-1221748Y1059689D01*
Y1057144D01*
G02X-1222644Y1056248I-896J0D01*
G01X-1225356D01*
G02X-1226252Y1057144I0J896D01*
G01Y1059856D01*
G02X-1225356Y1060752I896J0D01*
G01X-1222811D01*
X-1221531Y1062031D01*
G02X-1221000Y1062252I532J-530D01*
G01X-1220554D01*
G03X-1220184Y1062804I0J400D01*
G02X-1220252Y1063144I828J342D01*
G01Y1065856D01*
G02X-1219356Y1066752I896J0D01*
G01X-1216644D01*
G02X-1215748Y1065856I0J-896D01*
G01Y1063144D01*
G02X-1215816Y1062804I-896J2D01*
G03X-1215446Y1062252I370J-152D01*
G01X-1214811D01*
X-1212752Y1064311D01*
Y1065023D01*
G02X-1213502Y1066323I752J1300D01*
G02X-1213474Y1066609I1502J-3D01*
G01X-1213454Y1066714D01*
X-1214531Y1067792D01*
G02X-1214752Y1068323I530J532D01*
G01Y1077720D01*
G03X-1215434Y1078003I-400J0D01*
G01X-1215748Y1077689D01*
Y1075144D01*
G02X-1216644Y1074248I-896J0D01*
G01X-1219356D01*
G02X-1220252Y1075144I0J896D01*
G01Y1077856D01*
G02X-1220251Y1077878I895J-30D01*
G03X-1220515Y1078078I-200J11D01*
G02X-1220999Y1077998I-484J1422D01*
G01X-1221001D01*
G02X-1221485Y1078078I0J1502D01*
G03X-1221749Y1077883I-64J-189D01*
G01Y1077874D01*
G02X-1221748Y1077856I-893J-59D01*
G01Y1075144D01*
G02X-1222434Y1074273I-896J0D01*
G02X-1222441Y1074271I-249J859D01*
G03X-1222587Y1074008I42J-195D01*
G02X-1222498Y1073500I-1413J-509D01*
G02X-1222587Y1072992I-1502J1D01*
G03X-1222441Y1072729I188J-68D01*
G02X-1222434Y1072727I-242J-861D01*
G02X-1221748Y1071856I-210J-871D01*
G01Y1069144D01*
G02X-1222434Y1068273I-896J0D01*
G02X-1222443Y1068271I-199J873D01*
G03X-1222587Y1068008I44J-195D01*
G02X-1222498Y1067500I-1413J-509D01*
G02X-1222540Y1067148I-1502J1D01*
G03X-1222303Y1066684I389J-94D01*
G02X-1221748Y1065856I-340J-828D01*
G01Y1063144D01*
G02X-1222644Y1062248I-896J0D01*
G01X-1225356D01*
G02X-1226252Y1063144I0J896D01*
G01Y1065856D01*
G02X-1225697Y1066684I895J0D01*
G03X-1225460Y1067148I-152J370D01*
G02X-1225502Y1067500I1460J353D01*
G02X-1225413Y1068008I1502J-1D01*
G03X-1225557Y1068271I-188J68D01*
G02X-1225566Y1068273I190J875D01*
G02X-1226252Y1069144I210J871D01*
G01Y1071856D01*
G02X-1225566Y1072727I896J0D01*
G02X-1225559Y1072729I249J-859D01*
G03X-1225413Y1072992I-42J195D01*
G02X-1225502Y1073500I1413J509D01*
G02X-1225413Y1074008I1502J-1D01*
G03X-1225559Y1074271I-188J68D01*
G02X-1225566Y1074273I242J861D01*
G02X-1226252Y1075144I210J871D01*
G01Y1077856D01*
G02X-1225566Y1078727I896J0D01*
G02X-1225435Y1078748I207J-871D01*
G03X-1225252Y1078947I-17J199D01*
G01Y1080053D01*
G03X-1225435Y1080252I-200J0D01*
G02X-1226252Y1081144I78J892D01*
G01Y1083856D01*
G02X-1225435Y1084748I895J0D01*
G03X-1225252Y1084947I-17J199D01*
G01Y1086053D01*
G03X-1225435Y1086252I-200J0D01*
G02X-1226252Y1087144I78J892D01*
G01Y1089856D01*
G02X-1225435Y1090748I895J0D01*
G03X-1225252Y1090947I-17J199D01*
G01Y1092053D01*
G03X-1225435Y1092252I-200J0D01*
G02X-1226252Y1093144I78J892D01*
G01Y1095856D01*
G02X-1225435Y1096748I895J0D01*
G03X-1225252Y1096947I-17J199D01*
G01Y1097999D01*
G03X-1225444Y1098199I-200J0D01*
G02X-1226302Y1099094I38J895D01*
G01Y1099111D01*
G03X-1226975Y1099403I-400J0D01*
G02X-1228000Y1098998I-1026J1097D01*
G02Y1102002I0J1502D01*
G02X-1226679Y1101214I0J-1501D01*
G01X-1226678Y1101212D01*
X-1226669Y1101196D01*
X-1226658Y1101182D01*
G03X-1226302Y1101307I156J125D01*
G01Y1101806D01*
G02X-1225485Y1102698I895J0D01*
G03X-1225302Y1102897I-17J199D01*
G01Y1104003D01*
G03X-1225485Y1104202I-200J0D01*
G02X-1226302Y1105094I78J892D01*
G01Y1105111D01*
G03X-1226975Y1105403I-400J0D01*
G02X-1228000Y1104998I-1026J1097D01*
G02Y1108002I0J1502D01*
G02X-1226679Y1107214I0J-1501D01*
G01X-1226678Y1107212D01*
X-1226669Y1107196D01*
X-1226658Y1107182D01*
G03X-1226302Y1107307I156J125D01*
G01Y1107806D01*
G02X-1225406Y1108702I896J0D01*
G01X-1223568D01*
X-1222474Y1109796D01*
X-1222460Y1109851D01*
G02X-1222421Y1109987I1462J-346D01*
G03X-1222627Y1110251I-189J65D01*
G02X-1222694Y1110248I-74J893D01*
G01X-1225406D01*
G02X-1226302Y1111144I0J896D01*
G01Y1111748D01*
X-1226695D01*
X-1226755Y1111660D01*
G02X-1228000Y1110998I-1245J840D01*
G02Y1114002I0J1502D01*
G02X-1226755Y1113340I0J-1502D01*
G01X-1226695Y1113252D01*
X-1226302D01*
Y1113856D01*
G02X-1225406Y1114752I896J0D01*
G01X-1222694D01*
G02X-1221798Y1113856I0J-896D01*
G01Y1111144D01*
G02X-1221799Y1111103I-896J1D01*
G03X-1221529Y1110906I200J-10D01*
G02X-1221001Y1111002I528J-1406D01*
G01X-1221000D01*
G02X-1220765Y1110983I-3J-1502D01*
G03X-1220302Y1111378I63J395D01*
G01Y1113856D01*
G02X-1219406Y1114752I896J0D01*
G01X-1216694D01*
G02X-1215798Y1113856I0J-896D01*
G01Y1113600D01*
X-1215525D01*
X-1215469Y1113647D01*
G02X-1214500Y1114002I970J-1147D01*
G02Y1110998I0J-1502D01*
G37*
G54D22*
X-1210323Y1102177D03*
G54D21*
X-1218500Y1020500D03*
X-1138000Y1145500D03*
X-1128000D03*
X-1218500Y1030500D03*
X-1138000Y1135500D03*
X-1128000D03*
G54D20*
X-1153000Y1114500D03*
%LPD*%
G75*
G36*
G01X-1210248Y1090200D02*
G03X-1209739Y1090683I-751J1301D01*
G01X-1209680Y1090775D01*
X-1209372D01*
Y1090406D01*
G03X-1209187Y1089862I896J1D01*
G02Y1089375I-318J-244D01*
G03X-1209372Y1088831I711J-545D01*
G01Y1087847D01*
G03X-1209187Y1087303I896J1D01*
G02Y1086816I-318J-244D01*
G03X-1209372Y1086272I711J-545D01*
G01Y1085288D01*
G03X-1209187Y1084743I895J0D01*
G02Y1084257I-317J-243D01*
G03X-1209372Y1083712I710J-545D01*
G01Y1082728D01*
G03X-1209187Y1082184I896J1D01*
G02Y1081697I-318J-243D01*
G03X-1209372Y1081153I711J-545D01*
G01Y1080169D01*
G03X-1209187Y1079625I896J1D01*
G02Y1079138I-318J-244D01*
G03X-1209372Y1078594I711J-545D01*
G01Y1077610D01*
G03X-1209187Y1077066I896J1D01*
G02Y1076579I-318J-243D01*
G03X-1209372Y1076035I711J-545D01*
G01Y1075051D01*
G03X-1209187Y1074507I896J1D01*
G02Y1074020I-318J-244D01*
G03X-1209372Y1073476I711J-545D01*
G01Y1072492D01*
G03X-1209187Y1071948I896J1D01*
G02Y1071461I-318J-243D01*
G03X-1209372Y1070917I711J-545D01*
G01Y1069933D01*
G03X-1208476Y1069038I895J0D01*
G01X-1203358D01*
G03X-1202462Y1069933I0J896D01*
G01Y1070917D01*
G03X-1202647Y1071461I-896J-1D01*
G02Y1071948I318J244D01*
G03X-1202545Y1072116I-710J546D01*
G01X-1202491Y1072232D01*
X-1202017D01*
G03X-1201486Y1072453I-1J751D01*
G01X-1197185Y1076754D01*
G02X-1196502Y1076477I283J-283D01*
G03X-1195000Y1074998I1502J23D01*
G03X-1193498Y1076500I0J1502D01*
G03X-1194977Y1078002I-1502J0D01*
G02X-1195254Y1078685I6J400D01*
G01X-1194679Y1079259D01*
G02X-1193998Y1079006I282J-283D01*
G03X-1192500Y1077616I1498J112D01*
G03X-1191830Y1077774I-1J1502D01*
G02X-1191252Y1077416I178J-358D01*
G01Y1075702D01*
G02X-1191830Y1075344I-400J0D01*
G03X-1192500Y1075502I-671J-1344D01*
G03Y1072498I0J-1502D01*
G03X-1191830Y1072656I-1J1502D01*
G02X-1191252Y1072298I178J-358D01*
G01Y1070311D01*
X-1199031Y1062531D01*
G03X-1199252Y1062000I530J-532D01*
G01Y1061568D01*
X-1199584D01*
X-1199636Y1061690D01*
G03X-1203000Y1063923I-3364J-1417D01*
G03X-1206651Y1060272I0J-3651D01*
G01Y1055252D01*
X-1213689D01*
X-1215748Y1057311D01*
Y1059856D01*
G03X-1215816Y1060196I-896J-2D01*
G02X-1215446Y1060748I370J152D01*
G01X-1214500D01*
G03X-1213969Y1060969I-1J751D01*
G01X-1211469Y1063469D01*
G03X-1211248Y1064000I-530J532D01*
G01Y1065023D01*
G03X-1210498Y1066323I-752J1300D01*
G03X-1212000Y1067825I-1502J0D01*
G03X-1212287Y1067797I2J-1502D01*
G01X-1212391Y1067777D01*
X-1213248Y1068634D01*
Y1069739D01*
G02X-1212670Y1070097I400J0D01*
G03X-1212000Y1069939I671J1344D01*
G03X-1210498Y1071441I0J1502D01*
G03X-1211880Y1072938I-1502J0D01*
G02X-1212248Y1073337I32J399D01*
G01Y1086596D01*
X-1210469Y1088376D01*
G03X-1210248Y1088907I-530J532D01*
G01Y1090200D01*
G37*
G36*
G01X-1212689Y1139748D02*
X-1210613D01*
G02X-1210389Y1139018I-1J-400D01*
G03X-1212252Y1135500I2390J-3518D01*
G03X-1208000Y1131248I4252J0D01*
G03X-1205705Y1131920I1J4252D01*
G01X-1205570Y1132007D01*
X-1199252Y1125689D01*
Y1122552D01*
G02X-1199982Y1122327I-400J0D01*
G03X-1203000Y1123923I-3018J-2055D01*
G03X-1206651Y1120272I0J-3651D01*
G01Y1108728D01*
G03X-1204714Y1105505I3650J0D01*
G02X-1204902Y1104752I-188J-353D01*
G01X-1205689D01*
X-1207248Y1106311D01*
Y1115415D01*
G03X-1207469Y1115946I-751J-1D01*
G01X-1222248Y1130726D01*
Y1130854D01*
G02X-1221805Y1131252I400J0D01*
G03X-1221750Y1131248I64J497D01*
G01X-1214250D01*
G03X-1213748Y1131750I0J502D01*
G01Y1138689D01*
X-1212689Y1139748D01*
G37*
G36*
G01X-1176659Y1076248D02*
X-1173311D01*
X-1161473Y1064410D01*
G02X-1161878Y1063746I-283J-283D01*
G03X-1163000Y1063923I-1123J-3474D01*
G03X-1166018Y1062327I0J-3651D01*
G02X-1166748Y1062552I-330J225D01*
G01Y1066501D01*
G03X-1166969Y1067032I-751J-1D01*
G01X-1171968Y1072031D01*
G03X-1172499Y1072252I-532J-530D01*
G01X-1177188D01*
X-1177446Y1072509D01*
G02X-1177339Y1073151I283J283D01*
G03X-1176498Y1074500I-661J1349D01*
G03X-1176941Y1075565I-1502J0D01*
G02X-1176659Y1076248I282J283D01*
G37*
G36*
G01X-1119951Y1096871D02*
X-1119965Y1096926D01*
G03X-1119993Y1097029I-1462J-342D01*
G02X-1119748Y1097282I191J61D01*
G03X-1119506Y1097248I244J862D01*
G01X-1116961D01*
X-1115252Y1095539D01*
Y1018811D01*
X-1117811Y1016252D01*
X-1123854D01*
G02X-1124252Y1016695I0J400D01*
G03X-1124248Y1016750I-497J64D01*
G01Y1024250D01*
G03X-1124750Y1024752I-502J0D01*
G01X-1132250D01*
G03X-1132752Y1024250I0J-502D01*
G01Y1016750D01*
G03X-1132748Y1016695I501J9D01*
G02X-1133146Y1016252I-398J-43D01*
G01X-1135887D01*
G02X-1136111Y1016982I1J400D01*
G03X-1134248Y1020500I-2390J3518D01*
G03X-1142752I-4252J0D01*
G03X-1140889Y1016982I4253J0D01*
G02X-1141113Y1016252I-225J-330D01*
G01X-1145887D01*
G02X-1146111Y1016982I1J400D01*
G03X-1144248Y1020500I-2390J3518D01*
G03X-1148500Y1024752I-4252J0D01*
G03X-1150795Y1024080I-1J-4252D01*
G01X-1150930Y1023993D01*
X-1152248Y1025311D01*
Y1027271D01*
G02X-1151561Y1027548I400J-1D01*
G03X-1148500Y1026248I3060J2952D01*
G03Y1034752I0J4252D01*
G03X-1151889Y1033068I0J-4252D01*
G01X-1151949Y1032989D01*
X-1152248D01*
Y1033500D01*
G03X-1152469Y1034031I-751J-1D01*
G01X-1154503Y1036066D01*
G02X-1154220Y1036748I283J282D01*
G01X-1145811D01*
X-1141993Y1032930D01*
X-1142080Y1032795D01*
G03X-1142752Y1030500I3580J-2294D01*
G03X-1138500Y1034752I4252J0D01*
G03X-1140795Y1034080I-1J-4252D01*
G01X-1140930Y1033993D01*
X-1144003Y1037066D01*
G02X-1143720Y1037748I283J282D01*
G01X-1136811D01*
X-1132752Y1033689D01*
Y1026750D01*
G03X-1132250Y1026248I502J0D01*
G01X-1124750D01*
G03X-1124248Y1026750I0J502D01*
G01Y1034250D01*
G03X-1124750Y1034752I-502J0D01*
G01X-1131689D01*
X-1135969Y1039031D01*
G03X-1136500Y1039252I-532J-530D01*
G01X-1146798D01*
G02X-1147156Y1039830I0J400D01*
G03X-1146998Y1040500I-1344J671D01*
G03X-1148500Y1042002I-1502J0D01*
G03X-1149800Y1041252I0J-1502D01*
G01X-1153689D01*
X-1156748Y1044311D01*
Y1046448D01*
G02X-1156018Y1046673I400J0D01*
G03X-1153000Y1045077I3018J2055D01*
G03X-1149349Y1048728I0J3651D01*
G01Y1060272D01*
G03X-1150625Y1063045I-3651J0D01*
G02X-1150365Y1063748I261J303D01*
G01X-1150000D01*
G03X-1149469Y1063969I-1J751D01*
G01X-1145969Y1067469D01*
G03X-1145748Y1068000I-530J532D01*
G01Y1071689D01*
X-1144189Y1073248D01*
X-1142300D01*
G03X-1141000Y1072498I1300J752D01*
G03X-1139498Y1074000I0J1502D01*
G03X-1139575Y1074476I-1502J1D01*
G01X-1139614Y1074593D01*
X-1139386Y1074822D01*
X-1139075Y1074512D01*
G03X-1138544Y1074292I531J531D01*
G01X-1137841D01*
X-1137788Y1074172D01*
G03X-1137693Y1074015I640J280D01*
G02Y1073512I-311J-251D01*
G03X-1137848Y1073074I544J-439D01*
G01Y1071894D01*
G03X-1137149Y1071196I698J0D01*
G01X-1132819D01*
G03X-1132180Y1071613I0J698D01*
G01X-1132127Y1071732D01*
X-1127366D01*
G03X-1126835Y1071953I-1J751D01*
G01X-1125539Y1073248D01*
X-1122809D01*
Y1073011D01*
X-1122823Y1072975D01*
G03X-1122885Y1072776I1400J-545D01*
G01X-1122899Y1072721D01*
X-1128635Y1066985D01*
G03X-1129002Y1066100I884J-885D01*
G01Y1064331D01*
G03X-1129252Y1063500I1252J-830D01*
G03X-1126248I1502J0D01*
G03X-1126498Y1064331I-1502J1D01*
G01Y1065582D01*
X-1121129Y1070951D01*
X-1121074Y1070965D01*
G03X-1119965Y1072074I-351J1460D01*
G01X-1119951Y1072129D01*
X-1118832Y1073248D01*
X-1116994D01*
G03X-1116098Y1074144I0J896D01*
G01Y1076856D01*
G03X-1116916Y1077748I-895J0D01*
G02X-1117098Y1077947I18J199D01*
G01Y1079053D01*
G02X-1116916Y1079252I200J0D01*
G03X-1116098Y1080144I-77J892D01*
G01Y1082856D01*
G03X-1116916Y1083748I-895J0D01*
G02X-1117098Y1083947I18J199D01*
G01Y1085053D01*
G02X-1116916Y1085252I200J0D01*
G03X-1116098Y1086144I-77J892D01*
G01Y1088856D01*
G03X-1116916Y1089748I-895J0D01*
G02X-1117098Y1089947I18J199D01*
G01Y1091053D01*
G02X-1116916Y1091252I200J0D01*
G03X-1116098Y1092144I-77J892D01*
G01Y1094856D01*
G03X-1116994Y1095752I-896J0D01*
G01X-1118832D01*
X-1119951Y1096871D01*
G37*
G36*
G01X-1139349Y1113748D02*
X-1120811D01*
X-1118902Y1111839D01*
Y1101752D01*
X-1119506D01*
G03X-1120402Y1100856I0J-896D01*
G01Y1098144D01*
G03X-1120399Y1098078I896J8D01*
G02X-1120696Y1097888I-199J-15D01*
G03X-1121074Y1098035I-728J-1313D01*
G01X-1121129Y1098049D01*
X-1121898Y1098818D01*
Y1100856D01*
G03X-1122794Y1101752I-896J0D01*
G01X-1125506D01*
G03X-1126402Y1100856I0J-896D01*
G01Y1098144D01*
G03X-1125506Y1097248I896J0D01*
G01X-1123868D01*
X-1122899Y1096279D01*
X-1122885Y1096224D01*
G03X-1122823Y1096025I1462J346D01*
G01X-1122809Y1095989D01*
Y1095752D01*
X-1125706D01*
G03X-1126544Y1095171I0J-895D01*
G02X-1127041Y1094930I-375J140D01*
G03X-1127500Y1095002I-459J-1430D01*
G03X-1128958Y1093860I0J-1502D01*
G01X-1128996Y1093708D01*
X-1132127D01*
X-1132180Y1093828D01*
G03X-1132275Y1093985I-640J-280D01*
G02Y1094488I311J252D01*
G03X-1132120Y1094926I-544J439D01*
G01Y1096106D01*
G03X-1132819Y1096804I-698J0D01*
G01X-1137149D01*
G03X-1137650Y1096593I-1J-698D01*
G02X-1137933Y1096589I-143J139D01*
G03X-1138086Y1096720I-1051J-1073D01*
G02X-1138194Y1097238I239J320D01*
G03X-1137998Y1097981I-1306J742D01*
G03X-1139500Y1099483I-1502J0D01*
G03X-1140502Y1099100I0J-1502D01*
G02X-1141052Y1099115I-267J298D01*
G01X-1142046Y1100109D01*
X-1142026Y1100213D01*
G03X-1142006Y1100346I-1474J290D01*
G02X-1141771Y1100523I199J-20D01*
G03X-1141500Y1100498I273J1477D01*
G03Y1103502I0J1502D01*
G03X-1141787Y1103474I2J-1502D01*
G01X-1141891Y1103454D01*
X-1142969Y1104531D01*
G03X-1143213Y1104695I-533J-530D01*
G02X-1143130Y1105079I77J184D01*
G03X-1143000Y1105077I121J3649D01*
G03X-1139349Y1108728I0J3651D01*
G01Y1113748D01*
G37*
G36*
G01X-1132120Y1080041D02*
G02X-1131464Y1080348I400J0D01*
G03X-1130500Y1079998I964J1153D01*
G03X-1129315Y1080577I0J1502D01*
G02X-1128685I315J-246D01*
G03X-1127500Y1079998I1185J923D01*
G03X-1127041Y1080070I0J1502D01*
G02X-1126544Y1079829I122J-381D01*
G03X-1125706Y1079248I838J314D01*
G01X-1122994D01*
G03X-1122098Y1080144I0J896D01*
G01Y1082856D01*
G03X-1122994Y1083752I-896J0D01*
G01X-1125706D01*
G03X-1126544Y1083171I0J-895D01*
G02X-1127041Y1082930I-375J140D01*
G03X-1127500Y1083002I-459J-1430D01*
G03X-1127787Y1082974I2J-1502D01*
G01X-1127891Y1082954D01*
X-1130749Y1085811D01*
G03X-1131280Y1086032I-532J-530D01*
G01X-1132127D01*
X-1132180Y1086151D01*
G03X-1132275Y1086308I-640J-280D01*
G02Y1086811I311J251D01*
G03X-1132180Y1086968I-545J437D01*
G01X-1132127Y1087088D01*
X-1130400D01*
X-1130315Y1087003D01*
G03X-1129751Y1086748I564J497D01*
G01X-1129300D01*
G03X-1128000Y1085998I1300J752D01*
G03X-1126942Y1086434I0J1502D01*
G01X-1126884Y1086492D01*
X-1126602D01*
Y1086144D01*
G03X-1125706Y1085248I896J0D01*
G01X-1122994D01*
G03X-1122098Y1086144I0J896D01*
G01Y1088856D01*
G03X-1122994Y1089752I-896J0D01*
G01X-1125706D01*
G03X-1126602Y1088856I0J-896D01*
G01Y1088508D01*
X-1126884D01*
X-1126942Y1088566D01*
G03X-1128000Y1089002I-1058J-1066D01*
G03X-1129225Y1088369I0J-1502D01*
G01X-1129235Y1088355D01*
X-1129338Y1088252D01*
X-1129440D01*
X-1129558Y1088370D01*
G03X-1130089Y1088590I-531J-531D01*
G01X-1132127D01*
X-1132180Y1088710D01*
G03X-1132275Y1088867I-640J-280D01*
G02Y1089370I311J251D01*
G03X-1132120Y1089808I-544J439D01*
G01Y1090988D01*
G03X-1132275Y1091426I-699J-1D01*
G02Y1091929I311J251D01*
G03X-1132180Y1092086I-545J437D01*
G01X-1132127Y1092206D01*
X-1128262D01*
G03X-1127500Y1091998I763J1294D01*
G03X-1127041Y1092070I0J1502D01*
G02X-1126544Y1091829I122J-381D01*
G03X-1125706Y1091248I838J314D01*
G01X-1122994D01*
G03X-1122098Y1092144I0J896D01*
G01Y1094856D01*
G03X-1122101Y1094926I-896J-3D01*
G01X-1122102Y1094941D01*
G02X-1121902Y1095141I200J0D01*
G01X-1121846Y1095133D01*
G03X-1121776Y1095115I409J1445D01*
G01X-1121721Y1095101D01*
X-1120602Y1093982D01*
Y1092144D01*
G03X-1119784Y1091252I895J0D01*
G01X-1119602Y1091053D01*
Y1089947D01*
X-1119784Y1089748D01*
G03X-1120602Y1088856I77J-892D01*
G01Y1086144D01*
G03X-1119784Y1085252I895J0D01*
G01X-1119602Y1085053D01*
Y1083947D01*
X-1119784Y1083748D01*
G03X-1120602Y1082856I77J-892D01*
G01Y1080144D01*
G03X-1119784Y1079252I895J0D01*
G01X-1119602Y1079053D01*
Y1077947D01*
X-1119784Y1077748D01*
G03X-1120602Y1076856I77J-892D01*
G01Y1075018D01*
X-1121721Y1073899D01*
X-1121776Y1073885D01*
G03X-1121846Y1073867I339J-1463D01*
G01X-1121902Y1073859D01*
G02X-1122102Y1074059I0J200D01*
G01X-1122101Y1074074D01*
G03X-1122098Y1074144I-893J73D01*
G01Y1076856D01*
G03X-1122994Y1077752I-896J0D01*
G01X-1125706D01*
G03X-1126602Y1076856I0J-896D01*
G01Y1074311D01*
X-1127677Y1073236D01*
X-1132127D01*
X-1132180Y1073355D01*
G03X-1132275Y1073512I-640J-280D01*
G02Y1074015I311J252D01*
G03X-1132120Y1074453I-544J439D01*
G01Y1075633D01*
G03X-1132275Y1076071I-699J-1D01*
G02Y1076574I311J252D01*
G03X-1132120Y1077012I-544J439D01*
G01Y1078192D01*
G03X-1132275Y1078630I-699J-1D01*
G02Y1079133I311J252D01*
G03X-1132120Y1079571I-544J439D01*
G01Y1080041D01*
G37*
%LPC*%
G75*
G54D20*
X-1143000Y1054500D03*
%LPD*%
G75*
G54D10*
X-1231000Y1040000D03*
X-1231500Y1066500D03*
X-1231000Y1081000D03*
X-1233500Y1094500D03*
X-1235000Y1108500D03*
X-1230500Y1025500D03*
X-1228000Y1016500D03*
X-1219500Y1051500D03*
X-1230500Y1053500D03*
X-1220500Y1041500D03*
X-1224000Y1073500D03*
Y1067500D03*
X-1212000Y1066323D03*
Y1071441D03*
X-1221000Y1079500D03*
X-1218000Y1067500D03*
X-1210500Y1081677D03*
X-1210323Y1102177D03*
X-1213000Y1089382D03*
X-1211000Y1091500D03*
X-1221000Y1103500D03*
Y1091500D03*
Y1085500D03*
X-1228000Y1100500D03*
Y1088500D03*
X-1214500Y1112500D03*
X-1221000Y1109500D03*
X-1228000Y1112500D03*
X-1214500Y1106450D03*
X-1228000Y1106500D03*
X-1224000Y1116500D03*
X-1217500Y1118000D03*
X-1216000Y1126500D03*
X-1230500D03*
X-1228500Y1140000D03*
X-1192500Y1079118D03*
X-1195000Y1076500D03*
X-1192500Y1074000D03*
X-1201464Y1070425D03*
X-1200709Y1092128D03*
X-1201500Y1094500D03*
X-1189500Y1094000D03*
X-1192500Y1126500D03*
X-1195000Y1127500D03*
X-1169000Y1039000D03*
X-1174000D03*
X-1173500Y1065500D03*
X-1176500Y1064000D03*
X-1178000Y1074500D03*
Y1081677D03*
X-1179500Y1064000D03*
X-1167500Y1077250D03*
X-1165000Y1080500D03*
X-1164500Y1065500D03*
X-1167500Y1098250D03*
X-1176590Y1098575D03*
X-1178630Y1096016D03*
X-1178000Y1089500D03*
X-1170500Y1098000D03*
X-1171000Y1091500D03*
X-1165500Y1085770D03*
X-1178177Y1086823D03*
X-1173500Y1098250D03*
X-1175500Y1124500D03*
X-1172500Y1125500D03*
X-1181500Y1140500D03*
X-1184500D03*
X-1148500Y1040500D03*
X-1158500D03*
X-1164000Y1073500D03*
X-1161941Y1071441D03*
X-1151000Y1066500D03*
X-1145000Y1078500D03*
X-1143500Y1076281D03*
X-1153500Y1066500D03*
X-1151500Y1074500D03*
X-1149500Y1072500D03*
X-1152823Y1081677D03*
X-1150000Y1089382D03*
Y1104000D03*
X-1164000Y1090000D03*
X-1152500Y1102500D03*
X-1152000Y1091941D03*
X-1143500Y1090500D03*
Y1100500D03*
X-1162500Y1093500D03*
X-1150500Y1098500D03*
X-1153000Y1096500D03*
X-1120000Y1021500D03*
X-1133500Y1058000D03*
X-1122500Y1054500D03*
X-1134500Y1044000D03*
X-1120000Y1040000D03*
X-1127750Y1063500D03*
X-1130500Y1081500D03*
X-1121425Y1072425D03*
X-1139500Y1081500D03*
X-1141000Y1074000D03*
X-1121500Y1066500D03*
X-1127500Y1081500D03*
X-1121425Y1096575D03*
X-1141500Y1088500D03*
Y1102000D03*
X-1139500Y1097981D03*
X-1138984Y1095516D03*
X-1139500Y1086823D03*
X-1121400Y1084500D03*
X-1121500Y1090300D03*
X-1139000Y1091941D03*
Y1089382D03*
X-1128000Y1087500D03*
X-1127500Y1093500D03*
X-1134500Y1108500D03*
X-1112000Y1032000D03*
X-1112500Y1016500D03*
X-1112000Y1057000D03*
Y1043500D03*
Y1080000D03*
X-1113500Y1104500D03*
X-1112000Y1088000D03*
X-1113500Y1119000D03*
X-1115000Y1145000D03*
X-1114500Y1132500D03*
G54D11*
X-1218500Y1030500D03*
X-1208500D03*
X-1218500Y1020500D03*
X-1208500D03*
X-1208000Y1145500D03*
Y1135500D03*
X-1198500Y1030500D03*
X-1188500D03*
X-1198500Y1020500D03*
X-1188500D03*
X-1198000Y1145500D03*
X-1188000D03*
X-1198000Y1135500D03*
X-1188000D03*
X-1168500Y1030500D03*
X-1178500D03*
X-1168500Y1020500D03*
X-1178500D03*
X-1178000Y1145500D03*
X-1168000D03*
X-1178000Y1135500D03*
X-1168000D03*
X-1148500Y1030500D03*
X-1158500D03*
X-1148500Y1020500D03*
X-1158500D03*
X-1148000Y1145500D03*
X-1158000D03*
X-1148000Y1135500D03*
X-1158000D03*
X-1138500Y1030500D03*
Y1020500D03*
X-1128000Y1145500D03*
X-1138000D03*
X-1128000Y1135500D03*
X-1138000D03*
G54D12*
X-1224000Y1058500D03*
X-1218000D03*
X-1224000Y1076500D03*
X-1218000D03*
X-1224050Y1100450D03*
X-1218050D03*
X-1224050Y1106450D03*
X-1218050D03*
X-1124150Y1099500D03*
X-1118150D03*
G54D13*
X-1218000Y1082500D03*
X-1224000D03*
X-1218000Y1070500D03*
X-1224000D03*
X-1218000Y1064500D03*
X-1224000D03*
X-1218000Y1094500D03*
X-1224000D03*
X-1218000Y1088500D03*
X-1224000D03*
X-1218050Y1112500D03*
X-1224050D03*
X-1124350Y1081500D03*
Y1075500D03*
Y1087500D03*
Y1093500D03*
X-1118350Y1081500D03*
Y1075500D03*
Y1087500D03*
Y1093500D03*
G54D14*
X-1218000Y1145500D03*
Y1135500D03*
X-1128500Y1030500D03*
Y1020500D03*
G54D15*
X-1203000Y1054500D03*
X-1193000D03*
X-1203000Y1114500D03*
X-1193000D03*
X-1183000Y1054500D03*
X-1173000D03*
X-1163000D03*
X-1183000Y1114500D03*
X-1173000D03*
X-1163000D03*
X-1153000Y1054500D03*
X-1143000D03*
X-1153000Y1114500D03*
X-1143000D03*
G54D16*
X-1205917Y1070425D03*
Y1072984D03*
Y1075543D03*
Y1078102D03*
Y1080661D03*
Y1083220D03*
Y1085780D03*
Y1088339D03*
Y1090898D03*
Y1093457D03*
Y1096016D03*
Y1098575D03*
X-1183083Y1080661D03*
Y1078102D03*
Y1075543D03*
Y1072984D03*
Y1070425D03*
Y1098575D03*
Y1096016D03*
Y1093457D03*
Y1090898D03*
Y1088339D03*
Y1085780D03*
Y1083220D03*
G54D17*
X-1158016Y1077602D03*
Y1080161D03*
Y1082720D03*
Y1075043D03*
Y1072484D03*
Y1095516D03*
Y1092957D03*
Y1087839D03*
Y1090398D03*
Y1085280D03*
X-1134984Y1082720D03*
Y1080161D03*
Y1077602D03*
Y1075043D03*
Y1072484D03*
Y1095516D03*
Y1092957D03*
Y1090398D03*
Y1087839D03*
Y1085280D03*
G54D18*
G01X-1224000Y1076500D02*
Y1082500D01*
G01Y1070500D02*
Y1073500D01*
G01Y1064500D02*
Y1067500D01*
G01Y1088500D02*
Y1082500D01*
G01Y1073500D02*
Y1076500D01*
G01Y1067500D02*
Y1070500D01*
G01X-1218000Y1064500D02*
Y1067500D01*
G01D02*
Y1070500D01*
G01X-1224000Y1088500D02*
Y1094500D01*
G01D02*
Y1100400D01*
X-1224050Y1100450D01*
G01D02*
Y1106450D01*
G01D02*
X-1221000Y1109500D01*
G01X-1201464Y1070425D02*
X-1205917D01*
G01X-1183083Y1098575D02*
X-1176590D01*
G01X-1152823Y1081677D02*
Y1083927D01*
X-1154176Y1085280D01*
G01D02*
X-1158016D01*
G01X-1134984Y1082720D02*
X-1131720D01*
X-1130500Y1081500D01*
G01X-1118350Y1075500D02*
X-1121425Y1072425D01*
G01D02*
X-1127750Y1066100D01*
Y1063500D01*
G01X-1118350Y1093500D02*
X-1121425Y1096575D01*
G01D02*
X-1124150Y1099300D01*
Y1099500D01*
G01X-1118350Y1075500D02*
Y1081500D01*
G01D02*
Y1087500D01*
G01D02*
Y1093500D01*
G54D19*
G01X-1231000Y1154000D02*
X-1114000D01*
G02X-1109000Y1149000I0J-5000D01*
G01Y1017500D01*
G02X-1114000Y1012500I-5000J0D01*
G01X-1234000D01*
G02X-1239000Y1017500I0J5000D01*
G01Y1149000D01*
G02X-1234000Y1154000I5000J0D01*
G01X-1231000D01*
G01X-1203000Y1054500D02*
X-1214000D01*
X-1218000Y1058500D01*
G01X-1212000Y1066323D02*
Y1064000D01*
X-1214500Y1061500D01*
X-1221000D01*
X-1224000Y1058500D01*
G01X-1212000Y1066323D02*
X-1214000Y1068323D01*
Y1088382D01*
X-1213000Y1089382D01*
G01X-1212000Y1071441D02*
X-1213000Y1072441D01*
Y1086907D01*
X-1211000Y1088907D01*
Y1091500D01*
G01X-1205917Y1093457D02*
X-1211544D01*
X-1215000Y1090001D01*
Y1079500D01*
X-1218000Y1076500D01*
G01Y1082500D02*
X-1221000Y1079500D01*
G01X-1209572Y1070425D02*
X-1205917D01*
G01X-1218000Y1070500D02*
Y1072952D01*
G01X-1220452Y1070500D02*
X-1218000D01*
G01D02*
X-1215548D01*
G01X-1220452Y1064500D02*
X-1218000D01*
G01D02*
X-1215548D01*
G01X-1218050Y1100450D02*
X-1221000Y1103400D01*
Y1103500D01*
G01X-1205917Y1098575D02*
X-1213925D01*
X-1218000Y1094500D01*
G01X-1221000Y1091500D02*
X-1218000Y1094500D01*
G01X-1205917Y1096016D02*
X-1210484D01*
X-1218000Y1088500D01*
G01X-1221000Y1085500D02*
X-1218000Y1088500D01*
G01X-1218050Y1112500D02*
X-1214500D01*
G01X-1224050D02*
X-1228000D01*
G01X-1200709Y1092128D02*
Y1092291D01*
X-1199500Y1093500D01*
Y1101500D01*
X-1202000Y1104000D01*
X-1206000D01*
X-1208000Y1106000D01*
Y1115415D01*
X-1223000Y1130415D01*
Y1149500D01*
X-1222000Y1150500D01*
X-1163000D01*
X-1158000Y1145500D01*
G01X-1201500Y1094500D02*
X-1200500Y1095500D01*
Y1101000D01*
X-1202500Y1103000D01*
X-1206500D01*
X-1209000Y1105500D01*
Y1115000D01*
X-1224000Y1130000D01*
Y1150000D01*
X-1222500Y1151500D01*
X-1154000D01*
X-1148000Y1145500D01*
G01X-1218050Y1106450D02*
X-1214500D01*
G01X-1218000Y1135500D02*
X-1213000Y1140500D01*
X-1204500D01*
X-1203000Y1139000D01*
Y1132000D01*
X-1197500Y1126500D01*
Y1090500D01*
X-1199661Y1088339D01*
X-1205917D01*
G01X-1118150Y1099500D02*
X-1114500Y1095850D01*
Y1018500D01*
X-1117500Y1015500D01*
X-1201500D01*
X-1203500Y1017500D01*
Y1025500D01*
X-1208500Y1030500D01*
G01X-1183083Y1085780D02*
X-1187720D01*
X-1189500Y1084000D01*
Y1069287D01*
X-1197500Y1061287D01*
Y1036000D01*
X-1198500Y1035000D01*
Y1030500D01*
G01X-1188500D02*
X-1193500Y1025500D01*
X-1201500D01*
X-1203500Y1027500D01*
Y1032500D01*
X-1198500Y1037500D01*
Y1062000D01*
X-1190500Y1070000D01*
Y1086001D01*
X-1188162Y1088339D01*
X-1183083D01*
G01X-1168500Y1030500D02*
X-1173500Y1025500D01*
X-1182000D01*
X-1183500Y1027000D01*
Y1034000D01*
X-1188500Y1039000D01*
Y1082000D01*
X-1187280Y1083220D01*
X-1183083D01*
G01X-1178500Y1030500D02*
X-1187500Y1039500D01*
Y1079947D01*
X-1186786Y1080661D01*
X-1183083D01*
G01X-1148000Y1135500D02*
X-1152500Y1140000D01*
X-1161500D01*
X-1163000Y1138500D01*
Y1132000D01*
X-1168500Y1126500D01*
Y1106915D01*
X-1173915Y1101500D01*
X-1187340D01*
X-1192500Y1096340D01*
Y1083916D01*
X-1200873Y1075543D01*
X-1205917D01*
G01Y1078102D02*
X-1199898D01*
X-1193500Y1084500D01*
Y1096755D01*
X-1187755Y1102500D01*
X-1181500D01*
X-1177500Y1106500D01*
Y1130500D01*
X-1178000Y1131000D01*
Y1135500D01*
G01X-1181500Y1140500D02*
X-1182500Y1139500D01*
Y1133000D01*
X-1178500Y1129000D01*
Y1107000D01*
X-1182000Y1103500D01*
X-1188170D01*
X-1194500Y1097170D01*
Y1085500D01*
X-1199339Y1080661D01*
X-1205917D01*
G01Y1072984D02*
X-1202017D01*
X-1191500Y1083501D01*
Y1095925D01*
X-1186925Y1100500D01*
X-1174330D01*
X-1174329Y1100499D01*
X-1173501D01*
X-1167499Y1106501D01*
Y1107329D01*
X-1167500Y1107330D01*
Y1126000D01*
X-1158000Y1135500D01*
G01X-1205917Y1068837D02*
Y1070425D01*
G01X-1208000Y1135500D02*
X-1198500Y1126000D01*
Y1091500D01*
X-1200000Y1090000D01*
X-1201475D01*
X-1202373Y1090898D01*
X-1205917D01*
G01Y1085780D02*
X-1198720D01*
X-1196500Y1088000D01*
Y1098000D01*
X-1188500Y1106000D01*
Y1130500D01*
X-1188000Y1131000D01*
Y1135500D01*
G01X-1184500Y1140500D02*
X-1183500Y1139500D01*
Y1133000D01*
X-1187499Y1129001D01*
Y1105586D01*
X-1195500Y1097585D01*
Y1086500D01*
X-1198780Y1083220D01*
X-1205917D01*
G01X-1201500Y1094500D02*
Y1094750D01*
G01X-1189500Y1094000D02*
X-1188957Y1093457D01*
X-1183083D01*
G01X-1192500Y1126500D02*
Y1141000D01*
X-1188000Y1145500D01*
G01X-1198000D02*
X-1193500Y1141000D01*
Y1129000D01*
X-1195000Y1127500D01*
G01X-1176500Y1064000D02*
X-1177500Y1063000D01*
Y1040000D01*
X-1174000Y1036500D01*
X-1156000D01*
X-1153000Y1033500D01*
Y1025000D01*
X-1148500Y1020500D01*
G01X-1179500Y1064000D02*
X-1178500Y1063000D01*
Y1039500D01*
X-1174500Y1035500D01*
X-1156500D01*
X-1154000Y1033000D01*
Y1025000D01*
X-1158500Y1020500D01*
G01X-1138500Y1030500D02*
X-1145500Y1037500D01*
X-1162415D01*
X-1168500Y1043585D01*
Y1066000D01*
X-1172925Y1070425D01*
X-1183083D01*
G01Y1072984D02*
X-1178983D01*
X-1177499Y1071500D01*
X-1172499D01*
X-1167500Y1066501D01*
Y1044000D01*
X-1162000Y1038500D01*
X-1136500D01*
X-1128500Y1030500D01*
G01X-1174000Y1039000D02*
X-1169000D01*
G01X-1148500Y1040500D02*
X-1154000D01*
X-1157500Y1044000D01*
Y1063000D01*
X-1172602Y1078102D01*
X-1183083D01*
G01Y1075543D02*
X-1179456D01*
X-1177999Y1077000D01*
X-1173000D01*
X-1158500Y1062500D01*
Y1040500D01*
G01X-1167500Y1077250D02*
Y1081000D01*
X-1165780Y1082720D01*
X-1158016D01*
G01X-1165000Y1080500D02*
X-1164661Y1080161D01*
X-1158016D01*
G01X-1183083Y1096016D02*
X-1178630D01*
G01X-1183083Y1090898D02*
X-1179398D01*
X-1178000Y1089500D01*
G01X-1138984Y1095516D02*
X-1140991D01*
X-1145725Y1100250D01*
X-1168250D01*
X-1170500Y1098000D01*
G01X-1158016Y1095516D02*
X-1166984D01*
X-1171000Y1091500D01*
G01X-1165500Y1085770D02*
X-1163431Y1087839D01*
X-1158016D01*
G01X-1175500Y1124500D02*
Y1126250D01*
X-1173500Y1128250D01*
Y1141000D01*
X-1178000Y1145500D01*
G01X-1172500Y1125500D02*
Y1141000D01*
X-1168000Y1145500D01*
G01X-1153000Y1044876D02*
Y1054500D01*
G01D02*
Y1064124D01*
G01Y1054500D02*
X-1149148D01*
G01X-1151000Y1066500D02*
X-1147500Y1070000D01*
Y1078750D01*
X-1144750Y1081500D01*
X-1139500D01*
G01X-1145000Y1078500D02*
X-1140025D01*
X-1138364Y1080161D01*
X-1134984D01*
G01X-1143500Y1076281D02*
X-1139782D01*
X-1138544Y1075043D01*
X-1134984D01*
G01X-1153500Y1066500D02*
X-1151500Y1064500D01*
X-1150000D01*
X-1146500Y1068000D01*
Y1072000D01*
X-1144500Y1074000D01*
X-1141000D01*
G01X-1158016Y1075043D02*
X-1153793D01*
X-1153250Y1074500D01*
X-1151500D01*
G01X-1149500Y1072500D02*
X-1151250D01*
X-1151266Y1072484D01*
X-1158016D01*
G01X-1150000Y1089382D02*
X-1149118Y1088500D01*
X-1141500D01*
G01X-1150000Y1104000D02*
X-1143500D01*
X-1141500Y1102000D01*
G01X-1152000Y1091941D02*
X-1144941D01*
X-1143500Y1090500D01*
G01X-1139500Y1097981D02*
X-1140981D01*
X-1143500Y1100500D01*
G01X-1152500Y1102500D02*
X-1152000Y1102000D01*
X-1145000D01*
X-1143500Y1100500D01*
G01X-1158016Y1092957D02*
X-1161957D01*
X-1162500Y1093500D01*
G01X-1150500Y1098500D02*
X-1145559D01*
X-1139000Y1091941D01*
G01X-1153000Y1096500D02*
X-1146118D01*
X-1139000Y1089382D01*
G01X-1143000Y1114500D02*
X-1120500D01*
X-1118150Y1112150D01*
Y1099500D01*
G01X-1134984Y1072484D02*
X-1127366D01*
X-1124350Y1075500D01*
G01X-1134984Y1085280D02*
X-1131280D01*
X-1127500Y1081500D01*
G01X-1124350D02*
X-1127500D01*
G01X-1134984Y1095516D02*
X-1138984D01*
G01X-1124350Y1087500D02*
X-1128000D01*
G01X-1134984Y1087839D02*
X-1130089D01*
X-1129750Y1087500D01*
X-1128000D01*
G01X-1134984Y1092957D02*
X-1127393D01*
X-1126850Y1093500D01*
G01D02*
X-1127500D01*
G01X-1124350D02*
X-1126850D01*
G01X-1128000Y1131048D02*
Y1135500D01*
G01D02*
Y1139952D01*
G01X-1132452Y1135500D02*
X-1128000D01*
G01D02*
X-1123548D01*
G01X-1128000Y1141048D02*
Y1145500D01*
G01D02*
Y1149952D01*
G01X-1132452Y1145500D02*
X-1128000D01*
G01D02*
X-1123548D01*
M02*
