G04 ================== begin FILE IDENTIFICATION RECORD ==================*
G04 Layout Name:  G:/2022/TEST/QIANG/Light/Test/sch_pcb/dwin.brd*
G04 Film Name:    L2_GND*
G04 File Format:  Gerber RS274X*
G04 File Origin:  Cadence Allegro 17.2-061*
G04 Origin Date:  Tue May 31 09:43:27 2022*
G04 *
G04 Layer:  VIA CLASS/GND*
G04 Layer:  PIN/GND*
G04 Layer:  ETCH/GND*
G04 Layer:  BOARD GEOMETRY/OUTLINE*
G04 Layer:  BOARD GEOMETRY/DIMENSION*
G04 *
G04 Offset:    (0.00 0.00)*
G04 Mirror:    No*
G04 Mode:      Positive*
G04 Rotation:  0*
G04 FullContactRelief:  No*
G04 UndefLineWidth:     0.00*
G04 ================== end FILE IDENTIFICATION RECORD ====================*
%FSLAX25Y25*MOIN*%
%IR0*IPPOS*OFA0.00000B0.00000*MIA0B0*SFA1.00000B1.00000*%
%ADD10C,.02*%
%ADD11C,.075*%
%ADD12R,.075X.075*%
%ADD13O,.06299X.17843*%
%ADD14C,.005*%
%ADD15C,.03004*%
%ADD17C,.08504*%
%ADD16O,.07302X.18846*%
G75*
%LPD*%
G75*
G36*
G01X-1113000Y1013500D02*
X-1236000D01*
X-1238000Y1015500D01*
Y1150000D01*
X-1235000Y1153000D01*
X-1113000D01*
X-1110000Y1150000D01*
Y1016500D01*
X-1113000Y1013500D01*
G37*
%LPC*%
G75*
G36*
G01X-1151994Y1098344D02*
G02X-1152002Y1098500I1494J155D01*
G02X-1150500Y1096998I1502J0D01*
G02X-1150980Y1097077I1J1502D01*
G03X-1151506Y1096656I-128J-379D01*
G02X-1151498Y1096500I-1494J-155D01*
G02X-1153000Y1098002I-1502J0D01*
G02X-1152520Y1097923I-1J-1502D01*
G03X-1151994Y1098344I128J379D01*
G37*
G36*
G01X-1151826Y1090449D02*
G02X-1152000Y1090439I-173J1492D01*
G02X-1150498Y1091941I0J1502D01*
G02X-1150594Y1091412I-1502J-1D01*
G03X-1150174Y1090874I374J-141D01*
G02X-1150000Y1090884I173J-1492D01*
G02X-1151502Y1089382I0J-1502D01*
G02X-1151406Y1089911I1502J1D01*
G03X-1151826Y1090449I-374J141D01*
G37*
G36*
G01X-1177994Y1098042D02*
G02X-1178092Y1098575I1404J534D01*
G02X-1176590Y1097073I1502J0D01*
G02X-1176797Y1097087I-2J1502D01*
G03X-1177226Y1096549I-55J-396D01*
G02X-1177128Y1096016I-1404J-534D01*
G02X-1178630Y1097518I-1502J0D01*
G02X-1178423Y1097504I2J-1502D01*
G03X-1177994Y1098042I55J396D01*
G37*
G36*
G01X-1169239Y1097184D02*
G02X-1170500Y1096498I-1261J816D01*
G02Y1099502I0J1502D01*
G02X-1169392Y1099014I0J-1502D01*
G03X-1168761Y1099066I295J270D01*
G02X-1167500Y1099752I1261J-816D01*
G02Y1096748I0J-1502D01*
G02X-1168608Y1097236I0J1502D01*
G03X-1169239Y1097184I-295J-270D01*
G37*
G36*
G01X-1222252Y1131750D02*
Y1139250D01*
G02X-1221750Y1139752I502J0D01*
G01X-1214250D01*
G02X-1213748Y1139250I0J-502D01*
G01Y1131750D01*
G02X-1214250Y1131248I-502J0D01*
G01X-1221750D01*
G02X-1222252Y1131750I0J502D01*
G37*
G36*
G01X-1132752Y1026750D02*
Y1034250D01*
G02X-1132250Y1034752I502J0D01*
G01X-1124750D01*
G02X-1124248Y1034250I0J-502D01*
G01Y1026750D01*
G02X-1124750Y1026248I-502J0D01*
G01X-1132250D01*
G02X-1132752Y1026750I0J502D01*
G37*
G36*
G01X-1222252Y1141750D02*
Y1149250D01*
G02X-1221750Y1149752I502J0D01*
G01X-1214250D01*
G02X-1213748Y1149250I0J-502D01*
G01Y1141750D01*
G02X-1214250Y1141248I-502J0D01*
G01X-1221750D01*
G02X-1222252Y1141750I0J502D01*
G37*
G36*
G01X-1132752Y1016750D02*
Y1024250D01*
G02X-1132250Y1024752I502J0D01*
G01X-1124750D01*
G02X-1124248Y1024250I0J-502D01*
G01Y1016750D01*
G02X-1124750Y1016248I-502J0D01*
G01X-1132250D01*
G02X-1132752Y1016750I0J502D01*
G37*
G36*
G01X-1151987Y1065368D02*
G03X-1152513I-263J-302D01*
G02X-1153500Y1064998I-987J1131D01*
G02Y1068002I0J1502D01*
G02X-1152513Y1067632I0J-1501D01*
G03X-1151987I263J302D01*
G02X-1151000Y1068002I987J-1131D01*
G02Y1064998I0J-1502D01*
G02X-1151987Y1065368I0J1501D01*
G37*
G36*
G01X-1163437Y1071571D02*
G03X-1163870Y1072004I-399J34D01*
G02X-1164000Y1071998I-134J1496D01*
G02X-1162498Y1073500I0J1502D01*
G02X-1162504Y1073370I-1502J4D01*
G03X-1162071Y1072937I399J-34D01*
G02X-1161941Y1072943I134J-1496D01*
G02X-1163443Y1071441I0J-1502D01*
G02X-1163437Y1071571I1502J-4D01*
G37*
G36*
G01X-1151000Y1072580D02*
G03X-1151420Y1073000I-399J21D01*
G02X-1151500Y1072998I-78J1500D01*
G02X-1149998Y1074500I0J1502D01*
G02X-1150000Y1074420I-1502J-2D01*
G03X-1149580Y1074000I399J-21D01*
G02X-1149500Y1074002I78J-1500D01*
G02X-1151002Y1072500I0J-1502D01*
G02X-1151000Y1072580I1502J2D01*
G37*
G36*
G01X-1128685Y1080577D02*
G03X-1129315I-315J-246D01*
G02X-1130500Y1079998I-1185J923D01*
G02Y1083002I0J1502D01*
G02X-1129315Y1082423I0J-1502D01*
G03X-1128685I315J246D01*
G02X-1127500Y1083002I1185J-923D01*
G02Y1079998I0J-1502D01*
G02X-1128685Y1080577I0J1502D01*
G37*
G36*
G01X-1212913Y1090881D02*
G03X-1212492Y1091327I24J399D01*
G02X-1212502Y1091500I1491J173D01*
G02X-1211000Y1089998I1502J0D01*
G02X-1211087Y1090001I8J1502D01*
G03X-1211508Y1089555I-24J-399D01*
G02X-1211498Y1089382I-1491J-173D01*
G02X-1213000Y1090884I-1502J0D01*
G02X-1212913Y1090881I-8J-1502D01*
G37*
G36*
G01X-1140111Y1090392D02*
G03Y1090931I-296J269D01*
G02X-1140502Y1091941I1111J1011D01*
G02X-1137498I1502J0D01*
G02X-1137889Y1090931I-1502J1D01*
G03Y1090392I296J-269D01*
G02X-1137498Y1089382I-1111J-1011D01*
G02X-1139000Y1087880I-1502J0D01*
G02X-1139629Y1088018I0J1502D01*
G03X-1140154Y1087832I-167J-363D01*
G02X-1141500Y1086998I-1346J669D01*
G02X-1143002Y1088500I0J1502D01*
G02X-1143000Y1088580I1502J2D01*
G03X-1143420Y1089000I-399J21D01*
G02X-1143500Y1088998I-78J1500D01*
G02X-1141998Y1090500I0J1502D01*
G02X-1142000Y1090420I-1502J-2D01*
G03X-1141580Y1090000I399J-21D01*
G02X-1141500Y1090002I78J-1500D01*
G02X-1140871Y1089864I0J-1502D01*
G03X-1140346Y1090050I167J363D01*
G02X-1140111Y1090392I1344J-671D01*
G37*
G36*
G01X-1202095Y1092707D02*
G03X-1202261Y1093205I-369J154D01*
G02X-1203002Y1094500I761J1295D01*
G02X-1199998I1502J0D01*
G02X-1200114Y1093921I-1503J0D01*
G03X-1199948Y1093423I369J-154D01*
G02X-1199207Y1092128I-761J-1295D01*
G02X-1202211I-1502J0D01*
G02X-1202095Y1092707I1503J0D01*
G37*
G36*
G01X-1140290Y1096259D02*
G03X-1140398Y1096777I-347J198D01*
G02X-1141002Y1097981I898J1204D01*
G02X-1137998I1502J0D01*
G02X-1138194Y1097238I-1502J-1D01*
G03X-1138086Y1096720I347J-198D01*
G02X-1137482Y1095516I-898J-1204D01*
G02X-1140486I-1502J0D01*
G02X-1140290Y1096259I1502J1D01*
G37*
G36*
G01X-1143390Y1101998D02*
G03X-1142969Y1102313I30J399D01*
G02X-1141500Y1103502I1469J-313D01*
G02Y1100498I0J-1502D01*
G02X-1141610Y1100502I0J1502D01*
G03X-1142031Y1100187I-30J-399D01*
G02X-1143500Y1098998I-1469J313D01*
G02Y1102002I0J1502D01*
G02X-1143390Y1101998I0J-1502D01*
G37*
G36*
G01X-1152009Y1103920D02*
G03X-1151484Y1104235I130J378D01*
G02X-1150000Y1105502I1484J-236D01*
G02Y1102498I0J-1502D01*
G02X-1150491Y1102580I-1J1502D01*
G03X-1151016Y1102265I-130J-378D01*
G02X-1152500Y1100998I-1484J236D01*
G02Y1104002I0J1502D01*
G02X-1152009Y1103920I1J-1502D01*
G37*
G36*
G01X-1193881Y1125910D02*
G03X-1194407Y1126120I-368J-157D01*
G02X-1195000Y1125998I-593J1380D01*
G02Y1129002I0J1502D01*
G02X-1193619Y1128090I0J-1502D01*
G03X-1193093Y1127880I368J157D01*
G02X-1192500Y1128002I593J-1380D01*
G02Y1124998I0J-1502D01*
G02X-1193881Y1125910I0J1502D01*
G37*
G36*
G01X-1175001Y1065541D02*
G02X-1173500Y1067002I1501J-41D01*
G02X-1171998Y1065500I0J-1502D01*
G02X-1172389Y1064489I-1503J0D01*
G03X-1172183Y1063830I296J-269D01*
G02X-1169349Y1060272I-816J-3558D01*
G01Y1048728D01*
G02X-1176651I-3651J0D01*
G01Y1060272D01*
G02X-1176257Y1061921I3651J-1D01*
G03X-1176590Y1062501I-357J181D01*
G02X-1177685Y1063077I90J1499D01*
G03X-1178315I-315J-246D01*
G02X-1179410Y1062501I-1185J923D01*
G03X-1179743Y1061921I24J-399D01*
G02X-1179349Y1060272I-3257J-1650D01*
G01Y1048728D01*
G02X-1186651I-3651J0D01*
G01Y1060272D01*
G02X-1183000Y1063923I3651J0D01*
G02X-1181560Y1063627I0J-3651D01*
G03X-1181002Y1063996I158J367D01*
G02X-1179500Y1065502I1502J4D01*
G02X-1178315Y1064923I0J-1502D01*
G03X-1177685I315J246D01*
G02X-1176500Y1065502I1185J-923D01*
G02X-1175632Y1065226I0J-1503D01*
G03X-1175001Y1065541I231J327D01*
G37*
G36*
G01X-1176064Y1123108D02*
G02X-1177002Y1124500I564J1392D01*
G02X-1175500Y1126002I1502J0D01*
G02X-1174579Y1125687I1J-1502D01*
G03X-1173949Y1125897I245J316D01*
G02X-1172500Y1127002I1449J-398D01*
G02X-1170998Y1125500I0J-1502D01*
G02X-1171601Y1124297I-1502J0D01*
G03X-1171523Y1123611I240J-320D01*
G02X-1169349Y1120272I-1477J-3339D01*
G01Y1108728D01*
G02X-1176651I-3651J0D01*
G01Y1120272D01*
G02X-1175897Y1122494I3651J0D01*
G03X-1176064Y1123108I-317J243D01*
G37*
G36*
G01X-1181172Y1142668D02*
G02X-1182252Y1145500I3173J2832D01*
G02X-1178000Y1141248I4252J0D01*
G02X-1179575Y1141551I1J4252D01*
G03X-1180097Y1141036I-148J-372D01*
G02X-1179998Y1140500I-1403J-536D01*
G02X-1180097Y1139964I-1502J0D01*
G03X-1179575Y1139449I374J-143D01*
G02X-1178000Y1139752I1576J-3949D01*
G02X-1182252Y1135500I0J-4252D01*
G02X-1181172Y1138332I4253J0D01*
G03X-1181476Y1138998I-298J266D01*
G01X-1181500D01*
G02X-1182685Y1139577I0J1502D01*
G03X-1183315I-315J-246D01*
G02X-1184500Y1138998I-1185J923D01*
G01X-1184524D01*
G03X-1184828Y1138332I-6J-400D01*
G02X-1183748Y1135500I-3173J-2832D01*
G02X-1188000Y1139752I-4252J0D01*
G02X-1186425Y1139449I-1J-4252D01*
G03X-1185903Y1139964I148J372D01*
G02X-1186002Y1140500I1403J536D01*
G02X-1185903Y1141036I1502J0D01*
G03X-1186425Y1141551I-374J143D01*
G02X-1188000Y1141248I-1576J3949D01*
G02X-1183748Y1145500I0J4252D01*
G02X-1184828Y1142668I-4253J0D01*
G03X-1184524Y1142002I298J-266D01*
G01X-1184500D01*
G02X-1183315Y1141423I0J-1502D01*
G03X-1182685I315J246D01*
G02X-1181500Y1142002I1185J-923D01*
G01X-1181476D01*
G03X-1181172Y1142668I6J400D01*
G37*
G36*
G01X-1145291Y1077027D02*
G02X-1146502Y1078500I290J1473D01*
G02X-1143498I1502J0D01*
G02X-1143524Y1078221I-1502J-1D01*
G03X-1143209Y1077754I393J-75D01*
G02X-1141998Y1076281I-290J-1473D01*
G02X-1142051Y1075887I-1502J1D01*
G03X-1141525Y1075407I386J-105D01*
G02X-1141000Y1075502I526J-1407D01*
G02X-1142502Y1074000I0J-1502D01*
G02X-1142449Y1074394I1502J-1D01*
G03X-1142975Y1074874I-386J105D01*
G02X-1143500Y1074779I-526J1407D01*
G02X-1145002Y1076281I0J1502D01*
G02X-1144976Y1076560I1502J1D01*
G03X-1145291Y1077027I-393J75D01*
G37*
G54D15*
X-1224000Y1073500D03*
X-1121425Y1072425D03*
X-1221000Y1085500D03*
X-1212000Y1066323D03*
X-1128000Y1087500D03*
X-1221000Y1091500D03*
X-1127500Y1093500D03*
X-1228000Y1112500D03*
X-1174000Y1039000D03*
X-1192500Y1074000D03*
X-1221000Y1109500D03*
Y1103500D03*
X-1171000Y1091500D03*
X-1139500Y1081500D03*
X-1210323Y1102177D03*
X-1192500Y1079118D03*
X-1178000Y1089500D03*
X-1165000Y1080500D03*
X-1164000Y1090000D03*
X-1165500Y1085770D03*
X-1221000Y1079500D03*
X-1228000Y1100500D03*
X-1148500Y1040500D03*
X-1189500Y1094000D03*
X-1167500Y1077250D03*
X-1158500Y1040500D03*
X-1195000Y1076500D03*
X-1214500Y1106450D03*
X-1212000Y1071441D03*
X-1228000Y1106500D03*
X-1127750Y1063500D03*
X-1178000Y1081677D03*
Y1074500D03*
X-1169000Y1039000D03*
X-1214500Y1112500D03*
X-1162500Y1093500D03*
X-1121425Y1096575D03*
X-1224000Y1067500D03*
G54D17*
X-1208500Y1020500D03*
X-1198500D03*
X-1188500D03*
X-1178500D03*
X-1168500D03*
X-1158500D03*
X-1148500D03*
X-1138500D03*
X-1218500D03*
X-1138000Y1145500D03*
X-1148000D03*
X-1158000D03*
X-1168000D03*
X-1198000D03*
X-1208000D03*
X-1128000D03*
X-1208500Y1030500D03*
X-1198500D03*
X-1188500D03*
X-1178500D03*
X-1168500D03*
X-1158500D03*
X-1148500D03*
X-1138500D03*
X-1218500D03*
X-1138000Y1135500D03*
X-1148000D03*
X-1158000D03*
X-1168000D03*
X-1198000D03*
X-1208000D03*
X-1128000D03*
G54D16*
X-1143000Y1114500D03*
X-1153000D03*
X-1163000D03*
X-1183000D03*
X-1193000D03*
X-1203000D03*
X-1143000Y1054500D03*
X-1153000D03*
X-1163000D03*
X-1193000D03*
X-1203000D03*
%LPD*%
G75*
G54D10*
X-1231000Y1040000D03*
X-1231500Y1066500D03*
X-1231000Y1081000D03*
X-1233500Y1094500D03*
X-1235000Y1108500D03*
X-1230500Y1025500D03*
X-1228000Y1016500D03*
X-1219500Y1051500D03*
X-1230500Y1053500D03*
X-1220500Y1041500D03*
X-1224000Y1073500D03*
Y1067500D03*
X-1212000Y1066323D03*
Y1071441D03*
X-1221000Y1079500D03*
X-1218000Y1067500D03*
X-1210500Y1081677D03*
X-1210323Y1102177D03*
X-1213000Y1089382D03*
X-1211000Y1091500D03*
X-1221000Y1103500D03*
Y1091500D03*
Y1085500D03*
X-1228000Y1100500D03*
Y1088500D03*
X-1214500Y1112500D03*
X-1221000Y1109500D03*
X-1228000Y1112500D03*
X-1214500Y1106450D03*
X-1228000Y1106500D03*
X-1224000Y1116500D03*
X-1217500Y1118000D03*
X-1216000Y1126500D03*
X-1230500D03*
X-1228500Y1140000D03*
X-1192500Y1079118D03*
X-1195000Y1076500D03*
X-1192500Y1074000D03*
X-1201464Y1070425D03*
X-1200709Y1092128D03*
X-1201500Y1094500D03*
X-1189500Y1094000D03*
X-1192500Y1126500D03*
X-1195000Y1127500D03*
X-1169000Y1039000D03*
X-1174000D03*
X-1173500Y1065500D03*
X-1176500Y1064000D03*
X-1178000Y1074500D03*
Y1081677D03*
X-1179500Y1064000D03*
X-1167500Y1077250D03*
X-1165000Y1080500D03*
X-1164500Y1065500D03*
X-1167500Y1098250D03*
X-1176590Y1098575D03*
X-1178630Y1096016D03*
X-1178000Y1089500D03*
X-1170500Y1098000D03*
X-1171000Y1091500D03*
X-1165500Y1085770D03*
X-1178177Y1086823D03*
X-1173500Y1098250D03*
X-1175500Y1124500D03*
X-1172500Y1125500D03*
X-1181500Y1140500D03*
X-1184500D03*
X-1148500Y1040500D03*
X-1158500D03*
X-1164000Y1073500D03*
X-1161941Y1071441D03*
X-1151000Y1066500D03*
X-1145000Y1078500D03*
X-1143500Y1076281D03*
X-1153500Y1066500D03*
X-1151500Y1074500D03*
X-1149500Y1072500D03*
X-1152823Y1081677D03*
X-1150000Y1089382D03*
Y1104000D03*
X-1164000Y1090000D03*
X-1152500Y1102500D03*
X-1152000Y1091941D03*
X-1143500Y1090500D03*
Y1100500D03*
X-1162500Y1093500D03*
X-1150500Y1098500D03*
X-1153000Y1096500D03*
X-1120000Y1021500D03*
X-1133500Y1058000D03*
X-1122500Y1054500D03*
X-1134500Y1044000D03*
X-1120000Y1040000D03*
X-1127750Y1063500D03*
X-1130500Y1081500D03*
X-1121425Y1072425D03*
X-1139500Y1081500D03*
X-1141000Y1074000D03*
X-1121500Y1066500D03*
X-1127500Y1081500D03*
X-1121425Y1096575D03*
X-1141500Y1088500D03*
Y1102000D03*
X-1139500Y1097981D03*
X-1138984Y1095516D03*
X-1139500Y1086823D03*
X-1121400Y1084500D03*
X-1121500Y1090300D03*
X-1139000Y1091941D03*
Y1089382D03*
X-1128000Y1087500D03*
X-1127500Y1093500D03*
X-1134500Y1108500D03*
X-1112000Y1032000D03*
X-1112500Y1016500D03*
X-1112000Y1057000D03*
Y1043500D03*
Y1080000D03*
X-1113500Y1104500D03*
X-1112000Y1088000D03*
X-1113500Y1119000D03*
X-1115000Y1145000D03*
X-1114500Y1132500D03*
G54D11*
X-1218500Y1030500D03*
X-1208500D03*
X-1218500Y1020500D03*
X-1208500D03*
X-1208000Y1145500D03*
Y1135500D03*
X-1198500Y1030500D03*
X-1188500D03*
X-1198500Y1020500D03*
X-1188500D03*
X-1198000Y1145500D03*
X-1188000D03*
X-1198000Y1135500D03*
X-1188000D03*
X-1168500Y1030500D03*
X-1178500D03*
X-1168500Y1020500D03*
X-1178500D03*
X-1178000Y1145500D03*
X-1168000D03*
X-1178000Y1135500D03*
X-1168000D03*
X-1148500Y1030500D03*
X-1158500D03*
X-1148500Y1020500D03*
X-1158500D03*
X-1148000Y1145500D03*
X-1158000D03*
X-1148000Y1135500D03*
X-1158000D03*
X-1138500Y1030500D03*
Y1020500D03*
X-1128000Y1145500D03*
X-1138000D03*
X-1128000Y1135500D03*
X-1138000D03*
G54D12*
X-1218000Y1145500D03*
Y1135500D03*
X-1128500Y1030500D03*
Y1020500D03*
G54D13*
X-1203000Y1054500D03*
X-1193000D03*
X-1203000Y1114500D03*
X-1193000D03*
X-1183000Y1054500D03*
X-1173000D03*
X-1163000D03*
X-1183000Y1114500D03*
X-1173000D03*
X-1163000D03*
X-1153000Y1054500D03*
X-1143000D03*
X-1153000Y1114500D03*
X-1143000D03*
G54D14*
G01X-1231000Y1154000D02*
X-1114000D01*
G02X-1109000Y1149000I0J-5000D01*
G01Y1017500D01*
G02X-1114000Y1012500I-5000J0D01*
G01X-1234000D01*
G02X-1239000Y1017500I0J5000D01*
G01Y1149000D01*
G02X-1234000Y1154000I5000J0D01*
G01X-1231000D01*
G01X-1153000Y1044876D02*
Y1054500D01*
G01D02*
Y1064124D01*
G01X-1156852Y1054500D02*
X-1153000D01*
G01D02*
X-1149148D01*
G01X-1128000Y1131048D02*
Y1135500D01*
G01D02*
Y1139952D01*
G01X-1132452Y1135500D02*
X-1128000D01*
G01D02*
X-1123548D01*
G01X-1128000Y1141048D02*
Y1145500D01*
G01D02*
Y1149952D01*
G01X-1132452Y1145500D02*
X-1128000D01*
G01D02*
X-1123548D01*
M02*
