G04 ================== begin FILE IDENTIFICATION RECORD ==================*
G04 Layout Name:  G:/2022/TEST/QIANG/Light/Test/sch_pcb/dwin.brd*
G04 Film Name:    paste_top*
G04 File Format:  Gerber RS274X*
G04 File Origin:  Cadence Allegro 17.2-061*
G04 Origin Date:  Tue May 31 09:43:27 2022*
G04 *
G04 Layer:  PIN/PASTEMASK_TOP*
G04 Layer:  PACKAGE GEOMETRY/PASTEMASK_TOP*
G04 Layer:  BOARD GEOMETRY/OUTLINE*
G04 *
G04 Offset:    (0.00 0.00)*
G04 Mirror:    No*
G04 Mode:      Positive*
G04 Rotation:  0*
G04 FullContactRelief:  No*
G04 UndefLineWidth:     6.00*
G04 ================== end FILE IDENTIFICATION RECORD ====================*
%FSLAX25Y25*MOIN*%
%IR0*IPPOS*OFA0.00000B0.00000*MIA0B0*SFA1.00000B1.00000*%
%AMMACRO10*
4,1,40,-.01356,-.0175,
.01356,-.0175,
.014244,-.01744,
.014908,-.017262,
.01553,-.016972,
.016093,-.016578,
.016578,-.016093,
.016972,-.01553,
.017262,-.014908,
.01744,-.014244,
.0175,-.01356,
.0175,.01356,
.01744,.014244,
.017262,.014908,
.016972,.01553,
.016578,.016093,
.016093,.016578,
.01553,.016972,
.014908,.017262,
.014244,.01744,
.01356,.0175,
-.01356,.0175,
-.014244,.01744,
-.014908,.017262,
-.01553,.016972,
-.016093,.016578,
-.016578,.016093,
-.016972,.01553,
-.017262,.014908,
-.01744,.014244,
-.0175,.01356,
-.0175,-.01356,
-.01744,-.014244,
-.017262,-.014908,
-.016972,-.01553,
-.016578,-.016093,
-.016093,-.016578,
-.01553,-.016972,
-.014908,-.017262,
-.014244,-.01744,
-.01356,-.0175,
0.0*
%
%ADD10MACRO10*%
%AMMACRO12*
4,1,40,.02953,-.00492,
.02953,.00492,
.02947,.005604,
.029292,.006268,
.029002,.00689,
.028608,.007453,
.028123,.007938,
.02756,.008332,
.026938,.008622,
.026274,.0088,
.02559,.00886,
-.02559,.00886,
-.026274,.0088,
-.026938,.008622,
-.02756,.008332,
-.028123,.007938,
-.028608,.007453,
-.029002,.00689,
-.029292,.006268,
-.02947,.005604,
-.02953,.00492,
-.02953,-.00492,
-.02947,-.005604,
-.029292,-.006268,
-.029002,-.00689,
-.028608,-.007453,
-.028123,-.007938,
-.02756,-.008332,
-.026938,-.008622,
-.026274,-.0088,
-.02559,-.00886,
.02559,-.00886,
.026274,-.0088,
.026938,-.008622,
.02756,-.008332,
.028123,-.007938,
.028608,-.007453,
.029002,-.00689,
.029292,-.006268,
.02947,-.005604,
.02953,-.00492,
0.0*
%
%ADD12MACRO12*%
%AMMACRO11*
4,1,40,.01356,.0175,
-.01356,.0175,
-.014244,.01744,
-.014908,.017262,
-.01553,.016972,
-.016093,.016578,
-.016578,.016093,
-.016972,.01553,
-.017262,.014908,
-.01744,.014244,
-.0175,.01356,
-.0175,-.01356,
-.01744,-.014244,
-.017262,-.014908,
-.016972,-.01553,
-.016578,-.016093,
-.016093,-.016578,
-.01553,-.016972,
-.014908,-.017262,
-.014244,-.01744,
-.01356,-.0175,
.01356,-.0175,
.014244,-.01744,
.014908,-.017262,
.01553,-.016972,
.016093,-.016578,
.016578,-.016093,
.016972,-.01553,
.017262,-.014908,
.01744,-.014244,
.0175,-.01356,
.0175,.01356,
.01744,.014244,
.017262,.014908,
.016972,.01553,
.016578,.016093,
.016093,.016578,
.01553,.016972,
.014908,.017262,
.014244,.01744,
.01356,.0175,
0.0*
%
%ADD11MACRO11*%
%AMMACRO13*
4,1,44,-.02362,.0059,
-.02362,-.0059,
-.023591,-.006242,
-.023503,-.006574,
-.023359,-.006886,
-.023162,-.007167,
-.02292,-.007411,
-.022639,-.007609,
-.022328,-.007754,
-.021997,-.007844,
-.021655,-.007875,
-.02165,-.00787,
.02165,-.00787,
.021992,-.007845,
.022324,-.007756,
.022635,-.007611,
.022916,-.007414,
.023159,-.007171,
.023356,-.00689,
.023501,-.006579,
.02359,-.006247,
.02362,-.005905,
.02362,-.0059,
.02362,.0059,
.023591,.006242,
.023503,.006574,
.023359,.006886,
.023162,.007167,
.02292,.007411,
.022639,.007609,
.022328,.007754,
.021997,.007844,
.021655,.007875,
.02165,.00787,
-.02165,.00787,
-.021992,.007845,
-.022324,.007756,
-.022635,.007611,
-.022916,.007414,
-.023159,.007171,
-.023356,.00689,
-.023501,.006579,
-.02359,.006247,
-.02362,.005905,
-.02362,.0059,
0.0*
%
%ADD13MACRO13*%
%ADD14C,.005*%
G75*
%LPD*%
G75*
G54D10*
X-1224000Y1058500D03*
X-1218000D03*
X-1224000Y1076500D03*
X-1218000D03*
X-1224050Y1100450D03*
X-1218050D03*
X-1224050Y1106450D03*
X-1218050D03*
X-1124150Y1099500D03*
X-1118150D03*
G54D11*
X-1218000Y1082500D03*
X-1224000D03*
X-1218000Y1070500D03*
X-1224000D03*
X-1218000Y1064500D03*
X-1224000D03*
X-1218000Y1094500D03*
X-1224000D03*
X-1218000Y1088500D03*
X-1224000D03*
X-1218050Y1112500D03*
X-1224050D03*
X-1124350Y1081500D03*
Y1075500D03*
Y1087500D03*
Y1093500D03*
X-1118350Y1081500D03*
Y1075500D03*
Y1087500D03*
Y1093500D03*
G54D12*
X-1205917Y1070425D03*
Y1072984D03*
Y1075543D03*
Y1078102D03*
Y1080661D03*
Y1083220D03*
Y1085780D03*
Y1088339D03*
Y1090898D03*
Y1093457D03*
Y1096016D03*
Y1098575D03*
X-1183083Y1080661D03*
Y1078102D03*
Y1075543D03*
Y1072984D03*
Y1070425D03*
Y1098575D03*
Y1096016D03*
Y1093457D03*
Y1090898D03*
Y1088339D03*
Y1085780D03*
Y1083220D03*
G54D13*
X-1158016Y1077602D03*
Y1080161D03*
Y1082720D03*
Y1075043D03*
Y1072484D03*
Y1095516D03*
Y1092957D03*
Y1087839D03*
Y1090398D03*
Y1085280D03*
X-1134984Y1082720D03*
Y1080161D03*
Y1077602D03*
Y1075043D03*
Y1072484D03*
Y1095516D03*
Y1092957D03*
Y1090398D03*
Y1087839D03*
Y1085280D03*
G54D14*
G01X-1231000Y1154000D02*
X-1114000D01*
G02X-1109000Y1149000I0J-5000D01*
G01Y1017500D01*
G02X-1114000Y1012500I-5000J0D01*
G01X-1234000D01*
G02X-1239000Y1017500I0J5000D01*
G01Y1149000D01*
G02X-1234000Y1154000I5000J0D01*
G01X-1231000D01*
M02*
