G04 ================== begin FILE IDENTIFICATION RECORD ==================*
G04 Layout Name:  G:/2022/TEST/QIANG/Light/Test/sch_pcb/dwin.brd*
G04 Film Name:    silk_bottom*
G04 File Format:  Gerber RS274X*
G04 File Origin:  Cadence Allegro 17.2-061*
G04 Origin Date:  Tue May 31 09:43:27 2022*
G04 *
G04 Layer:  REF DES/SILKSCREEN_BOTTOM*
G04 Layer:  PACKAGE GEOMETRY/SILKSCREEN_BOTTOM*
G04 Layer:  BOARD GEOMETRY/SILKSCREEN_BOTTOM*
G04 Layer:  BOARD GEOMETRY/OUTLINE*
G04 *
G04 Offset:    (0.00 0.00)*
G04 Mirror:    No*
G04 Mode:      Positive*
G04 Rotation:  0*
G04 FullContactRelief:  No*
G04 UndefLineWidth:     6.00*
G04 ================== end FILE IDENTIFICATION RECORD ====================*
%FSLAX25Y25*MOIN*%
%IR0*IPPOS*OFA0.00000B0.00000*MIA0B0*SFA1.00000B1.00000*%
%ADD10C,.01*%
%ADD11C,.006*%
%ADD12C,.005*%
G75*
%LPD*%
G75*
G54D10*
G01X-1203500Y1063000D02*
G03I-500J0D01*
G01X-1184500Y1105500D02*
G03I-500J0D01*
G01X-1155500Y1063000D02*
G03I-500J0D01*
G01X-1136500Y1105500D02*
G03I-500J0D01*
G54D11*
G01X-1223000Y1035500D02*
X-1183500D01*
G01X-1223000Y1025500D02*
Y1035500D01*
G01X-1183500Y1025500D02*
X-1223000D01*
G01D02*
X-1183500D01*
G01X-1223000Y1015500D02*
Y1025500D01*
G01X-1183500Y1015500D02*
X-1223000D01*
G01X-1163000Y1140500D02*
X-1223000D01*
G01D02*
Y1150500D01*
X-1163000D01*
G01Y1130500D02*
X-1223000D01*
G01D02*
Y1140500D01*
X-1163000D01*
G01X-1183500Y1035500D02*
X-1123500D01*
G01D02*
Y1025500D01*
X-1183500D01*
G01D02*
X-1123500D01*
G01D02*
Y1015500D01*
X-1183500D01*
G01X-1123500Y1140500D02*
X-1163000D01*
G01X-1123500Y1130500D02*
X-1163000D01*
G01Y1140500D02*
X-1123500D01*
G01X-1163000Y1150500D02*
X-1123500D01*
G01D02*
Y1140500D01*
G01D02*
Y1130500D01*
G54D12*
G01X-1231000Y1154000D02*
X-1114000D01*
G02X-1109000Y1149000I0J-5000D01*
G01Y1017500D01*
G02X-1114000Y1012500I-5000J0D01*
G01X-1234000D01*
G02X-1239000Y1017500I0J5000D01*
G01Y1149000D01*
G02X-1234000Y1154000I5000J0D01*
G01X-1231000D01*
G01X-1215500Y1080000D02*
X-1226500D01*
Y1085000D01*
X-1215500D01*
Y1080000D01*
G01Y1104000D02*
X-1226500D01*
Y1109000D01*
X-1215500D01*
Y1104000D01*
G01Y1098000D02*
X-1226500D01*
Y1103000D01*
X-1215500D01*
Y1098000D01*
G01Y1092000D02*
X-1226500D01*
Y1097000D01*
X-1215500D01*
Y1092000D01*
G01Y1086000D02*
X-1226500D01*
Y1091000D01*
X-1215500D01*
Y1086000D01*
G01X-1225319Y1115000D02*
X-1216681D01*
G02X-1215500Y1113819I0J-1181D01*
G01Y1111181D01*
G02X-1216681Y1110000I-1181J0D01*
G01X-1225319D01*
G02X-1226500Y1111181I0J1181D01*
G01Y1113819D01*
G02X-1225319Y1115000I1181J0D01*
G01X-1185839Y1064157D02*
Y1083843D01*
X-1203161D01*
Y1066126D01*
X-1201193Y1064157D01*
X-1185839D01*
G01X-1203161Y1104343D02*
Y1084657D01*
X-1185839D01*
Y1102374D01*
X-1187807Y1104343D01*
X-1203161D01*
G01X-1176000Y1077000D02*
X-1165000D01*
Y1072000D01*
X-1176000D01*
Y1077000D01*
G01Y1083000D02*
X-1165000D01*
Y1078000D01*
X-1176000D01*
Y1083000D01*
G01X-1166181Y1066000D02*
X-1174819D01*
G02X-1176000Y1067181I0J1181D01*
G01Y1069819D01*
G02X-1174819Y1071000I1181J0D01*
G01X-1166181D01*
G02X-1165000Y1069819I0J-1181D01*
G01Y1067181D01*
G02X-1166181Y1066000I-1181J0D01*
G01X-1165000Y1086500D02*
X-1176000D01*
Y1091500D01*
X-1165000D01*
Y1086500D01*
G01Y1092500D02*
X-1176000D01*
Y1097500D01*
X-1165000D01*
Y1092500D01*
G01X-1174819Y1103500D02*
X-1166181D01*
G02X-1165000Y1102319I0J-1181D01*
G01Y1099681D01*
G02X-1166181Y1098500I-1181J0D01*
G01X-1174819D01*
G02X-1176000Y1099681I0J1181D01*
G01Y1102319D01*
G02X-1174819Y1103500I1181J0D01*
G01X-1137839Y1064157D02*
Y1083843D01*
X-1155161D01*
Y1066126D01*
X-1153193Y1064157D01*
X-1137839D01*
G01X-1155161Y1104343D02*
Y1084657D01*
X-1137839D01*
Y1102374D01*
X-1139807Y1104343D01*
X-1155161D01*
G01X-1127000Y1072000D02*
X-1116000D01*
Y1067000D01*
X-1127000D01*
Y1072000D01*
G01Y1078000D02*
X-1116000D01*
Y1073000D01*
X-1127000D01*
Y1078000D01*
G01X-1115850Y1078950D02*
X-1126850D01*
Y1083950D01*
X-1115850D01*
Y1078950D01*
G01X-1117181Y1061000D02*
X-1125819D01*
G02X-1127000Y1062181I0J1181D01*
G01Y1064819D01*
G02X-1125819Y1066000I1181J0D01*
G01X-1117181D01*
G02X-1116000Y1064819I0J-1181D01*
G01Y1062181D01*
G02X-1117181Y1061000I-1181J0D01*
G01X-1115850Y1084950D02*
X-1126850D01*
Y1089950D01*
X-1115850D01*
Y1084950D01*
G01Y1090950D02*
X-1126850D01*
Y1095950D01*
X-1115850D01*
Y1090950D01*
M02*
