G04 ================== begin FILE IDENTIFICATION RECORD ==================*
G04 Layout Name:  G:/2022/TEST/QIANG/07_IIC_UART_Hub/IIC_UART_Hub_V1.0.brd*
G04 Film Name:    drill*
G04 File Format:  Gerber RS274X*
G04 File Origin:  Cadence Allegro 17.2-061*
G04 Origin Date:  Fri Jun 24 10:23:06 2022*
G04 *
G04 Layer:  MANUFACTURING/NCLEGEND-SLOTS-1-4*
G04 Layer:  MANUFACTURING/NCLEGEND-SLOTS*
G04 Layer:  MANUFACTURING/NCLEGEND-1-4*
G04 Layer:  MANUFACTURING/NCLEGEND-1-2*
G04 Layer:  MANUFACTURING/NCDRILL_FIGURE*
G04 Layer:  BOARD GEOMETRY/DIMENSION*
G04 Layer:  MANUFACTURING/NCDRILL_LEGEND*
G04 Layer:  BOARD GEOMETRY/OUTLINE*
G04 *
G04 Offset:    (0.00 0.00)*
G04 Mirror:    No*
G04 Mode:      Positive*
G04 Rotation:  0*
G04 FullContactRelief:  No*
G04 UndefLineWidth:     6.00*
G04 ================== end FILE IDENTIFICATION RECORD ====================*
%FSLAX25Y25*MOIN*%
%IR0*IPPOS*OFA0.00000B0.00000*MIA0B0*SFA1.00000B1.00000*%
%AMMACRO11*
1,1,.006,.005,0.0*
20,1,.006,.005,0.0,-.005,0.0,0.0*
1,1,.006,-.005,0.0*
1,1,.006,0.0,.005*
20,1,.006,0.0,.005,0.0,-.005,0.0*
1,1,.006,0.0,-.005*
%
%ADD11MACRO11*%
%AMMACRO10*
1,1,.006,.021655,.021655*
20,1,.006,.021655,.021655,.021655,-.021655,0.0*
1,1,.006,.021655,-.021655*
20,1,.006,.021655,-.021655,-.021655,-.021655,0.0*
1,1,.006,-.021655,-.021655*
20,1,.006,-.021655,-.021655,-.021655,.021655,0.0*
1,1,.006,-.021655,.021655*
20,1,.006,-.021655,.021655,.021655,.021655,0.0*
1,1,.006,.021655,.021655*
%
%ADD10MACRO10*%
%ADD12C,.005*%
%ADD13C,.006*%
G75*
%LPD*%
G75*
G54D10*
X-1218000Y1032000D03*
X-1228000Y1042000D03*
Y1052000D03*
Y1062000D03*
Y1072000D03*
Y1082000D03*
Y1092000D03*
Y1112000D03*
Y1102000D03*
Y1132000D03*
Y1122000D03*
X-1218500Y1141500D03*
X-1208000Y1032000D03*
X-1198000D03*
X-1208500Y1141500D03*
X-1198500D03*
X-1188000Y1032000D03*
X-1178000D03*
X-1188500Y1141500D03*
X-1178500D03*
X-1158000Y1032000D03*
X-1168000D03*
X-1158500Y1141500D03*
X-1168500D03*
X-1138000Y1032000D03*
X-1148000D03*
X-1138500Y1141500D03*
X-1148500D03*
X-1128000Y1032000D03*
X-1118500Y1041500D03*
Y1051500D03*
Y1061500D03*
Y1071500D03*
Y1081500D03*
Y1101500D03*
Y1091500D03*
Y1121500D03*
Y1111500D03*
Y1131500D03*
X-1128500Y1141500D03*
X-1051050Y1028500D03*
G54D11*
X-1217500Y1039500D03*
X-1216153Y1050500D03*
X-1220500Y1052000D03*
X-1217500Y1043500D03*
X-1216153Y1074347D03*
X-1220500Y1092000D03*
X-1217500Y1105500D03*
X-1218000Y1108000D03*
X-1214500Y1116500D03*
X-1221500Y1134500D03*
X-1218500Y1127500D03*
X-1206500Y1056500D03*
X-1214000Y1041500D03*
X-1199000Y1050500D03*
X-1213000Y1062500D03*
X-1197000Y1067500D03*
X-1204000Y1068500D03*
X-1205000Y1076500D03*
X-1213000Y1091000D03*
Y1094000D03*
X-1213050Y1086550D03*
X-1200323Y1089823D03*
X-1205000Y1082000D03*
X-1196000Y1088000D03*
X-1207823Y1112323D03*
X-1209500Y1117000D03*
X-1212000Y1113500D03*
X-1198000Y1105177D03*
Y1110000D03*
X-1196000Y1100059D03*
X-1199000Y1134500D03*
X-1211500Y1127500D03*
X-1198000Y1127677D03*
X-1196000Y1124000D03*
X-1182000Y1046000D03*
X-1178484Y1057516D03*
X-1193839Y1048500D03*
X-1178484Y1073154D03*
X-1181043D03*
X-1186161D03*
X-1191280D03*
X-1193839D03*
X-1188720Y1073280D03*
X-1179000Y1069000D03*
Y1064000D03*
X-1187000Y1067500D03*
X-1183500Y1081500D03*
X-1188500Y1083500D03*
Y1095000D03*
X-1175500Y1102618D03*
X-1177559Y1100059D03*
X-1191280Y1110000D03*
X-1179000Y1108000D03*
X-1193839D03*
X-1177002Y1114941D03*
X-1188500Y1117441D03*
Y1105000D03*
X-1176941Y1117441D03*
X-1177122Y1127677D03*
X-1184500Y1125118D03*
X-1186161Y1122500D03*
X-1172575Y1072464D03*
X-1163500Y1070000D03*
X-1170500Y1067500D03*
X-1169500Y1060000D03*
X-1159000Y1062500D03*
X-1171000Y1097500D03*
X-1173500Y1087000D03*
Y1094941D03*
X-1171378Y1092382D03*
X-1171500Y1089000D03*
X-1169500Y1085000D03*
X-1168000Y1087000D03*
X-1172500Y1109500D03*
X-1171382Y1102618D03*
X-1171000Y1112000D03*
X-1171323Y1105177D03*
X-1173000Y1127500D03*
X-1171378Y1120000D03*
X-1145000Y1046000D03*
X-1135000Y1043500D03*
X-1143000Y1043000D03*
X-1146984Y1050500D03*
X-1149543Y1048500D03*
X-1138750Y1059500D03*
X-1149500Y1072500D03*
X-1146000Y1069000D03*
X-1153000Y1068500D03*
X-1140500Y1078000D03*
X-1141177Y1089823D03*
X-1141000Y1097500D03*
X-1145000Y1086000D03*
X-1147500Y1082500D03*
X-1140000Y1081000D03*
X-1141118Y1092382D03*
X-1141059Y1094941D03*
X-1144484Y1109500D03*
X-1135000Y1118000D03*
X-1141122Y1102618D03*
Y1100059D03*
X-1140498Y1114941D03*
X-1140559Y1117441D03*
X-1144484Y1130500D03*
X-1140618Y1125118D03*
X-1140559Y1122559D03*
X-1133000Y1056500D03*
X-1130000Y1050500D03*
Y1043500D03*
X-1127500Y1056500D03*
X-1130000Y1074500D03*
X-1133000Y1062500D03*
X-1132500Y1080500D03*
X-1124000Y1095500D03*
Y1114500D03*
X-1131000Y1108500D03*
X-1126000Y1100500D03*
X-1131000Y1125000D03*
Y1130500D03*
X-1126000Y1131000D03*
X-1125000Y1134000D03*
X-1125500Y1122500D03*
X-1051050Y1053500D03*
G54D12*
G01X-1223000Y1141500D02*
X-1123500D01*
G02X-1118500Y1136500I0J-5000D01*
G01Y1037000D01*
G02X-1123500Y1032000I-5000J0D01*
G01X-1223000D01*
G02X-1228000Y1037000I0J5000D01*
G01Y1136500D01*
G02X-1223000Y1141500I5000J0D01*
G54D13*
G01X-1123500Y1032000D02*
G03X-1118500Y1037000I0J5000D01*
G01Y1136500D01*
G03X-1123500Y1141500I-5000J0D01*
G01X-1223000D01*
G03X-1228000Y1136500I0J-5000D01*
G01Y1037000D01*
G03X-1223000Y1032000I5000J0D01*
G01X-1123500D01*
G01X-1096000Y1016000D02*
Y1141000D01*
X-600000D01*
Y1016000D01*
X-1096000D01*
G01Y1041000D02*
X-600000D01*
G01X-1084995Y1072250D02*
Y1084750D01*
X-1079105D01*
G01X-1081275Y1078708D02*
X-1084995D01*
G01X-1071510Y1084750D02*
X-1067790D01*
G01X-1069650D02*
Y1072250D01*
G01X-1071510D02*
X-1067790D01*
G01X-1056320Y1078500D02*
X-1053220D01*
Y1074750D01*
X-1054150Y1073500D01*
X-1055235Y1072667D01*
X-1056785Y1072250D01*
X-1058335Y1072667D01*
X-1059420Y1073500D01*
X-1060350Y1074750D01*
X-1060970Y1076208D01*
X-1061280Y1077875D01*
Y1079333D01*
X-1060970Y1080583D01*
X-1060350Y1082042D01*
X-1059420Y1083292D01*
X-1058490Y1084125D01*
X-1057250Y1084750D01*
X-1056165D01*
X-1054925Y1084333D01*
X-1053995Y1083500D01*
G01X-1048260Y1084750D02*
Y1075792D01*
X-1047640Y1073916D01*
X-1046400Y1072667D01*
X-1044850Y1072250D01*
X-1043300Y1072667D01*
X-1042060Y1073916D01*
X-1041440Y1075792D01*
Y1084750D01*
G01X-1035550Y1072250D02*
Y1084750D01*
X-1031675D01*
X-1030435Y1084125D01*
X-1029660Y1083292D01*
X-1029350Y1081625D01*
X-1029660Y1079958D01*
X-1030590Y1078917D01*
X-1031675Y1078292D01*
X-1035550D01*
G01X-1031675D02*
X-1029350Y1072250D01*
G01X-1016950D02*
X-1023150D01*
Y1084750D01*
X-1016950D01*
G01X-1019430Y1078708D02*
X-1023150D01*
G01X-1096000Y1066000D02*
X-600000D01*
G01X-1096000Y1091000D02*
X-600000D01*
G01X-1096000Y1116000D02*
X-600000D01*
G01X-1006100Y1091000D02*
Y1016000D01*
G01X-1006410Y1122250D02*
Y1134750D01*
X-1003310D01*
X-1002070Y1134125D01*
X-1001140Y1133292D01*
X-1000365Y1132042D01*
X-999745Y1130583D01*
X-999590Y1128500D01*
X-999745Y1126417D01*
X-1000365Y1124958D01*
X-1001140Y1123708D01*
X-1002070Y1122875D01*
X-1003310Y1122250D01*
X-1006410D01*
G01X-993700D02*
Y1134750D01*
X-989825D01*
X-988585Y1134125D01*
X-987810Y1133292D01*
X-987500Y1131625D01*
X-987810Y1129958D01*
X-988740Y1128917D01*
X-989825Y1128292D01*
X-993700D01*
G01X-989825D02*
X-987500Y1122250D01*
G01X-980060Y1134750D02*
X-976340D01*
G01X-978200D02*
Y1122250D01*
G01X-980060D02*
X-976340D01*
G01X-968900Y1134750D02*
Y1122250D01*
X-962700D01*
G01X-956500Y1134750D02*
Y1122250D01*
X-950300D01*
G01X-925190Y1133708D02*
X-926120Y1134333D01*
X-927205Y1134750D01*
X-928445D01*
X-929840Y1134125D01*
X-930925Y1133083D01*
X-931700Y1131833D01*
X-932320Y1129750D01*
X-932475Y1127875D01*
X-932165Y1126000D01*
X-931700Y1124750D01*
X-930770Y1123500D01*
X-929685Y1122667D01*
X-928600Y1122250D01*
X-927515D01*
X-926430Y1122667D01*
X-925500Y1123291D01*
X-924725Y1124125D01*
G01X-919455Y1122250D02*
Y1134750D01*
G01X-912945D02*
Y1122250D01*
G01Y1128500D02*
X-919455D01*
G01X-907675Y1122250D02*
X-903800Y1134750D01*
X-899925Y1122250D01*
G01X-901320Y1126625D02*
X-906280D01*
G01X-894500Y1122250D02*
Y1134750D01*
X-890625D01*
X-889385Y1134125D01*
X-888610Y1133292D01*
X-888300Y1131625D01*
X-888610Y1129958D01*
X-889540Y1128917D01*
X-890625Y1128292D01*
X-894500D01*
G01X-890625D02*
X-888300Y1122250D01*
G01X-879000Y1134750D02*
Y1122250D01*
G01X-882565Y1134750D02*
X-875435D01*
G01X-866600Y1121833D02*
X-866910Y1122042D01*
Y1122458D01*
X-866600Y1122667D01*
X-866290Y1122458D01*
Y1122042D01*
X-866600Y1121833D01*
G01Y1127458D02*
X-866910Y1127667D01*
Y1128083D01*
X-866600Y1128292D01*
X-866290Y1128083D01*
Y1127667D01*
X-866600Y1127458D01*
G01X-841800Y1134750D02*
Y1122250D01*
G01X-845365Y1134750D02*
X-838235D01*
G01X-829400Y1122250D02*
X-830640Y1122458D01*
X-831725Y1123291D01*
X-832655Y1124542D01*
X-833275Y1126000D01*
X-833585Y1127667D01*
Y1129333D01*
X-833275Y1131000D01*
X-832655Y1132458D01*
X-831725Y1133708D01*
X-830640Y1134542D01*
X-829400Y1134750D01*
X-828160Y1134542D01*
X-827075Y1133708D01*
X-826145Y1132458D01*
X-825525Y1131000D01*
X-825215Y1129333D01*
Y1127667D01*
X-825525Y1126000D01*
X-826145Y1124542D01*
X-827075Y1123291D01*
X-828160Y1122458D01*
X-829400Y1122250D01*
G01X-820100D02*
Y1134750D01*
X-816380D01*
X-815140Y1134125D01*
X-814210Y1132667D01*
X-813900Y1131000D01*
X-814210Y1129333D01*
X-814985Y1128083D01*
X-816380Y1127458D01*
X-820100D01*
G01X-792200Y1134750D02*
Y1122250D01*
G01X-794370Y1130583D02*
X-790030D01*
G01X-779800Y1122250D02*
X-780730Y1122458D01*
X-781660Y1123291D01*
X-782280Y1124750D01*
X-782590Y1126417D01*
X-782280Y1128083D01*
X-781660Y1129542D01*
X-780730Y1130375D01*
X-779800Y1130583D01*
X-778870Y1130375D01*
X-777940Y1129542D01*
X-777320Y1128083D01*
X-777165Y1126417D01*
X-777320Y1124750D01*
X-777940Y1123291D01*
X-778870Y1122458D01*
X-779800Y1122250D01*
G01X-753760Y1128917D02*
X-753140Y1129542D01*
X-752675Y1130583D01*
X-752365Y1132042D01*
X-752675Y1133292D01*
X-753295Y1134125D01*
X-754380Y1134750D01*
X-758565D01*
Y1122250D01*
X-753450D01*
X-752365Y1123083D01*
X-751745Y1124333D01*
X-751435Y1125792D01*
X-751745Y1127250D01*
X-752675Y1128500D01*
X-753760Y1128917D01*
X-758565D01*
G01X-742600Y1122250D02*
X-743840Y1122458D01*
X-744925Y1123291D01*
X-745855Y1124542D01*
X-746475Y1126000D01*
X-746785Y1127667D01*
Y1129333D01*
X-746475Y1131000D01*
X-745855Y1132458D01*
X-744925Y1133708D01*
X-743840Y1134542D01*
X-742600Y1134750D01*
X-741360Y1134542D01*
X-740275Y1133708D01*
X-739345Y1132458D01*
X-738725Y1131000D01*
X-738415Y1129333D01*
Y1127667D01*
X-738725Y1126000D01*
X-739345Y1124542D01*
X-740275Y1123291D01*
X-741360Y1122458D01*
X-742600Y1122250D01*
G01X-730200Y1134750D02*
Y1122250D01*
G01X-733765Y1134750D02*
X-726635D01*
G01X-717800D02*
Y1122250D01*
G01X-721365Y1134750D02*
X-714235D01*
G01X-705400Y1122250D02*
X-706640Y1122458D01*
X-707725Y1123291D01*
X-708655Y1124542D01*
X-709275Y1126000D01*
X-709585Y1127667D01*
Y1129333D01*
X-709275Y1131000D01*
X-708655Y1132458D01*
X-707725Y1133708D01*
X-706640Y1134542D01*
X-705400Y1134750D01*
X-704160Y1134542D01*
X-703075Y1133708D01*
X-702145Y1132458D01*
X-701525Y1131000D01*
X-701215Y1129333D01*
Y1127667D01*
X-701525Y1126000D01*
X-702145Y1124542D01*
X-703075Y1123291D01*
X-704160Y1122458D01*
X-705400Y1122250D01*
G01X-697030D02*
Y1134750D01*
X-693000Y1124333D01*
X-688970Y1134750D01*
Y1122250D01*
G01X-982695Y1072250D02*
Y1084750D01*
X-976805D01*
G01X-978975Y1078708D02*
X-982695D01*
G01X-969210Y1084750D02*
X-965490D01*
G01X-967350D02*
Y1072250D01*
G01X-969210D02*
X-965490D01*
G01X-958515D02*
Y1084750D01*
X-951385Y1072250D01*
Y1084750D01*
G01X-944410D02*
X-940690D01*
G01X-942550D02*
Y1072250D01*
G01X-944410D02*
X-940690D01*
G01X-933405Y1073916D02*
X-932165Y1072875D01*
X-930770Y1072250D01*
X-929530D01*
X-928290Y1072875D01*
X-927360Y1073916D01*
X-926895Y1075375D01*
X-927205Y1076833D01*
X-927980Y1078083D01*
X-929375Y1078917D01*
X-931235Y1079333D01*
X-932320Y1080167D01*
X-932785Y1081625D01*
X-932475Y1083083D01*
X-931700Y1084125D01*
X-930615Y1084750D01*
X-929530D01*
X-928445Y1084333D01*
X-927515Y1083292D01*
G01X-921005Y1072250D02*
Y1084750D01*
G01X-914495D02*
Y1072250D01*
G01Y1078500D02*
X-921005D01*
G01X-902250Y1072250D02*
X-908450D01*
Y1084750D01*
X-902250D01*
G01X-904730Y1078708D02*
X-908450D01*
G01X-896360Y1072250D02*
Y1084750D01*
X-893260D01*
X-892020Y1084125D01*
X-891090Y1083292D01*
X-890315Y1082042D01*
X-889695Y1080583D01*
X-889540Y1078500D01*
X-889695Y1076417D01*
X-890315Y1074958D01*
X-891090Y1073708D01*
X-892020Y1072875D01*
X-893260Y1072250D01*
X-896360D01*
G01X-885200Y1068083D02*
X-875900D01*
G01X-871405Y1073916D02*
X-870165Y1072875D01*
X-868770Y1072250D01*
X-867530D01*
X-866290Y1072875D01*
X-865360Y1073916D01*
X-864895Y1075375D01*
X-865205Y1076833D01*
X-865980Y1078083D01*
X-867375Y1078917D01*
X-869235Y1079333D01*
X-870320Y1080167D01*
X-870785Y1081625D01*
X-870475Y1083083D01*
X-869700Y1084125D01*
X-868615Y1084750D01*
X-867530D01*
X-866445Y1084333D01*
X-865515Y1083292D01*
G01X-857610Y1084750D02*
X-853890D01*
G01X-855750D02*
Y1072250D01*
G01X-857610D02*
X-853890D01*
G01X-846295Y1084750D02*
X-840405D01*
X-846295Y1072250D01*
X-840405D01*
G01X-827850D02*
X-834050D01*
Y1084750D01*
X-827850D01*
G01X-830330Y1078708D02*
X-834050D01*
G01X-975875Y1097250D02*
X-972000Y1109750D01*
X-968125Y1097250D01*
G01X-969520Y1101625D02*
X-974480D01*
G01X-962700Y1109750D02*
Y1097250D01*
X-956500D01*
G01X-950300Y1109750D02*
Y1097250D01*
X-944100D01*
G01X-925810Y1109750D02*
Y1100792D01*
X-925190Y1098916D01*
X-923950Y1097667D01*
X-922400Y1097250D01*
X-920850Y1097667D01*
X-919610Y1098916D01*
X-918990Y1100792D01*
Y1109750D01*
G01X-913565Y1097250D02*
Y1109750D01*
X-906435Y1097250D01*
Y1109750D01*
G01X-899460D02*
X-895740D01*
G01X-897600D02*
Y1097250D01*
G01X-899460D02*
X-895740D01*
G01X-885200Y1109750D02*
Y1097250D01*
G01X-888765Y1109750D02*
X-881635D01*
G01X-876055Y1098916D02*
X-874815Y1097875D01*
X-873420Y1097250D01*
X-872180D01*
X-870940Y1097875D01*
X-870010Y1098916D01*
X-869545Y1100375D01*
X-869855Y1101833D01*
X-870630Y1103083D01*
X-872025Y1103917D01*
X-873885Y1104333D01*
X-874970Y1105167D01*
X-875435Y1106625D01*
X-875125Y1108083D01*
X-874350Y1109125D01*
X-873265Y1109750D01*
X-872180D01*
X-871095Y1109333D01*
X-870165Y1108292D01*
G01X-851875Y1097250D02*
X-848000Y1109750D01*
X-844125Y1097250D01*
G01X-845520Y1101625D02*
X-850480D01*
G01X-838700Y1097250D02*
Y1109750D01*
X-834825D01*
X-833585Y1109125D01*
X-832810Y1108292D01*
X-832500Y1106625D01*
X-832810Y1104958D01*
X-833740Y1103917D01*
X-834825Y1103292D01*
X-838700D01*
G01X-834825D02*
X-832500Y1097250D01*
G01X-820100D02*
X-826300D01*
Y1109750D01*
X-820100D01*
G01X-822580Y1103708D02*
X-826300D01*
G01X-800260Y1109750D02*
X-796540D01*
G01X-798400D02*
Y1097250D01*
G01X-800260D02*
X-796540D01*
G01X-789565D02*
Y1109750D01*
X-782435Y1097250D01*
Y1109750D01*
G01X-765230Y1097250D02*
Y1109750D01*
X-761200Y1099333D01*
X-757170Y1109750D01*
Y1097250D01*
G01X-750660Y1109750D02*
X-746940D01*
G01X-748800D02*
Y1097250D01*
G01X-750660D02*
X-746940D01*
G01X-739500Y1109750D02*
Y1097250D01*
X-733300D01*
G01X-727255Y1098916D02*
X-726015Y1097875D01*
X-724620Y1097250D01*
X-723380D01*
X-722140Y1097875D01*
X-721210Y1098916D01*
X-720745Y1100375D01*
X-721055Y1101833D01*
X-721830Y1103083D01*
X-723225Y1103917D01*
X-725085Y1104333D01*
X-726170Y1105167D01*
X-726635Y1106625D01*
X-726325Y1108083D01*
X-725550Y1109125D01*
X-724465Y1109750D01*
X-723380D01*
X-722295Y1109333D01*
X-721365Y1108292D01*
G01X-928290Y1022250D02*
Y1034750D01*
X-934025Y1025792D01*
X-926275D01*
G01X-921160Y1024750D02*
X-920230Y1023291D01*
X-918990Y1022458D01*
X-917595Y1022250D01*
X-916355Y1022458D01*
X-915115Y1023500D01*
X-914340Y1024750D01*
X-914185Y1026000D01*
X-914495Y1027458D01*
X-915580Y1028500D01*
X-916665Y1028917D01*
X-918060D01*
G01X-916665D02*
X-915735Y1029542D01*
X-914960Y1030583D01*
X-914650Y1031833D01*
X-914960Y1033083D01*
X-915735Y1034125D01*
X-917130Y1034750D01*
X-918525Y1034542D01*
X-919920Y1033708D01*
G01X-905350Y1021833D02*
X-905660Y1022042D01*
Y1022458D01*
X-905350Y1022667D01*
X-905040Y1022458D01*
Y1022042D01*
X-905350Y1021833D01*
G01X-896360Y1024750D02*
X-895430Y1023291D01*
X-894190Y1022458D01*
X-892795Y1022250D01*
X-891555Y1022458D01*
X-890315Y1023500D01*
X-889540Y1024750D01*
X-889385Y1026000D01*
X-889695Y1027458D01*
X-890780Y1028500D01*
X-891865Y1028917D01*
X-893260D01*
G01X-891865D02*
X-890935Y1029542D01*
X-890160Y1030583D01*
X-889850Y1031833D01*
X-890160Y1033083D01*
X-890935Y1034125D01*
X-892330Y1034750D01*
X-893725Y1034542D01*
X-895120Y1033708D01*
G01X-880550Y1022250D02*
Y1034750D01*
X-882410Y1032250D01*
G01Y1022250D02*
X-878690D01*
G01X-923950Y1047250D02*
Y1059750D01*
X-925810Y1057250D01*
G01Y1047250D02*
X-922090D01*
G01X-911550Y1059750D02*
X-912790Y1059333D01*
X-913720Y1058292D01*
X-914340Y1057042D01*
X-914805Y1055375D01*
X-914960Y1053500D01*
X-914805Y1051625D01*
X-914340Y1049958D01*
X-913720Y1048708D01*
X-912790Y1047667D01*
X-911550Y1047250D01*
X-910310Y1047667D01*
X-909380Y1048708D01*
X-908760Y1049958D01*
X-908295Y1051625D01*
X-908140Y1053500D01*
X-908295Y1055375D01*
X-908760Y1057042D01*
X-909380Y1058292D01*
X-910310Y1059333D01*
X-911550Y1059750D01*
G01X-899150Y1046833D02*
X-899460Y1047042D01*
Y1047458D01*
X-899150Y1047667D01*
X-898840Y1047458D01*
Y1047042D01*
X-899150Y1046833D01*
G01X-886750Y1059750D02*
X-887990Y1059333D01*
X-888920Y1058292D01*
X-889540Y1057042D01*
X-890005Y1055375D01*
X-890160Y1053500D01*
X-890005Y1051625D01*
X-889540Y1049958D01*
X-888920Y1048708D01*
X-887990Y1047667D01*
X-886750Y1047250D01*
X-885510Y1047667D01*
X-884580Y1048708D01*
X-883960Y1049958D01*
X-883495Y1051625D01*
X-883340Y1053500D01*
X-883495Y1055375D01*
X-883960Y1057042D01*
X-884580Y1058292D01*
X-885510Y1059333D01*
X-886750Y1059750D01*
G01X-831050Y1009750D02*
Y997250D01*
G01X-834615Y1009750D02*
X-827485D01*
G01X-818650Y997250D02*
X-819890Y997458D01*
X-820975Y998291D01*
X-821905Y999542D01*
X-822525Y1001000D01*
X-822835Y1002667D01*
Y1004333D01*
X-822525Y1006000D01*
X-821905Y1007458D01*
X-820975Y1008708D01*
X-819890Y1009542D01*
X-818650Y1009750D01*
X-817410Y1009542D01*
X-816325Y1008708D01*
X-815395Y1007458D01*
X-814775Y1006000D01*
X-814465Y1004333D01*
Y1002667D01*
X-814775Y1001000D01*
X-815395Y999542D01*
X-816325Y998291D01*
X-817410Y997458D01*
X-818650Y997250D01*
G01X-806250Y1009750D02*
Y997250D01*
G01X-809815Y1009750D02*
X-802685D01*
G01X-797725Y997250D02*
X-793850Y1009750D01*
X-789975Y997250D01*
G01X-791370Y1001625D02*
X-796330D01*
G01X-784550Y1009750D02*
Y997250D01*
X-778350D01*
G01X-759905D02*
Y1009750D01*
G01X-753395D02*
Y997250D01*
G01Y1003500D02*
X-759905D01*
G01X-744250Y997250D02*
X-745490Y997458D01*
X-746575Y998291D01*
X-747505Y999542D01*
X-748125Y1001000D01*
X-748435Y1002667D01*
Y1004333D01*
X-748125Y1006000D01*
X-747505Y1007458D01*
X-746575Y1008708D01*
X-745490Y1009542D01*
X-744250Y1009750D01*
X-743010Y1009542D01*
X-741925Y1008708D01*
X-740995Y1007458D01*
X-740375Y1006000D01*
X-740065Y1004333D01*
Y1002667D01*
X-740375Y1001000D01*
X-740995Y999542D01*
X-741925Y998291D01*
X-743010Y997458D01*
X-744250Y997250D01*
G01X-734950Y1009750D02*
Y997250D01*
X-728750D01*
G01X-716350D02*
X-722550D01*
Y1009750D01*
X-716350D01*
G01X-718830Y1003708D02*
X-722550D01*
G01X-710305Y998916D02*
X-709065Y997875D01*
X-707670Y997250D01*
X-706430D01*
X-705190Y997875D01*
X-704260Y998916D01*
X-703795Y1000375D01*
X-704105Y1001833D01*
X-704880Y1003083D01*
X-706275Y1003917D01*
X-708135Y1004333D01*
X-709220Y1005167D01*
X-709685Y1006625D01*
X-709375Y1008083D01*
X-708600Y1009125D01*
X-707515Y1009750D01*
X-706430D01*
X-705345Y1009333D01*
X-704415Y1008292D01*
G01X-694650Y996833D02*
X-694960Y997042D01*
Y997458D01*
X-694650Y997667D01*
X-694340Y997458D01*
Y997042D01*
X-694650Y996833D01*
G01Y1002458D02*
X-694960Y1002667D01*
Y1003083D01*
X-694650Y1003292D01*
X-694340Y1003083D01*
Y1002667D01*
X-694650Y1002458D01*
G01X-804600Y1091000D02*
Y1016000D01*
G01X-775150Y1022250D02*
Y1034750D01*
X-771430D01*
X-770190Y1034125D01*
X-769260Y1032667D01*
X-768950Y1031000D01*
X-769260Y1029333D01*
X-770035Y1028083D01*
X-771430Y1027458D01*
X-775150D01*
G01X-762750Y1034750D02*
Y1022250D01*
X-756550D01*
G01X-751125D02*
X-747250Y1034750D01*
X-743375Y1022250D01*
G01X-744770Y1026625D02*
X-749730D01*
G01X-734850Y1034750D02*
Y1022250D01*
G01X-738415Y1034750D02*
X-731285D01*
G01X-719350Y1022250D02*
X-725550D01*
Y1034750D01*
X-719350D01*
G01X-721830Y1028708D02*
X-725550D01*
G01X-713460Y1022250D02*
Y1034750D01*
X-710360D01*
X-709120Y1034125D01*
X-708190Y1033292D01*
X-707415Y1032042D01*
X-706795Y1030583D01*
X-706640Y1028500D01*
X-706795Y1026417D01*
X-707415Y1024958D01*
X-708190Y1023708D01*
X-709120Y1022875D01*
X-710360Y1022250D01*
X-713460D01*
G01X-775150Y1047250D02*
Y1059750D01*
X-771430D01*
X-770190Y1059125D01*
X-769260Y1057667D01*
X-768950Y1056000D01*
X-769260Y1054333D01*
X-770035Y1053083D01*
X-771430Y1052458D01*
X-775150D01*
G01X-762750Y1059750D02*
Y1047250D01*
X-756550D01*
G01X-751125D02*
X-747250Y1059750D01*
X-743375Y1047250D01*
G01X-744770Y1051625D02*
X-749730D01*
G01X-734850Y1059750D02*
Y1047250D01*
G01X-738415Y1059750D02*
X-731285D01*
G01X-719350Y1047250D02*
X-725550D01*
Y1059750D01*
X-719350D01*
G01X-721830Y1053708D02*
X-725550D01*
G01X-713460Y1047250D02*
Y1059750D01*
X-710360D01*
X-709120Y1059125D01*
X-708190Y1058292D01*
X-707415Y1057042D01*
X-706795Y1055583D01*
X-706640Y1053500D01*
X-706795Y1051417D01*
X-707415Y1049958D01*
X-708190Y1048708D01*
X-709120Y1047875D01*
X-710360Y1047250D01*
X-713460D01*
G01X-775150Y1072250D02*
Y1084750D01*
X-771430D01*
X-770190Y1084125D01*
X-769260Y1082667D01*
X-768950Y1081000D01*
X-769260Y1079333D01*
X-770035Y1078083D01*
X-771430Y1077458D01*
X-775150D01*
G01X-762750Y1084750D02*
Y1072250D01*
X-756550D01*
G01X-751125D02*
X-747250Y1084750D01*
X-743375Y1072250D01*
G01X-744770Y1076625D02*
X-749730D01*
G01X-734850Y1084750D02*
Y1072250D01*
G01X-738415Y1084750D02*
X-731285D01*
G01X-719350Y1072250D02*
X-725550D01*
Y1084750D01*
X-719350D01*
G01X-721830Y1078708D02*
X-725550D01*
G01X-713460Y1072250D02*
Y1084750D01*
X-710360D01*
X-709120Y1084125D01*
X-708190Y1083292D01*
X-707415Y1082042D01*
X-706795Y1080583D01*
X-706640Y1078500D01*
X-706795Y1076417D01*
X-707415Y1074958D01*
X-708190Y1073708D01*
X-709120Y1072875D01*
X-710360Y1072250D01*
X-713460D01*
G01X-677500Y1091000D02*
Y1016000D01*
G01X-651150Y997250D02*
Y1009750D01*
X-653010Y1007250D01*
G01Y997250D02*
X-649290D01*
G01X-641695Y1002458D02*
X-640610Y1003917D01*
X-639680Y1004750D01*
X-638440Y1005167D01*
X-637355Y1004750D01*
X-636580Y1003917D01*
X-635960Y1002667D01*
X-635805Y1001208D01*
X-635960Y999958D01*
X-636580Y998708D01*
X-637510Y997667D01*
X-638595Y997250D01*
X-639835Y997667D01*
X-640920Y998916D01*
X-641540Y1000792D01*
X-641695Y1002875D01*
X-641385Y1005583D01*
X-640920Y1007042D01*
X-640145Y1008500D01*
X-639060Y1009542D01*
X-637975Y1009750D01*
X-636890Y1009333D01*
X-636115Y1008292D01*
G01X-626350Y997250D02*
Y1009750D01*
X-628210Y1007250D01*
G01Y997250D02*
X-624490D01*
G01X-643090Y1022250D02*
Y1034750D01*
X-648825Y1025792D01*
X-641075D01*
G01X-632550Y1034750D02*
X-633790Y1034333D01*
X-634720Y1033292D01*
X-635340Y1032042D01*
X-635805Y1030375D01*
X-635960Y1028500D01*
X-635805Y1026625D01*
X-635340Y1024958D01*
X-634720Y1023708D01*
X-633790Y1022667D01*
X-632550Y1022250D01*
X-631310Y1022667D01*
X-630380Y1023708D01*
X-629760Y1024958D01*
X-629295Y1026625D01*
X-629140Y1028500D01*
X-629295Y1030375D01*
X-629760Y1032042D01*
X-630380Y1033292D01*
X-631310Y1034333D01*
X-632550Y1034750D01*
G01X-651150Y1047250D02*
Y1059750D01*
X-653010Y1057250D01*
G01Y1047250D02*
X-649290D01*
G01X-641695Y1057667D02*
X-640765Y1058916D01*
X-639680Y1059542D01*
X-638440Y1059750D01*
X-636890Y1059333D01*
X-635805Y1058292D01*
X-635495Y1057042D01*
X-635650Y1055791D01*
X-636270Y1054750D01*
X-639370Y1052667D01*
X-640765Y1051208D01*
X-641695Y1049125D01*
X-642005Y1047250D01*
X-635495D01*
G01X-626350D02*
Y1059750D01*
X-628210Y1057250D01*
G01Y1047250D02*
X-624490D01*
G01X-651150Y1072250D02*
X-652390Y1072458D01*
X-653475Y1073291D01*
X-654405Y1074542D01*
X-655025Y1076000D01*
X-655335Y1077667D01*
Y1079333D01*
X-655025Y1081000D01*
X-654405Y1082458D01*
X-653475Y1083708D01*
X-652390Y1084542D01*
X-651150Y1084750D01*
X-649910Y1084542D01*
X-648825Y1083708D01*
X-647895Y1082458D01*
X-647275Y1081000D01*
X-646965Y1079333D01*
Y1077667D01*
X-647275Y1076000D01*
X-647895Y1074542D01*
X-648825Y1073291D01*
X-649910Y1072458D01*
X-651150Y1072250D01*
G01X-649910Y1075583D02*
X-648050Y1072250D01*
G01X-638750Y1084750D02*
Y1072250D01*
G01X-642315Y1084750D02*
X-635185D01*
G01X-626350Y1072250D02*
Y1077875D01*
X-629450Y1084750D01*
G01X-623250D02*
X-626350Y1077875D01*
M02*
