G04 ================== begin FILE IDENTIFICATION RECORD ==================*
G04 Layout Name:  G:/2022/TEST/QIANG/07_IIC_UART_Hub/IIC_UART_Hub_V1.0.brd*
G04 Film Name:    silk_top*
G04 File Format:  Gerber RS274X*
G04 File Origin:  Cadence Allegro 17.2-061*
G04 Origin Date:  Fri Jun 24 10:23:06 2022*
G04 *
G04 Layer:  REF DES/SILKSCREEN_TOP*
G04 Layer:  PACKAGE GEOMETRY/SILKSCREEN_TOP*
G04 Layer:  BOARD GEOMETRY/SILKSCREEN_TOP*
G04 Layer:  BOARD GEOMETRY/OUTLINE*
G04 *
G04 Offset:    (0.00 0.00)*
G04 Mirror:    No*
G04 Mode:      Positive*
G04 Rotation:  0*
G04 FullContactRelief:  No*
G04 UndefLineWidth:     6.00*
G04 ================== end FILE IDENTIFICATION RECORD ====================*
%FSLAX25Y25*MOIN*%
%IR0*IPPOS*OFA0.00000B0.00000*MIA0B0*SFA1.00000B1.00000*%
%ADD10C,.01*%
%ADD11C,.005*%
%ADD12C,.006*%
%ADD13C,.0098*%
G75*
%LPD*%
G75*
G54D10*
G01X-1203862Y1054000D02*
G03I-500J0D01*
G01X-1201500Y1108500D02*
G03I-500J0D01*
G01Y1131000D02*
G03I-500J0D01*
G01X-1165000Y1108500D02*
G03I-500J0D01*
G01Y1131000D02*
G03I-500J0D01*
G01X-1140500Y1075500D02*
G03I-500J0D01*
G54D11*
G01X-1223000Y1141500D02*
X-1123500D01*
G02X-1118500Y1136500I0J-5000D01*
G01Y1037000D01*
G02X-1123500Y1032000I-5000J0D01*
G01X-1223000D01*
G02X-1228000Y1037000I0J5000D01*
G01Y1136500D01*
G02X-1223000Y1141500I5000J0D01*
G01X-1221017Y1045508D02*
X-1220616Y1045606D01*
X-1220315Y1045855D01*
X-1220113Y1046153D01*
X-1219961Y1046553D01*
X-1219908Y1047002D01*
X-1219956Y1047453D01*
X-1220104Y1047853D01*
X-1220302Y1048155D01*
X-1220600Y1048406D01*
X-1221000Y1048508D01*
X-1221400Y1048411D01*
X-1221702Y1048162D01*
X-1221904Y1047863D01*
X-1222056Y1047464D01*
X-1222108Y1047015D01*
X-1222061Y1046564D01*
X-1221913Y1046163D01*
X-1221715Y1045862D01*
X-1221416Y1045611D01*
X-1221017Y1045508D01*
G01X-1222050Y1040000D02*
X-1219950Y1043000D01*
G01X-1222050D02*
X-1219950Y1040000D01*
G01X-1222000Y1050500D02*
Y1053500D01*
X-1220750D01*
X-1220350Y1053350D01*
X-1220100Y1053150D01*
X-1220000Y1052750D01*
X-1220100Y1052350D01*
X-1220400Y1052100D01*
X-1220750Y1051950D01*
X-1222000D01*
G01X-1220750D02*
X-1220000Y1050500D01*
G01X-1218653Y1051000D02*
X-1207653D01*
Y1056000D01*
X-1218653D01*
Y1051000D01*
G01Y1045000D02*
X-1207653D01*
Y1050000D01*
X-1218653D01*
Y1045000D01*
G01X-1218650Y1056950D02*
X-1207650D01*
Y1061950D01*
X-1218650D01*
Y1056950D01*
G01X-1221500Y1066000D02*
Y1069000D01*
X-1222100Y1068400D01*
G01Y1066000D02*
X-1220900D01*
G01X-1218653Y1069000D02*
X-1207653D01*
Y1074000D01*
X-1218653D01*
Y1069000D01*
G01Y1075000D02*
X-1207653D01*
Y1080000D01*
X-1218653D01*
Y1075000D01*
G01X-1218650Y1062950D02*
X-1207650D01*
Y1067950D01*
X-1218650D01*
Y1062950D01*
G01X-1216500Y1103100D02*
X-1218650D01*
X-1219100Y1102900D01*
X-1219400Y1102500D01*
X-1219500Y1102000D01*
X-1219400Y1101500D01*
X-1219100Y1101100D01*
X-1218650Y1100900D01*
X-1216500D01*
G01X-1219500Y1099750D02*
X-1216500Y1098500D01*
X-1219500Y1097250D01*
G01X-1218450Y1097700D02*
Y1099300D01*
G01X-1219500Y1096000D02*
X-1216500D01*
Y1094750D01*
X-1216650Y1094350D01*
X-1216850Y1094100D01*
X-1217250Y1094000D01*
X-1217650Y1094100D01*
X-1217900Y1094400D01*
X-1218050Y1094750D01*
Y1096000D01*
G01Y1094750D02*
X-1219500Y1094000D01*
G01X-1216500Y1091500D02*
X-1219500D01*
G01X-1216500Y1092650D02*
Y1090350D01*
G01X-1221950Y1088000D02*
X-1221650Y1088300D01*
X-1221300Y1088450D01*
X-1220900Y1088500D01*
X-1220400Y1088400D01*
X-1220050Y1088150D01*
X-1219950Y1087850D01*
X-1220000Y1087550D01*
X-1220200Y1087300D01*
X-1221200Y1086800D01*
X-1221650Y1086450D01*
X-1221950Y1085950D01*
X-1222050Y1085500D01*
X-1219950D01*
G01X-1218650Y1080950D02*
X-1207650D01*
Y1085950D01*
X-1218650D01*
Y1080950D01*
G01X-1222100Y1106100D02*
X-1221800Y1105750D01*
X-1221400Y1105550D01*
X-1220950Y1105500D01*
X-1220550Y1105550D01*
X-1220150Y1105800D01*
X-1219900Y1106100D01*
X-1219850Y1106400D01*
X-1219950Y1106750D01*
X-1220300Y1107000D01*
X-1220650Y1107100D01*
X-1221100D01*
G01X-1220650D02*
X-1220350Y1107250D01*
X-1220100Y1107500D01*
X-1220000Y1107800D01*
X-1220100Y1108100D01*
X-1220350Y1108350D01*
X-1220800Y1108500D01*
X-1221250Y1108450D01*
X-1221700Y1108250D01*
G01X-1219849Y1129358D02*
X-1219142Y1130066D01*
X-1218505Y1129429D01*
Y1129005D01*
X-1218611Y1128616D01*
X-1218894Y1128192D01*
X-1219319Y1127909D01*
X-1219707Y1127803D01*
X-1220132D01*
X-1220521Y1127909D01*
X-1220874Y1128121D01*
X-1221122Y1128368D01*
X-1221263Y1128651D01*
X-1221369Y1129040D01*
Y1129465D01*
X-1221298Y1129818D01*
X-1221122Y1130207D01*
X-1220874Y1130454D01*
X-1220521Y1130667D01*
X-1220167Y1130737D01*
G01X-1217339Y1129747D02*
X-1219460Y1131869D01*
X-1215712Y1131374D01*
X-1217833Y1133495D01*
G01X-1214828Y1132258D02*
X-1216949Y1134379D01*
X-1216242Y1135086D01*
X-1215853Y1135263D01*
X-1215500Y1135334D01*
X-1215111Y1135298D01*
X-1214722Y1135192D01*
X-1214333Y1134874D01*
X-1214015Y1134485D01*
X-1213909Y1134096D01*
X-1213874Y1133707D01*
X-1213944Y1133354D01*
X-1214121Y1132965D01*
X-1214828Y1132258D01*
G01X-1222100Y1121100D02*
X-1221800Y1120750D01*
X-1221400Y1120550D01*
X-1220950Y1120500D01*
X-1220550Y1120550D01*
X-1220150Y1120800D01*
X-1219900Y1121100D01*
X-1219850Y1121400D01*
X-1219950Y1121750D01*
X-1220300Y1122000D01*
X-1220650Y1122100D01*
X-1221100D01*
G01X-1220650D02*
X-1220350Y1122250D01*
X-1220100Y1122500D01*
X-1220000Y1122800D01*
X-1220100Y1123100D01*
X-1220350Y1123350D01*
X-1220800Y1123500D01*
X-1221250Y1123450D01*
X-1221700Y1123250D01*
G01X-1218750Y1123500D02*
X-1217500Y1120500D01*
X-1216250Y1123500D01*
G01X-1215100Y1121100D02*
X-1214800Y1120750D01*
X-1214400Y1120550D01*
X-1213950Y1120500D01*
X-1213550Y1120550D01*
X-1213150Y1120800D01*
X-1212900Y1121100D01*
X-1212850Y1121400D01*
X-1212950Y1121750D01*
X-1213300Y1122000D01*
X-1213650Y1122100D01*
X-1214100D01*
G01X-1213650D02*
X-1213350Y1122250D01*
X-1213100Y1122500D01*
X-1213000Y1122800D01*
X-1213100Y1123100D01*
X-1213350Y1123350D01*
X-1213800Y1123500D01*
X-1214250Y1123450D01*
X-1214700Y1123250D01*
G01X-1211900Y1038000D02*
Y1041000D01*
X-1213750Y1038850D01*
X-1211250D01*
G01X-1177205Y1074161D02*
X-1202795D01*
Y1056839D01*
X-1177205D01*
Y1074161D01*
G01X-1206800Y1045000D02*
X-1195800D01*
Y1050000D01*
X-1206800D01*
Y1045000D01*
G01X-1183839Y1107343D02*
Y1087657D01*
X-1201161D01*
Y1105374D01*
X-1199193Y1107343D01*
X-1183839D01*
G01Y1129843D02*
Y1110157D01*
X-1201161D01*
Y1127874D01*
X-1199193Y1129843D01*
X-1183839D01*
G01X-1194600Y1133100D02*
X-1194300Y1132750D01*
X-1193900Y1132550D01*
X-1193450Y1132500D01*
X-1193050Y1132550D01*
X-1192650Y1132800D01*
X-1192400Y1133100D01*
X-1192350Y1133400D01*
X-1192450Y1133750D01*
X-1192800Y1134000D01*
X-1193150Y1134100D01*
X-1193600D01*
G01X-1193150D02*
X-1192850Y1134250D01*
X-1192600Y1134500D01*
X-1192500Y1134800D01*
X-1192600Y1135100D01*
X-1192850Y1135350D01*
X-1193300Y1135500D01*
X-1193750Y1135450D01*
X-1194200Y1135250D01*
G01X-1212100Y1133100D02*
X-1211800Y1132750D01*
X-1211400Y1132550D01*
X-1210950Y1132500D01*
X-1210550Y1132550D01*
X-1210150Y1132800D01*
X-1209900Y1133100D01*
X-1209850Y1133400D01*
X-1209950Y1133750D01*
X-1210300Y1134000D01*
X-1210650Y1134100D01*
X-1211100D01*
G01X-1210650D02*
X-1210350Y1134250D01*
X-1210100Y1134500D01*
X-1210000Y1134800D01*
X-1210100Y1135100D01*
X-1210350Y1135350D01*
X-1210800Y1135500D01*
X-1211250Y1135450D01*
X-1211700Y1135250D01*
G01X-1208750Y1135500D02*
X-1207500Y1132500D01*
X-1206250Y1135500D01*
G01X-1205100Y1133100D02*
X-1204800Y1132750D01*
X-1204400Y1132550D01*
X-1203950Y1132500D01*
X-1203550Y1132550D01*
X-1203150Y1132800D01*
X-1202900Y1133100D01*
X-1202850Y1133400D01*
X-1202950Y1133750D01*
X-1203300Y1134000D01*
X-1203650Y1134100D01*
X-1204100D01*
G01X-1203650D02*
X-1203350Y1134250D01*
X-1203100Y1134500D01*
X-1203000Y1134800D01*
X-1203100Y1135100D01*
X-1203350Y1135350D01*
X-1203800Y1135500D01*
X-1204250Y1135450D01*
X-1204700Y1135250D01*
G01X-1194100Y1038450D02*
X-1193800Y1038200D01*
X-1193450Y1038050D01*
X-1193000Y1038000D01*
X-1192550Y1038100D01*
X-1192200Y1038300D01*
X-1191950Y1038650D01*
X-1191900Y1039050D01*
X-1192000Y1039450D01*
X-1192250Y1039700D01*
X-1192600Y1039900D01*
X-1192950Y1039950D01*
X-1193300Y1039900D01*
X-1193750Y1039700D01*
X-1193600Y1041000D01*
X-1192250D01*
G01X-1182400Y1050000D02*
X-1193400D01*
Y1045000D01*
X-1182400D01*
Y1050000D01*
G01X-1173950Y1039250D02*
X-1173600Y1039600D01*
X-1173300Y1039800D01*
X-1172900Y1039900D01*
X-1172550Y1039800D01*
X-1172300Y1039600D01*
X-1172100Y1039300D01*
X-1172050Y1038950D01*
X-1172100Y1038650D01*
X-1172300Y1038350D01*
X-1172600Y1038100D01*
X-1172950Y1038000D01*
X-1173350Y1038100D01*
X-1173700Y1038400D01*
X-1173900Y1038850D01*
X-1173950Y1039350D01*
X-1173850Y1040000D01*
X-1173700Y1040350D01*
X-1173450Y1040700D01*
X-1173100Y1040950D01*
X-1172750Y1041000D01*
X-1172400Y1040900D01*
X-1172150Y1040650D01*
G01X-1167600Y1044000D02*
X-1166400D01*
G01X-1167000D02*
Y1041000D01*
G01X-1167600D02*
X-1166400D01*
G01X-1164450Y1043500D02*
X-1164150Y1043800D01*
X-1163800Y1043950D01*
X-1163400Y1044000D01*
X-1162900Y1043900D01*
X-1162550Y1043650D01*
X-1162450Y1043350D01*
X-1162500Y1043050D01*
X-1162700Y1042800D01*
X-1163700Y1042300D01*
X-1164150Y1041950D01*
X-1164450Y1041450D01*
X-1164550Y1041000D01*
X-1162450D01*
G01X-1158900Y1043750D02*
X-1159200Y1043900D01*
X-1159550Y1044000D01*
X-1159950D01*
X-1160400Y1043850D01*
X-1160750Y1043600D01*
X-1161000Y1043300D01*
X-1161200Y1042800D01*
X-1161250Y1042350D01*
X-1161150Y1041900D01*
X-1161000Y1041600D01*
X-1160700Y1041300D01*
X-1160350Y1041100D01*
X-1160000Y1041000D01*
X-1159650D01*
X-1159300Y1041100D01*
X-1159000Y1041250D01*
X-1158750Y1041450D01*
G01X-1143000Y1058000D02*
X-1174000D01*
Y1073000D01*
X-1143000D01*
Y1058000D01*
G01X-1147339Y1107343D02*
Y1087657D01*
X-1164661D01*
Y1105374D01*
X-1162693Y1107343D01*
X-1147339D01*
G01Y1129843D02*
Y1110157D01*
X-1164661D01*
Y1127874D01*
X-1162693Y1129843D01*
X-1147339D01*
G01X-1174450Y1135000D02*
X-1174150Y1135300D01*
X-1173800Y1135450D01*
X-1173400Y1135500D01*
X-1172900Y1135400D01*
X-1172550Y1135150D01*
X-1172450Y1134850D01*
X-1172500Y1134550D01*
X-1172700Y1134300D01*
X-1173700Y1133800D01*
X-1174150Y1133450D01*
X-1174450Y1132950D01*
X-1174550Y1132500D01*
X-1172450D01*
G01X-1153100Y1038000D02*
X-1153000Y1038650D01*
X-1152850Y1039200D01*
X-1152650Y1039700D01*
X-1152400Y1040250D01*
X-1152000Y1041000D01*
X-1154000D01*
G01X-1137050Y1038400D02*
X-1136650Y1038150D01*
X-1136200Y1038000D01*
X-1135800D01*
X-1135400Y1038150D01*
X-1135100Y1038400D01*
X-1134950Y1038750D01*
X-1135050Y1039100D01*
X-1135300Y1039400D01*
X-1135750Y1039600D01*
X-1136350Y1039700D01*
X-1136700Y1039900D01*
X-1136850Y1040250D01*
X-1136750Y1040600D01*
X-1136500Y1040850D01*
X-1136150Y1041000D01*
X-1135800D01*
X-1135450Y1040900D01*
X-1135150Y1040650D01*
G01X-1131400Y1040750D02*
X-1131700Y1040900D01*
X-1132050Y1041000D01*
X-1132450D01*
X-1132900Y1040850D01*
X-1133250Y1040600D01*
X-1133500Y1040300D01*
X-1133700Y1039800D01*
X-1133750Y1039350D01*
X-1133650Y1038900D01*
X-1133500Y1038600D01*
X-1133200Y1038300D01*
X-1132850Y1038100D01*
X-1132500Y1038000D01*
X-1132150D01*
X-1131800Y1038100D01*
X-1131500Y1038250D01*
X-1131250Y1038450D01*
G01X-1130000Y1041000D02*
Y1038000D01*
X-1128000D01*
G01X-1148550Y1038400D02*
X-1148150Y1038150D01*
X-1147700Y1038000D01*
X-1147300D01*
X-1146900Y1038150D01*
X-1146600Y1038400D01*
X-1146450Y1038750D01*
X-1146550Y1039100D01*
X-1146800Y1039400D01*
X-1147250Y1039600D01*
X-1147850Y1039700D01*
X-1148200Y1039900D01*
X-1148350Y1040250D01*
X-1148250Y1040600D01*
X-1148000Y1040850D01*
X-1147650Y1041000D01*
X-1147300D01*
X-1146950Y1040900D01*
X-1146650Y1040650D01*
G01X-1145100Y1038000D02*
Y1041000D01*
X-1144100D01*
X-1143700Y1040850D01*
X-1143400Y1040650D01*
X-1143150Y1040350D01*
X-1142950Y1040000D01*
X-1142900Y1039500D01*
X-1142950Y1039000D01*
X-1143150Y1038650D01*
X-1143400Y1038350D01*
X-1143700Y1038150D01*
X-1144100Y1038000D01*
X-1145100D01*
G01X-1141750D02*
X-1140500Y1041000D01*
X-1139250Y1038000D01*
G01X-1139700Y1039050D02*
X-1141300D01*
G01X-1127500Y1062000D02*
X-1138500D01*
Y1057000D01*
X-1127500D01*
Y1062000D01*
G01X-1128681Y1056000D02*
X-1137319D01*
G03X-1138500Y1054819I0J-1181D01*
G01Y1052181D01*
G03X-1137319Y1051000I1181J0D01*
G01X-1128681D01*
G03X-1127500Y1052181I0J1181D01*
G01Y1054819D01*
G03X-1128681Y1056000I-1181J0D01*
G01Y1050000D02*
X-1137319D01*
G03X-1138500Y1048819I0J-1181D01*
G01Y1046181D01*
G03X-1137319Y1045000I1181J0D01*
G01X-1128681D01*
G03X-1127500Y1046181I0J1181D01*
G01Y1048819D01*
G03X-1128681Y1050000I-1181J0D01*
G01X-1138500Y1063000D02*
X-1127500D01*
Y1068000D01*
X-1138500D01*
Y1063000D01*
G01Y1075000D02*
X-1127500D01*
Y1080000D01*
X-1138500D01*
Y1075000D01*
G01Y1069000D02*
X-1127500D01*
Y1074000D01*
X-1138500D01*
Y1069000D01*
G01Y1093000D02*
X-1127500D01*
Y1098000D01*
X-1138500D01*
Y1093000D01*
G01Y1087000D02*
X-1127500D01*
Y1092000D01*
X-1138500D01*
Y1087000D01*
G01Y1081000D02*
X-1127500D01*
Y1086000D01*
X-1138500D01*
Y1081000D01*
G01X-1153500Y1132500D02*
Y1135500D01*
X-1154100Y1134900D01*
G01Y1132500D02*
X-1152900D01*
G01X-1139500Y1136000D02*
Y1133000D01*
X-1137500D01*
G01X-1124000Y1039000D02*
X-1127000D01*
Y1040250D01*
X-1126850Y1040650D01*
X-1126650Y1040900D01*
X-1126250Y1041000D01*
X-1125850Y1040900D01*
X-1125600Y1040600D01*
X-1125450Y1040250D01*
Y1039000D01*
G01Y1040250D02*
X-1124000Y1041000D01*
G01Y1042450D02*
X-1127000Y1044550D01*
G01Y1042450D02*
X-1124000Y1044550D01*
G01X-1127000Y1049500D02*
X-1124000D01*
G01X-1127000Y1048350D02*
Y1050650D01*
G01X-1124000Y1051950D02*
X-1127000Y1054050D01*
G01Y1051950D02*
X-1124000Y1054050D01*
G01X-1125600Y1065000D02*
X-1125500Y1065650D01*
X-1125350Y1066200D01*
X-1125150Y1066700D01*
X-1124900Y1067250D01*
X-1124500Y1068000D01*
X-1126500D01*
G01X-1126450Y1086250D02*
X-1126100Y1086600D01*
X-1125800Y1086800D01*
X-1125400Y1086900D01*
X-1125050Y1086800D01*
X-1124800Y1086600D01*
X-1124600Y1086300D01*
X-1124550Y1085950D01*
X-1124600Y1085650D01*
X-1124800Y1085350D01*
X-1125100Y1085100D01*
X-1125450Y1085000D01*
X-1125850Y1085100D01*
X-1126200Y1085400D01*
X-1126400Y1085850D01*
X-1126450Y1086350D01*
X-1126350Y1087000D01*
X-1126200Y1087350D01*
X-1125950Y1087700D01*
X-1125600Y1087950D01*
X-1125250Y1088000D01*
X-1124900Y1087900D01*
X-1124650Y1087650D01*
G01X-1130000Y1110900D02*
X-1127850D01*
X-1127400Y1111100D01*
X-1127100Y1111500D01*
X-1127000Y1112000D01*
X-1127100Y1112500D01*
X-1127400Y1112900D01*
X-1127850Y1113100D01*
X-1130000D01*
G01X-1127000Y1114250D02*
X-1130000Y1115500D01*
X-1127000Y1116750D01*
G01X-1128050Y1116300D02*
Y1114700D01*
G01X-1127000Y1118000D02*
X-1130000D01*
Y1119250D01*
X-1129850Y1119650D01*
X-1129650Y1119900D01*
X-1129250Y1120000D01*
X-1128850Y1119900D01*
X-1128600Y1119600D01*
X-1128450Y1119250D01*
Y1118000D01*
G01Y1119250D02*
X-1127000Y1120000D01*
G01X-1130000Y1122500D02*
X-1127000D01*
G01X-1130000Y1121350D02*
Y1123650D01*
G01X-1126600Y1105950D02*
X-1126300Y1105700D01*
X-1125950Y1105550D01*
X-1125500Y1105500D01*
X-1125050Y1105600D01*
X-1124700Y1105800D01*
X-1124450Y1106150D01*
X-1124400Y1106550D01*
X-1124500Y1106950D01*
X-1124750Y1107200D01*
X-1125100Y1107400D01*
X-1125450Y1107450D01*
X-1125800Y1107400D01*
X-1126250Y1107200D01*
X-1126100Y1108500D01*
X-1124750D01*
G01X-1134000Y1135500D02*
X-1134400Y1135400D01*
X-1134700Y1135150D01*
X-1134900Y1134850D01*
X-1135050Y1134450D01*
X-1135100Y1134000D01*
X-1135050Y1133550D01*
X-1134900Y1133150D01*
X-1134700Y1132850D01*
X-1134400Y1132600D01*
X-1134000Y1132500D01*
X-1133600Y1132600D01*
X-1133300Y1132850D01*
X-1133100Y1133150D01*
X-1132950Y1133550D01*
X-1132900Y1134000D01*
X-1132950Y1134450D01*
X-1133100Y1134850D01*
X-1133300Y1135150D01*
X-1133600Y1135400D01*
X-1134000Y1135500D01*
G01X-1124900Y1124500D02*
Y1127500D01*
X-1126750Y1125350D01*
X-1124250D01*
G01X-1129750Y1132500D02*
X-1128500Y1135500D01*
X-1127250Y1132500D01*
G01X-1127700Y1133550D02*
X-1129300D01*
G54D12*
G01X-2176670Y918940D02*
Y910940D01*
X-2172670D01*
G01X-2169170D02*
X-2166670Y918940D01*
X-2164170Y910940D01*
G01X-2165070Y913740D02*
X-2168270D01*
G01X-2158670Y910940D02*
Y914540D01*
X-2160670Y918940D01*
G01X-2156670D02*
X-2158670Y914540D01*
G01X-2148670Y910940D02*
X-2152670D01*
Y918940D01*
X-2148670D01*
G01X-2150270Y915073D02*
X-2152670D01*
G01X-2144670Y910940D02*
Y918940D01*
X-2142170D01*
X-2141370Y918540D01*
X-2140870Y918007D01*
X-2140670Y916940D01*
X-2140870Y915873D01*
X-2141470Y915207D01*
X-2142170Y914807D01*
X-2144670D01*
G01X-2142170D02*
X-2140670Y910940D01*
G01X-2128570Y917607D02*
X-2127970Y918407D01*
X-2127270Y918807D01*
X-2126470Y918940D01*
X-2125470Y918673D01*
X-2124770Y918007D01*
X-2124570Y917207D01*
X-2124670Y916406D01*
X-2125070Y915740D01*
X-2127070Y914407D01*
X-2127970Y913473D01*
X-2128570Y912140D01*
X-2128770Y910940D01*
X-2124570D01*
G01X-2111970Y913607D02*
X-2109370D01*
G01X-2096770Y912006D02*
X-2095970Y911340D01*
X-2095070Y910940D01*
X-2094270D01*
X-2093470Y911340D01*
X-2092870Y912006D01*
X-2092570Y912940D01*
X-2092770Y913873D01*
X-2093270Y914673D01*
X-2094170Y915207D01*
X-2095370Y915473D01*
X-2096070Y916007D01*
X-2096370Y916940D01*
X-2096170Y917873D01*
X-2095670Y918540D01*
X-2094970Y918940D01*
X-2094270D01*
X-2093570Y918673D01*
X-2092970Y918007D01*
G01X-2084670Y910940D02*
X-2088670D01*
Y918940D01*
X-2084670D01*
G01X-2086270Y915073D02*
X-2088670D01*
G01X-2076470Y918273D02*
X-2077070Y918673D01*
X-2077770Y918940D01*
X-2078570D01*
X-2079470Y918540D01*
X-2080170Y917873D01*
X-2080670Y917073D01*
X-2081070Y915740D01*
X-2081170Y914540D01*
X-2080970Y913340D01*
X-2080670Y912540D01*
X-2080070Y911740D01*
X-2079370Y911207D01*
X-2078670Y910940D01*
X-2077970D01*
X-2077270Y911207D01*
X-2076670Y911607D01*
X-2076170Y912140D01*
G01X-2070670Y910940D02*
X-2071470Y911073D01*
X-2072170Y911607D01*
X-2072770Y912407D01*
X-2073170Y913340D01*
X-2073370Y914407D01*
Y915473D01*
X-2073170Y916540D01*
X-2072770Y917473D01*
X-2072170Y918273D01*
X-2071470Y918807D01*
X-2070670Y918940D01*
X-2069870Y918807D01*
X-2069170Y918273D01*
X-2068570Y917473D01*
X-2068170Y916540D01*
X-2067970Y915473D01*
Y914407D01*
X-2068170Y913340D01*
X-2068570Y912407D01*
X-2069170Y911607D01*
X-2069870Y911073D01*
X-2070670Y910940D01*
G01X-2064970D02*
Y918940D01*
X-2060370Y910940D01*
Y918940D01*
G01X-2056870Y910940D02*
Y918940D01*
X-2054870D01*
X-2054070Y918540D01*
X-2053470Y918007D01*
X-2052970Y917207D01*
X-2052570Y916273D01*
X-2052470Y914940D01*
X-2052570Y913607D01*
X-2052970Y912673D01*
X-2053470Y911873D01*
X-2054070Y911340D01*
X-2054870Y910940D01*
X-2056870D01*
G01X-2049170D02*
X-2046670Y918940D01*
X-2044170Y910940D01*
G01X-2045070Y913740D02*
X-2048270D01*
G01X-2040670Y910940D02*
Y918940D01*
X-2038170D01*
X-2037370Y918540D01*
X-2036870Y918007D01*
X-2036670Y916940D01*
X-2036870Y915873D01*
X-2037470Y915207D01*
X-2038170Y914807D01*
X-2040670D01*
G01X-2038170D02*
X-2036670Y910940D01*
G01X-2030670D02*
Y914540D01*
X-2032670Y918940D01*
G01X-2028670D02*
X-2030670Y914540D01*
G01X-2016770Y912006D02*
X-2015970Y911340D01*
X-2015070Y910940D01*
X-2014270D01*
X-2013470Y911340D01*
X-2012870Y912006D01*
X-2012570Y912940D01*
X-2012770Y913873D01*
X-2013270Y914673D01*
X-2014170Y915207D01*
X-2015370Y915473D01*
X-2016070Y916007D01*
X-2016370Y916940D01*
X-2016170Y917873D01*
X-2015670Y918540D01*
X-2014970Y918940D01*
X-2014270D01*
X-2013570Y918673D01*
X-2012970Y918007D01*
G01X-2007870Y918940D02*
X-2005470D01*
G01X-2006670D02*
Y910940D01*
G01X-2007870D02*
X-2005470D01*
G01X-2000870D02*
Y918940D01*
X-1998870D01*
X-1998070Y918540D01*
X-1997470Y918007D01*
X-1996970Y917207D01*
X-1996570Y916273D01*
X-1996470Y914940D01*
X-1996570Y913607D01*
X-1996970Y912673D01*
X-1997470Y911873D01*
X-1998070Y911340D01*
X-1998870Y910940D01*
X-2000870D01*
G01X-1988670D02*
X-1992670D01*
Y918940D01*
X-1988670D01*
G01X-1990270Y915073D02*
X-1992670D01*
G01X-1975970Y913607D02*
X-1973370D01*
G01X-1960770Y912006D02*
X-1959970Y911340D01*
X-1959070Y910940D01*
X-1958270D01*
X-1957470Y911340D01*
X-1956870Y912006D01*
X-1956570Y912940D01*
X-1956770Y913873D01*
X-1957270Y914673D01*
X-1958170Y915207D01*
X-1959370Y915473D01*
X-1960070Y916007D01*
X-1960370Y916940D01*
X-1960170Y917873D01*
X-1959670Y918540D01*
X-1958970Y918940D01*
X-1958270D01*
X-1957570Y918673D01*
X-1956970Y918007D01*
G01X-1951870Y918940D02*
X-1949470D01*
G01X-1950670D02*
Y910940D01*
G01X-1951870D02*
X-1949470D01*
G01X-1942070Y914940D02*
X-1940070D01*
Y912540D01*
X-1940670Y911740D01*
X-1941370Y911207D01*
X-1942370Y910940D01*
X-1943370Y911207D01*
X-1944070Y911740D01*
X-1944670Y912540D01*
X-1945070Y913473D01*
X-1945270Y914540D01*
Y915473D01*
X-1945070Y916273D01*
X-1944670Y917207D01*
X-1944070Y918007D01*
X-1943470Y918540D01*
X-1942670Y918940D01*
X-1941970D01*
X-1941170Y918673D01*
X-1940570Y918140D01*
G01X-1936970Y910940D02*
Y918940D01*
X-1932370Y910940D01*
Y918940D01*
G01X-1929170Y910940D02*
X-1926670Y918940D01*
X-1924170Y910940D01*
G01X-1925070Y913740D02*
X-1928270D01*
G01X-1920670Y918940D02*
Y910940D01*
X-1916670D01*
G01X-2176100Y939920D02*
Y931920D01*
X-2172100D01*
G01X-2168600D02*
X-2166100Y939920D01*
X-2163600Y931920D01*
G01X-2164500Y934720D02*
X-2167700D01*
G01X-2158100Y931920D02*
Y935520D01*
X-2160100Y939920D01*
G01X-2156100D02*
X-2158100Y935520D01*
G01X-2148100Y931920D02*
X-2152100D01*
Y939920D01*
X-2148100D01*
G01X-2149700Y936053D02*
X-2152100D01*
G01X-2144100Y931920D02*
Y939920D01*
X-2141600D01*
X-2140800Y939520D01*
X-2140300Y938987D01*
X-2140100Y937920D01*
X-2140300Y936853D01*
X-2140900Y936187D01*
X-2141600Y935787D01*
X-2144100D01*
G01X-2141600D02*
X-2140100Y931920D01*
G01X-2126100D02*
Y939920D01*
X-2127300Y938320D01*
G01Y931920D02*
X-2124900D01*
G01X-2111400Y934587D02*
X-2108800D01*
G01X-2096100Y931920D02*
Y939920D01*
X-2093700D01*
X-2092900Y939520D01*
X-2092300Y938587D01*
X-2092100Y937520D01*
X-2092300Y936453D01*
X-2092800Y935653D01*
X-2093700Y935253D01*
X-2096100D01*
G01X-2088100Y931920D02*
Y939920D01*
X-2085600D01*
X-2084800Y939520D01*
X-2084300Y938987D01*
X-2084100Y937920D01*
X-2084300Y936853D01*
X-2084900Y936187D01*
X-2085600Y935787D01*
X-2088100D01*
G01X-2085600D02*
X-2084100Y931920D01*
G01X-2079300Y939920D02*
X-2076900D01*
G01X-2078100D02*
Y931920D01*
G01X-2079300D02*
X-2076900D01*
G01X-2072700D02*
Y939920D01*
X-2070100Y933253D01*
X-2067500Y939920D01*
Y931920D01*
G01X-2064600D02*
X-2062100Y939920D01*
X-2059600Y931920D01*
G01X-2060500Y934720D02*
X-2063700D01*
G01X-2056100Y931920D02*
Y939920D01*
X-2053600D01*
X-2052800Y939520D01*
X-2052300Y938987D01*
X-2052100Y937920D01*
X-2052300Y936853D01*
X-2052900Y936187D01*
X-2053600Y935787D01*
X-2056100D01*
G01X-2053600D02*
X-2052100Y931920D01*
G01X-2046100D02*
Y935520D01*
X-2048100Y939920D01*
G01X-2044100D02*
X-2046100Y935520D01*
G01X-2032200Y932986D02*
X-2031400Y932320D01*
X-2030500Y931920D01*
X-2029700D01*
X-2028900Y932320D01*
X-2028300Y932986D01*
X-2028000Y933920D01*
X-2028200Y934853D01*
X-2028700Y935653D01*
X-2029600Y936187D01*
X-2030800Y936453D01*
X-2031500Y936987D01*
X-2031800Y937920D01*
X-2031600Y938853D01*
X-2031100Y939520D01*
X-2030400Y939920D01*
X-2029700D01*
X-2029000Y939653D01*
X-2028400Y938987D01*
G01X-2023300Y939920D02*
X-2020900D01*
G01X-2022100D02*
Y931920D01*
G01X-2023300D02*
X-2020900D01*
G01X-2016300D02*
Y939920D01*
X-2014300D01*
X-2013500Y939520D01*
X-2012900Y938987D01*
X-2012400Y938187D01*
X-2012000Y937253D01*
X-2011900Y935920D01*
X-2012000Y934587D01*
X-2012400Y933653D01*
X-2012900Y932853D01*
X-2013500Y932320D01*
X-2014300Y931920D01*
X-2016300D01*
G01X-2004100D02*
X-2008100D01*
Y939920D01*
X-2004100D01*
G01X-2005700Y936053D02*
X-2008100D01*
G01X-1991400Y934587D02*
X-1988800D01*
G01X-1976200Y932986D02*
X-1975400Y932320D01*
X-1974500Y931920D01*
X-1973700D01*
X-1972900Y932320D01*
X-1972300Y932986D01*
X-1972000Y933920D01*
X-1972200Y934853D01*
X-1972700Y935653D01*
X-1973600Y936187D01*
X-1974800Y936453D01*
X-1975500Y936987D01*
X-1975800Y937920D01*
X-1975600Y938853D01*
X-1975100Y939520D01*
X-1974400Y939920D01*
X-1973700D01*
X-1973000Y939653D01*
X-1972400Y938987D01*
G01X-1967300Y939920D02*
X-1964900D01*
G01X-1966100D02*
Y931920D01*
G01X-1967300D02*
X-1964900D01*
G01X-1957500Y935920D02*
X-1955500D01*
Y933520D01*
X-1956100Y932720D01*
X-1956800Y932187D01*
X-1957800Y931920D01*
X-1958800Y932187D01*
X-1959500Y932720D01*
X-1960100Y933520D01*
X-1960500Y934453D01*
X-1960700Y935520D01*
Y936453D01*
X-1960500Y937253D01*
X-1960100Y938187D01*
X-1959500Y938987D01*
X-1958900Y939520D01*
X-1958100Y939920D01*
X-1957400D01*
X-1956600Y939653D01*
X-1956000Y939120D01*
G01X-1952400Y931920D02*
Y939920D01*
X-1947800Y931920D01*
Y939920D01*
G01X-1944600Y931920D02*
X-1942100Y939920D01*
X-1939600Y931920D01*
G01X-1940500Y934720D02*
X-1943700D01*
G01X-1936100Y939920D02*
Y931920D01*
X-1932100D01*
G01X-2170437Y1060400D02*
Y1042900D01*
X-2161703D01*
G01X-2154029D02*
X-2148570Y1060400D01*
X-2143111Y1042900D01*
G01X-2145077Y1049025D02*
X-2152064D01*
G01X-2131070Y1042900D02*
Y1050775D01*
X-2135437Y1060400D01*
G01X-2126703D02*
X-2131070Y1050775D01*
G01X-2109203Y1042900D02*
X-2117937D01*
Y1060400D01*
X-2109203D01*
G01X-2112697Y1051942D02*
X-2117937D01*
G01X-2100437Y1042900D02*
Y1060400D01*
X-2094978D01*
X-2093232Y1059525D01*
X-2092140Y1058358D01*
X-2091703Y1056025D01*
X-2092140Y1053691D01*
X-2093450Y1052233D01*
X-2094978Y1051358D01*
X-2100437D01*
G01X-2094978D02*
X-2091703Y1042900D01*
G01X-2065655Y1045233D02*
X-2063908Y1043775D01*
X-2061943Y1042900D01*
X-2060197D01*
X-2058450Y1043775D01*
X-2057140Y1045233D01*
X-2056485Y1047275D01*
X-2056922Y1049316D01*
X-2058013Y1051067D01*
X-2059978Y1052233D01*
X-2062598Y1052817D01*
X-2064127Y1053983D01*
X-2064782Y1056025D01*
X-2064345Y1058067D01*
X-2063253Y1059525D01*
X-2061725Y1060400D01*
X-2060197D01*
X-2058668Y1059817D01*
X-2057358Y1058358D01*
G01X-2043570Y1060400D02*
Y1042900D01*
G01X-2048592Y1060400D02*
X-2038548D01*
G01X-2031529Y1042900D02*
X-2026070Y1060400D01*
X-2020611Y1042900D01*
G01X-2022577Y1049025D02*
X-2029564D01*
G01X-2003767Y1058941D02*
X-2005077Y1059817D01*
X-2006605Y1060400D01*
X-2008352D01*
X-2010317Y1059525D01*
X-2011845Y1058067D01*
X-2012937Y1056316D01*
X-2013810Y1053400D01*
X-2014029Y1050775D01*
X-2013592Y1048150D01*
X-2012937Y1046400D01*
X-2011627Y1044650D01*
X-2010098Y1043483D01*
X-2008570Y1042900D01*
X-2007042D01*
X-2005513Y1043483D01*
X-2004203Y1044358D01*
X-2003111Y1045524D01*
G01X-1995873Y1042900D02*
Y1060400D01*
G01X-1987577D02*
X-1995873Y1049608D01*
G01X-1986267Y1042900D02*
X-1992162Y1054566D01*
G01X-1976408Y1048733D02*
X-1970732D01*
G01X-1960873Y1060400D02*
Y1047858D01*
X-1960000Y1045233D01*
X-1958253Y1043483D01*
X-1956070Y1042900D01*
X-1953887Y1043483D01*
X-1952140Y1045233D01*
X-1951267Y1047858D01*
Y1060400D01*
G01X-1942937Y1042900D02*
Y1060400D01*
X-1937697D01*
X-1935950Y1059525D01*
X-1934640Y1057483D01*
X-1934203Y1055150D01*
X-1934640Y1052817D01*
X-1935732Y1051067D01*
X-1937697Y1050191D01*
X-1942937D01*
G01X-1906408Y1048733D02*
X-1900732D01*
G01X-1874029Y1042900D02*
X-1868570Y1060400D01*
X-1863111Y1042900D01*
G01X-1865077Y1049025D02*
X-1872064D01*
G01X-1855437Y1060400D02*
Y1042900D01*
X-1846703D01*
G01X-1837937Y1060400D02*
Y1042900D01*
X-1829203D01*
G01X-1803373D02*
Y1060400D01*
X-1799007D01*
X-1797260Y1059525D01*
X-1795950Y1058358D01*
X-1794858Y1056609D01*
X-1793985Y1054566D01*
X-1793767Y1051650D01*
X-1793985Y1048733D01*
X-1794858Y1046691D01*
X-1795950Y1044941D01*
X-1797260Y1043775D01*
X-1799007Y1042900D01*
X-1803373D01*
G01X-1783690Y1060400D02*
X-1778450D01*
G01X-1781070D02*
Y1042900D01*
G01X-1783690D02*
X-1778450D01*
G01X-1769247D02*
Y1060400D01*
X-1763570Y1045817D01*
X-1757893Y1060400D01*
Y1042900D01*
G01X-1741703D02*
X-1750437D01*
Y1060400D01*
X-1741703D01*
G01X-1745197Y1051942D02*
X-1750437D01*
G01X-1733592Y1042900D02*
Y1060400D01*
X-1723548Y1042900D01*
Y1060400D01*
G01X-1715655Y1045233D02*
X-1713908Y1043775D01*
X-1711943Y1042900D01*
X-1710197D01*
X-1708450Y1043775D01*
X-1707140Y1045233D01*
X-1706485Y1047275D01*
X-1706922Y1049316D01*
X-1708013Y1051067D01*
X-1709978Y1052233D01*
X-1712598Y1052817D01*
X-1714127Y1053983D01*
X-1714782Y1056025D01*
X-1714345Y1058067D01*
X-1713253Y1059525D01*
X-1711725Y1060400D01*
X-1710197D01*
X-1708668Y1059817D01*
X-1707358Y1058358D01*
G01X-1696190Y1060400D02*
X-1690950D01*
G01X-1693570D02*
Y1042900D01*
G01X-1696190D02*
X-1690950D01*
G01X-1676070D02*
X-1677817Y1043192D01*
X-1679345Y1044358D01*
X-1680655Y1046108D01*
X-1681529Y1048150D01*
X-1681965Y1050483D01*
Y1052817D01*
X-1681529Y1055150D01*
X-1680655Y1057192D01*
X-1679345Y1058941D01*
X-1677817Y1060108D01*
X-1676070Y1060400D01*
X-1674324Y1060108D01*
X-1672795Y1058941D01*
X-1671485Y1057192D01*
X-1670611Y1055150D01*
X-1670175Y1052817D01*
Y1050483D01*
X-1670611Y1048150D01*
X-1671485Y1046108D01*
X-1672795Y1044358D01*
X-1674324Y1043192D01*
X-1676070Y1042900D01*
G01X-1663592D02*
Y1060400D01*
X-1653548Y1042900D01*
Y1060400D01*
G01X-1645655Y1045233D02*
X-1643908Y1043775D01*
X-1641943Y1042900D01*
X-1640197D01*
X-1638450Y1043775D01*
X-1637140Y1045233D01*
X-1636485Y1047275D01*
X-1636922Y1049316D01*
X-1638013Y1051067D01*
X-1639978Y1052233D01*
X-1642598Y1052817D01*
X-1644127Y1053983D01*
X-1644782Y1056025D01*
X-1644345Y1058067D01*
X-1643253Y1059525D01*
X-1641725Y1060400D01*
X-1640197D01*
X-1638668Y1059817D01*
X-1637358Y1058358D01*
G01X-1608690Y1060400D02*
X-1603450D01*
G01X-1606070D02*
Y1042900D01*
G01X-1608690D02*
X-1603450D01*
G01X-1593592D02*
Y1060400D01*
X-1583548Y1042900D01*
Y1060400D01*
G01X-1556190D02*
X-1550950D01*
G01X-1553570D02*
Y1042900D01*
G01X-1556190D02*
X-1550950D01*
G01X-1541092D02*
Y1060400D01*
X-1531048Y1042900D01*
Y1060400D01*
G01X-1513767Y1058941D02*
X-1515077Y1059817D01*
X-1516605Y1060400D01*
X-1518352D01*
X-1520317Y1059525D01*
X-1521845Y1058067D01*
X-1522937Y1056316D01*
X-1523810Y1053400D01*
X-1524029Y1050775D01*
X-1523592Y1048150D01*
X-1522937Y1046400D01*
X-1521627Y1044650D01*
X-1520098Y1043483D01*
X-1518570Y1042900D01*
X-1517042D01*
X-1515513Y1043483D01*
X-1514203Y1044358D01*
X-1513111Y1045524D01*
G01X-1505655Y1042900D02*
Y1060400D01*
G01X-1496485D02*
Y1042900D01*
G01Y1051650D02*
X-1505655D01*
G01X-1479203Y1042900D02*
X-1487937D01*
Y1060400D01*
X-1479203D01*
G01X-1482697Y1051942D02*
X-1487937D01*
G01X-1470655Y1045233D02*
X-1468908Y1043775D01*
X-1466943Y1042900D01*
X-1465197D01*
X-1463450Y1043775D01*
X-1462140Y1045233D01*
X-1461485Y1047275D01*
X-1461922Y1049316D01*
X-1463013Y1051067D01*
X-1464978Y1052233D01*
X-1467598Y1052817D01*
X-1469127Y1053983D01*
X-1469782Y1056025D01*
X-1469345Y1058067D01*
X-1468253Y1059525D01*
X-1466725Y1060400D01*
X-1465197D01*
X-1463668Y1059817D01*
X-1462358Y1058358D01*
G01X-2076100Y969920D02*
Y961920D01*
X-2072100D01*
G01X-2068600D02*
X-2066100Y969920D01*
X-2063600Y961920D01*
G01X-2064500Y964720D02*
X-2067700D01*
G01X-2058100Y961920D02*
Y965520D01*
X-2060100Y969920D01*
G01X-2056100D02*
X-2058100Y965520D01*
G01X-2048100Y961920D02*
X-2052100D01*
Y969920D01*
X-2048100D01*
G01X-2049700Y966053D02*
X-2052100D01*
G01X-2044100Y961920D02*
Y969920D01*
X-2041600D01*
X-2040800Y969520D01*
X-2040300Y968987D01*
X-2040100Y967920D01*
X-2040300Y966853D01*
X-2040900Y966187D01*
X-2041600Y965787D01*
X-2044100D01*
G01X-2041600D02*
X-2040100Y961920D01*
G01X-2036100Y959253D02*
X-2034100Y969920D01*
G01X-2032100D02*
X-2034100Y959253D01*
G01X-2037100Y963253D02*
X-2031100D01*
G01Y965920D02*
X-2037100D01*
G01X-1901930Y975763D02*
X-1902530Y976163D01*
X-1903230Y976430D01*
X-1904030D01*
X-1904930Y976030D01*
X-1905630Y975363D01*
X-1906130Y974563D01*
X-1906530Y973230D01*
X-1906630Y972030D01*
X-1906430Y970830D01*
X-1906130Y970030D01*
X-1905530Y969230D01*
X-1904830Y968697D01*
X-1904130Y968430D01*
X-1903430D01*
X-1902730Y968697D01*
X-1902130Y969097D01*
X-1901630Y969630D01*
G01X-1896130Y968430D02*
X-1896930Y968563D01*
X-1897630Y969097D01*
X-1898230Y969897D01*
X-1898630Y970830D01*
X-1898830Y971897D01*
Y972963D01*
X-1898630Y974030D01*
X-1898230Y974963D01*
X-1897630Y975763D01*
X-1896930Y976297D01*
X-1896130Y976430D01*
X-1895330Y976297D01*
X-1894630Y975763D01*
X-1894030Y974963D01*
X-1893630Y974030D01*
X-1893430Y972963D01*
Y971897D01*
X-1893630Y970830D01*
X-1894030Y969897D01*
X-1894630Y969097D01*
X-1895330Y968563D01*
X-1896130Y968430D01*
G01X-1890130D02*
Y976430D01*
X-1887730D01*
X-1886930Y976030D01*
X-1886330Y975097D01*
X-1886130Y974030D01*
X-1886330Y972963D01*
X-1886830Y972163D01*
X-1887730Y971763D01*
X-1890130D01*
G01X-1882130Y968430D02*
Y976430D01*
X-1879730D01*
X-1878930Y976030D01*
X-1878330Y975097D01*
X-1878130Y974030D01*
X-1878330Y972963D01*
X-1878830Y972163D01*
X-1879730Y971763D01*
X-1882130D01*
G01X-1870130Y968430D02*
X-1874130D01*
Y976430D01*
X-1870130D01*
G01X-1871730Y972563D02*
X-1874130D01*
G01X-1866130Y968430D02*
Y976430D01*
X-1863630D01*
X-1862830Y976030D01*
X-1862330Y975497D01*
X-1862130Y974430D01*
X-1862330Y973363D01*
X-1862930Y972697D01*
X-1863630Y972297D01*
X-1866130D01*
G01X-1863630D02*
X-1862130Y968430D01*
G01X-1851130Y976430D02*
X-1849730Y968430D01*
X-1848130Y976430D01*
X-1846530Y968430D01*
X-1845130Y976430D01*
G01X-1838130Y968430D02*
X-1842130D01*
Y976430D01*
X-1838130D01*
G01X-1839730Y972563D02*
X-1842130D01*
G01X-1833330Y976430D02*
X-1830930D01*
G01X-1832130D02*
Y968430D01*
G01X-1833330D02*
X-1830930D01*
G01X-1823530Y972430D02*
X-1821530D01*
Y970030D01*
X-1822130Y969230D01*
X-1822830Y968697D01*
X-1823830Y968430D01*
X-1824830Y968697D01*
X-1825530Y969230D01*
X-1826130Y970030D01*
X-1826530Y970963D01*
X-1826730Y972030D01*
Y972963D01*
X-1826530Y973763D01*
X-1826130Y974697D01*
X-1825530Y975497D01*
X-1824930Y976030D01*
X-1824130Y976430D01*
X-1823430D01*
X-1822630Y976163D01*
X-1822030Y975630D01*
G01X-1818230Y968430D02*
Y976430D01*
G01X-1814030D02*
Y968430D01*
G01Y972430D02*
X-1818230D01*
G01X-1808130Y976430D02*
Y968430D01*
G01X-1810430Y976430D02*
X-1805830D01*
G01X-1903970Y914540D02*
Y922540D01*
G01X-1899770D02*
Y914540D01*
G01Y918540D02*
X-1903970D01*
G01X-1896370Y914540D02*
X-1893870Y922540D01*
X-1891370Y914540D01*
G01X-1892270Y917340D02*
X-1895470D01*
G01X-1887870Y922540D02*
Y914540D01*
X-1883870D01*
G01X-1879770D02*
Y922540D01*
X-1875970D01*
G01X-1877370Y918673D02*
X-1879770D01*
G01X-1870970Y917207D02*
X-1868570D01*
G01X-1869870Y918940D02*
Y915473D01*
G01X-1863870Y914540D02*
Y922540D01*
X-1861470D01*
X-1860670Y922140D01*
X-1860070Y921207D01*
X-1859870Y920140D01*
X-1860070Y919073D01*
X-1860570Y918273D01*
X-1861470Y917873D01*
X-1863870D01*
G01X-1855870Y922540D02*
Y914540D01*
X-1851870D01*
G01X-1848370D02*
X-1845870Y922540D01*
X-1843370Y914540D01*
G01X-1844270Y917340D02*
X-1847470D01*
G01X-1837870Y922540D02*
Y914540D01*
G01X-1840170Y922540D02*
X-1835570D01*
G01X-1831070D02*
X-1828670D01*
G01X-1829870D02*
Y914540D01*
G01X-1831070D02*
X-1828670D01*
G01X-1824170D02*
Y922540D01*
X-1819570Y914540D01*
Y922540D01*
G01X-1813270Y918540D02*
X-1811270D01*
Y916140D01*
X-1811870Y915340D01*
X-1812570Y914807D01*
X-1813570Y914540D01*
X-1814570Y914807D01*
X-1815270Y915340D01*
X-1815870Y916140D01*
X-1816270Y917073D01*
X-1816470Y918140D01*
Y919073D01*
X-1816270Y919873D01*
X-1815870Y920807D01*
X-1815270Y921607D01*
X-1814670Y922140D01*
X-1813870Y922540D01*
X-1813170D01*
X-1812370Y922273D01*
X-1811770Y921740D01*
G01X-1903200Y940920D02*
Y948920D01*
G01X-1899000D02*
Y940920D01*
G01Y944920D02*
X-1903200D01*
G01X-1895600Y940920D02*
X-1893100Y948920D01*
X-1890600Y940920D01*
G01X-1891500Y943720D02*
X-1894700D01*
G01X-1887100Y948920D02*
Y940920D01*
X-1883100D01*
G01X-1879000D02*
Y948920D01*
X-1875200D01*
G01X-1876600Y945053D02*
X-1879000D01*
G01X-1870200Y943587D02*
X-1867800D01*
G01X-1869100Y945320D02*
Y941853D01*
G01X-1863100Y940920D02*
Y948920D01*
X-1860700D01*
X-1859900Y948520D01*
X-1859300Y947587D01*
X-1859100Y946520D01*
X-1859300Y945453D01*
X-1859800Y944653D01*
X-1860700Y944253D01*
X-1863100D01*
G01X-1855100Y948920D02*
Y940920D01*
X-1851100D01*
G01X-1847600D02*
X-1845100Y948920D01*
X-1842600Y940920D01*
G01X-1843500Y943720D02*
X-1846700D01*
G01X-1837100Y948920D02*
Y940920D01*
G01X-1839400Y948920D02*
X-1834800D01*
G01X-1830300D02*
X-1827900D01*
G01X-1829100D02*
Y940920D01*
G01X-1830300D02*
X-1827900D01*
G01X-1823400D02*
Y948920D01*
X-1818800Y940920D01*
Y948920D01*
G01X-1812500Y944920D02*
X-1810500D01*
Y942520D01*
X-1811100Y941720D01*
X-1811800Y941187D01*
X-1812800Y940920D01*
X-1813800Y941187D01*
X-1814500Y941720D01*
X-1815100Y942520D01*
X-1815500Y943453D01*
X-1815700Y944520D01*
Y945453D01*
X-1815500Y946253D01*
X-1815100Y947187D01*
X-1814500Y947987D01*
X-1813900Y948520D01*
X-1813100Y948920D01*
X-1812400D01*
X-1811600Y948653D01*
X-1811000Y948120D01*
G01X-1875000Y954333D02*
X-1876000Y955667D01*
X-1876500Y957000D01*
Y962333D01*
X-1876000Y963667D01*
X-1875000Y965000D01*
G01X-1866500Y957000D02*
X-1867300Y957133D01*
X-1868000Y957667D01*
X-1868600Y958467D01*
X-1869000Y959400D01*
X-1869200Y960467D01*
Y961533D01*
X-1869000Y962600D01*
X-1868600Y963533D01*
X-1868000Y964333D01*
X-1867300Y964867D01*
X-1866500Y965000D01*
X-1865700Y964867D01*
X-1865000Y964333D01*
X-1864400Y963533D01*
X-1864000Y962600D01*
X-1863800Y961533D01*
Y960467D01*
X-1864000Y959400D01*
X-1864400Y958467D01*
X-1865000Y957667D01*
X-1865700Y957133D01*
X-1866500Y957000D01*
G01X-1860400Y965000D02*
X-1856600D01*
X-1860400Y957000D01*
X-1856600D01*
G01X-1850000Y954333D02*
X-1849000Y955667D01*
X-1848500Y957000D01*
Y962333D01*
X-1849000Y963667D01*
X-1850000Y965000D01*
G01X-1861250Y904600D02*
Y914600D01*
X-1862750Y912600D01*
G01Y904600D02*
X-1859750D01*
G01X-1862250Y928300D02*
Y938300D01*
X-1863750Y936300D01*
G01Y928300D02*
X-1860750D01*
G01X-1792570Y993107D02*
X-1790170D01*
G01X-1791470Y994840D02*
Y991373D01*
G01X-1785270Y990173D02*
X-1781670Y998440D01*
G01X-1776770Y993107D02*
X-1774170D01*
G01X-1759470Y990440D02*
Y998440D01*
X-1760670Y996840D01*
G01Y990440D02*
X-1758270D01*
G01X-1751470Y998440D02*
X-1752270Y998173D01*
X-1752870Y997507D01*
X-1753270Y996707D01*
X-1753570Y995640D01*
X-1753670Y994440D01*
X-1753570Y993240D01*
X-1753270Y992173D01*
X-1752870Y991373D01*
X-1752270Y990707D01*
X-1751470Y990440D01*
X-1750670Y990707D01*
X-1750070Y991373D01*
X-1749670Y992173D01*
X-1749370Y993240D01*
X-1749270Y994440D01*
X-1749370Y995640D01*
X-1749670Y996707D01*
X-1750070Y997507D01*
X-1750670Y998173D01*
X-1751470Y998440D01*
G01X-1745270Y990173D02*
X-1741670Y998440D01*
G01X-1745270D02*
X-1745870Y998173D01*
X-1746170Y997773D01*
X-1746370Y996973D01*
X-1746170Y996173D01*
X-1745870Y995773D01*
X-1745270Y995507D01*
X-1744670Y995773D01*
X-1744370Y996173D01*
X-1744170Y996973D01*
X-1744370Y997773D01*
X-1744670Y998173D01*
X-1745270Y998440D01*
G01X-1741670Y993107D02*
X-1742270Y992840D01*
X-1742570Y992440D01*
X-1742770Y991640D01*
X-1742570Y990840D01*
X-1742270Y990440D01*
X-1741670Y990173D01*
X-1741070Y990440D01*
X-1740770Y990840D01*
X-1740570Y991640D01*
X-1740770Y992440D01*
X-1741070Y992840D01*
X-1741670Y993107D01*
G01X-1793170Y1018640D02*
X-1792570Y1017973D01*
X-1791870Y1017573D01*
X-1790970Y1017440D01*
X-1790070Y1017707D01*
X-1789370Y1018240D01*
X-1788870Y1019173D01*
X-1788770Y1020240D01*
X-1788970Y1021307D01*
X-1789470Y1021973D01*
X-1790170Y1022507D01*
X-1790870Y1022640D01*
X-1791570Y1022507D01*
X-1792470Y1021973D01*
X-1792170Y1025440D01*
X-1789470D01*
G01X-1782970D02*
X-1783770Y1025173D01*
X-1784370Y1024507D01*
X-1784770Y1023707D01*
X-1785070Y1022640D01*
X-1785170Y1021440D01*
X-1785070Y1020240D01*
X-1784770Y1019173D01*
X-1784370Y1018373D01*
X-1783770Y1017707D01*
X-1782970Y1017440D01*
X-1782170Y1017707D01*
X-1781570Y1018373D01*
X-1781170Y1019173D01*
X-1780870Y1020240D01*
X-1780770Y1021440D01*
X-1780870Y1022640D01*
X-1781170Y1023707D01*
X-1781570Y1024507D01*
X-1782170Y1025173D01*
X-1782970Y1025440D01*
G01X-1774970Y1017440D02*
X-1775570Y1017573D01*
X-1776170Y1018107D01*
X-1776570Y1019040D01*
X-1776770Y1020107D01*
X-1776570Y1021173D01*
X-1776170Y1022107D01*
X-1775570Y1022640D01*
X-1774970Y1022773D01*
X-1774370Y1022640D01*
X-1773770Y1022107D01*
X-1773370Y1021173D01*
X-1773270Y1020107D01*
X-1773370Y1019040D01*
X-1773770Y1018107D01*
X-1774370Y1017573D01*
X-1774970Y1017440D01*
G01X-1768670D02*
Y1025440D01*
G01Y1021573D02*
X-1768170Y1022240D01*
X-1767670Y1022640D01*
X-1766870Y1022773D01*
X-1766270Y1022640D01*
X-1765570Y1022107D01*
X-1765270Y1021307D01*
Y1017440D01*
G01X-1761970D02*
Y1022773D01*
G01Y1021307D02*
X-1761670Y1021973D01*
X-1761170Y1022507D01*
X-1760470Y1022773D01*
X-1759770Y1022507D01*
X-1759270Y1021973D01*
X-1758970Y1021307D01*
Y1017440D01*
G01Y1021307D02*
X-1758670Y1021973D01*
X-1758170Y1022507D01*
X-1757470Y1022773D01*
X-1756770Y1022507D01*
X-1756270Y1021973D01*
X-1755970Y1021173D01*
Y1017440D01*
G01X-1745070Y1018506D02*
X-1744270Y1017840D01*
X-1743370Y1017440D01*
X-1742570D01*
X-1741770Y1017840D01*
X-1741170Y1018506D01*
X-1740870Y1019440D01*
X-1741070Y1020373D01*
X-1741570Y1021173D01*
X-1742470Y1021707D01*
X-1743670Y1021973D01*
X-1744370Y1022507D01*
X-1744670Y1023440D01*
X-1744470Y1024373D01*
X-1743970Y1025040D01*
X-1743270Y1025440D01*
X-1742570D01*
X-1741870Y1025173D01*
X-1741270Y1024507D01*
G01X-1736170Y1025440D02*
X-1733770D01*
G01X-1734970D02*
Y1017440D01*
G01X-1736170D02*
X-1733770D01*
G01X-1729270D02*
Y1025440D01*
X-1724670Y1017440D01*
Y1025440D01*
G01X-1718370Y1021440D02*
X-1716370D01*
Y1019040D01*
X-1716970Y1018240D01*
X-1717670Y1017707D01*
X-1718670Y1017440D01*
X-1719670Y1017707D01*
X-1720370Y1018240D01*
X-1720970Y1019040D01*
X-1721370Y1019973D01*
X-1721570Y1021040D01*
Y1021973D01*
X-1721370Y1022773D01*
X-1720970Y1023707D01*
X-1720370Y1024507D01*
X-1719770Y1025040D01*
X-1718970Y1025440D01*
X-1718270D01*
X-1717470Y1025173D01*
X-1716870Y1024640D01*
G01X-1712970Y1025440D02*
Y1017440D01*
X-1708970D01*
G01X-1700970D02*
X-1704970D01*
Y1025440D01*
X-1700970D01*
G01X-1702570Y1021573D02*
X-1704970D01*
G01X-1684970Y1017440D02*
X-1688970D01*
Y1025440D01*
X-1684970D01*
G01X-1686570Y1021573D02*
X-1688970D01*
G01X-1681270Y1017440D02*
Y1025440D01*
X-1676670Y1017440D01*
Y1025440D01*
G01X-1673170Y1017440D02*
Y1025440D01*
X-1671170D01*
X-1670370Y1025040D01*
X-1669770Y1024507D01*
X-1669270Y1023707D01*
X-1668870Y1022773D01*
X-1668770Y1021440D01*
X-1668870Y1020107D01*
X-1669270Y1019173D01*
X-1669770Y1018373D01*
X-1670370Y1017840D01*
X-1671170Y1017440D01*
X-1673170D01*
G01X-1660970D02*
X-1664970D01*
Y1025440D01*
X-1660970D01*
G01X-1662570Y1021573D02*
X-1664970D01*
G01X-1657170Y1017440D02*
Y1025440D01*
X-1655170D01*
X-1654370Y1025040D01*
X-1653770Y1024507D01*
X-1653270Y1023707D01*
X-1652870Y1022773D01*
X-1652770Y1021440D01*
X-1652870Y1020107D01*
X-1653270Y1019173D01*
X-1653770Y1018373D01*
X-1654370Y1017840D01*
X-1655170Y1017440D01*
X-1657170D01*
G01X-1793170Y1011940D02*
X-1790770D01*
G01X-1791970D02*
Y1003940D01*
G01X-1793170D02*
X-1790770D01*
G01X-1786570D02*
Y1011940D01*
X-1783970Y1005273D01*
X-1781370Y1011940D01*
Y1003940D01*
G01X-1777970D02*
Y1011940D01*
X-1775570D01*
X-1774770Y1011540D01*
X-1774170Y1010607D01*
X-1773970Y1009540D01*
X-1774170Y1008473D01*
X-1774670Y1007673D01*
X-1775570Y1007273D01*
X-1777970D01*
G01X-1765970Y1003940D02*
X-1769970D01*
Y1011940D01*
X-1765970D01*
G01X-1767570Y1008073D02*
X-1769970D01*
G01X-1762170Y1003940D02*
Y1011940D01*
X-1760170D01*
X-1759370Y1011540D01*
X-1758770Y1011007D01*
X-1758270Y1010207D01*
X-1757870Y1009273D01*
X-1757770Y1007940D01*
X-1757870Y1006607D01*
X-1758270Y1005673D01*
X-1758770Y1004873D01*
X-1759370Y1004340D01*
X-1760170Y1003940D01*
X-1762170D01*
G01X-1754470D02*
X-1751970Y1011940D01*
X-1749470Y1003940D01*
G01X-1750370Y1006740D02*
X-1753570D01*
G01X-1746270Y1003940D02*
Y1011940D01*
X-1741670Y1003940D01*
Y1011940D01*
G01X-1733770Y1011273D02*
X-1734370Y1011673D01*
X-1735070Y1011940D01*
X-1735870D01*
X-1736770Y1011540D01*
X-1737470Y1010873D01*
X-1737970Y1010073D01*
X-1738370Y1008740D01*
X-1738470Y1007540D01*
X-1738270Y1006340D01*
X-1737970Y1005540D01*
X-1737370Y1004740D01*
X-1736670Y1004207D01*
X-1735970Y1003940D01*
X-1735270D01*
X-1734570Y1004207D01*
X-1733970Y1004607D01*
X-1733470Y1005140D01*
G01X-1725970Y1003940D02*
X-1729970D01*
Y1011940D01*
X-1725970D01*
G01X-1727570Y1008073D02*
X-1729970D01*
G01X-1709770Y1011273D02*
X-1710370Y1011673D01*
X-1711070Y1011940D01*
X-1711870D01*
X-1712770Y1011540D01*
X-1713470Y1010873D01*
X-1713970Y1010073D01*
X-1714370Y1008740D01*
X-1714470Y1007540D01*
X-1714270Y1006340D01*
X-1713970Y1005540D01*
X-1713370Y1004740D01*
X-1712670Y1004207D01*
X-1711970Y1003940D01*
X-1711270D01*
X-1710570Y1004207D01*
X-1709970Y1004607D01*
X-1709470Y1005140D01*
G01X-1703970Y1003940D02*
X-1704770Y1004073D01*
X-1705470Y1004607D01*
X-1706070Y1005407D01*
X-1706470Y1006340D01*
X-1706670Y1007407D01*
Y1008473D01*
X-1706470Y1009540D01*
X-1706070Y1010473D01*
X-1705470Y1011273D01*
X-1704770Y1011807D01*
X-1703970Y1011940D01*
X-1703170Y1011807D01*
X-1702470Y1011273D01*
X-1701870Y1010473D01*
X-1701470Y1009540D01*
X-1701270Y1008473D01*
Y1007407D01*
X-1701470Y1006340D01*
X-1701870Y1005407D01*
X-1702470Y1004607D01*
X-1703170Y1004073D01*
X-1703970Y1003940D01*
G01X-1698270D02*
Y1011940D01*
X-1693670Y1003940D01*
Y1011940D01*
G01X-1687970D02*
Y1003940D01*
G01X-1690270Y1011940D02*
X-1685670D01*
G01X-1681970Y1003940D02*
Y1011940D01*
X-1679470D01*
X-1678670Y1011540D01*
X-1678170Y1011007D01*
X-1677970Y1009940D01*
X-1678170Y1008873D01*
X-1678770Y1008207D01*
X-1679470Y1007807D01*
X-1681970D01*
G01X-1679470D02*
X-1677970Y1003940D01*
G01X-1671970D02*
X-1672770Y1004073D01*
X-1673470Y1004607D01*
X-1674070Y1005407D01*
X-1674470Y1006340D01*
X-1674670Y1007407D01*
Y1008473D01*
X-1674470Y1009540D01*
X-1674070Y1010473D01*
X-1673470Y1011273D01*
X-1672770Y1011807D01*
X-1671970Y1011940D01*
X-1671170Y1011807D01*
X-1670470Y1011273D01*
X-1669870Y1010473D01*
X-1669470Y1009540D01*
X-1669270Y1008473D01*
Y1007407D01*
X-1669470Y1006340D01*
X-1669870Y1005407D01*
X-1670470Y1004607D01*
X-1671170Y1004073D01*
X-1671970Y1003940D01*
G01X-1665970Y1011940D02*
Y1003940D01*
X-1661970D01*
G01X-1758600Y971920D02*
Y963920D01*
G01X-1760900Y971920D02*
X-1756300D01*
G01X-1752600Y963920D02*
Y971920D01*
X-1750100D01*
X-1749300Y971520D01*
X-1748800Y970987D01*
X-1748600Y969920D01*
X-1748800Y968853D01*
X-1749400Y968187D01*
X-1750100Y967787D01*
X-1752600D01*
G01X-1750100D02*
X-1748600Y963920D01*
G01X-1745100D02*
X-1742600Y971920D01*
X-1740100Y963920D01*
G01X-1741000Y966720D02*
X-1744200D01*
G01X-1732400Y971253D02*
X-1733000Y971653D01*
X-1733700Y971920D01*
X-1734500D01*
X-1735400Y971520D01*
X-1736100Y970853D01*
X-1736600Y970053D01*
X-1737000Y968720D01*
X-1737100Y967520D01*
X-1736900Y966320D01*
X-1736600Y965520D01*
X-1736000Y964720D01*
X-1735300Y964187D01*
X-1734600Y963920D01*
X-1733900D01*
X-1733200Y964187D01*
X-1732600Y964587D01*
X-1732100Y965120D01*
G01X-1724600Y963920D02*
X-1728600D01*
Y971920D01*
X-1724600D01*
G01X-1726200Y968053D02*
X-1728600D01*
G01X-1713600Y971920D02*
X-1712200Y963920D01*
X-1710600Y971920D01*
X-1709000Y963920D01*
X-1707600Y971920D01*
G01X-1703800D02*
X-1701400D01*
G01X-1702600D02*
Y963920D01*
G01X-1703800D02*
X-1701400D01*
G01X-1696800D02*
Y971920D01*
X-1694800D01*
X-1694000Y971520D01*
X-1693400Y970987D01*
X-1692900Y970187D01*
X-1692500Y969253D01*
X-1692400Y967920D01*
X-1692500Y966587D01*
X-1692900Y965653D01*
X-1693400Y964853D01*
X-1694000Y964320D01*
X-1694800Y963920D01*
X-1696800D01*
G01X-1686600Y971920D02*
Y963920D01*
G01X-1688900Y971920D02*
X-1684300D01*
G01X-1680700Y963920D02*
Y971920D01*
G01X-1676500D02*
Y963920D01*
G01Y967920D02*
X-1680700D01*
G01X-1641970Y969940D02*
Y961940D01*
G01X-1644270Y969940D02*
X-1639670D01*
G01X-1635970Y961940D02*
Y969940D01*
X-1633470D01*
X-1632670Y969540D01*
X-1632170Y969007D01*
X-1631970Y967940D01*
X-1632170Y966873D01*
X-1632770Y966207D01*
X-1633470Y965807D01*
X-1635970D01*
G01X-1633470D02*
X-1631970Y961940D01*
G01X-1628470D02*
X-1625970Y969940D01*
X-1623470Y961940D01*
G01X-1624370Y964740D02*
X-1627570D01*
G01X-1615770Y969273D02*
X-1616370Y969673D01*
X-1617070Y969940D01*
X-1617870D01*
X-1618770Y969540D01*
X-1619470Y968873D01*
X-1619970Y968073D01*
X-1620370Y966740D01*
X-1620470Y965540D01*
X-1620270Y964340D01*
X-1619970Y963540D01*
X-1619370Y962740D01*
X-1618670Y962207D01*
X-1617970Y961940D01*
X-1617270D01*
X-1616570Y962207D01*
X-1615970Y962607D01*
X-1615470Y963140D01*
G01X-1607970Y961940D02*
X-1611970D01*
Y969940D01*
X-1607970D01*
G01X-1609570Y966073D02*
X-1611970D01*
G01X-1596970Y969940D02*
X-1595570Y961940D01*
X-1593970Y969940D01*
X-1592370Y961940D01*
X-1590970Y969940D01*
G01X-1587170D02*
X-1584770D01*
G01X-1585970D02*
Y961940D01*
G01X-1587170D02*
X-1584770D01*
G01X-1580170D02*
Y969940D01*
X-1578170D01*
X-1577370Y969540D01*
X-1576770Y969007D01*
X-1576270Y968207D01*
X-1575870Y967273D01*
X-1575770Y965940D01*
X-1575870Y964607D01*
X-1576270Y963673D01*
X-1576770Y962873D01*
X-1577370Y962340D01*
X-1578170Y961940D01*
X-1580170D01*
G01X-1569970Y969940D02*
Y961940D01*
G01X-1572270Y969940D02*
X-1567670D01*
G01X-1564070Y961940D02*
Y969940D01*
G01X-1559870D02*
Y961940D01*
G01Y965940D02*
X-1564070D01*
G01X-1547770Y961673D02*
X-1544170Y969940D01*
G01X-1532070Y963006D02*
X-1531270Y962340D01*
X-1530370Y961940D01*
X-1529570D01*
X-1528770Y962340D01*
X-1528170Y963006D01*
X-1527870Y963940D01*
X-1528070Y964873D01*
X-1528570Y965673D01*
X-1529470Y966207D01*
X-1530670Y966473D01*
X-1531370Y967007D01*
X-1531670Y967940D01*
X-1531470Y968873D01*
X-1530970Y969540D01*
X-1530270Y969940D01*
X-1529570D01*
X-1528870Y969673D01*
X-1528270Y969007D01*
G01X-1523970Y961940D02*
Y969940D01*
X-1521570D01*
X-1520770Y969540D01*
X-1520170Y968607D01*
X-1519970Y967540D01*
X-1520170Y966473D01*
X-1520670Y965673D01*
X-1521570Y965273D01*
X-1523970D01*
G01X-1516470Y961940D02*
X-1513970Y969940D01*
X-1511470Y961940D01*
G01X-1512370Y964740D02*
X-1515570D01*
G01X-1503770Y969273D02*
X-1504370Y969673D01*
X-1505070Y969940D01*
X-1505870D01*
X-1506770Y969540D01*
X-1507470Y968873D01*
X-1507970Y968073D01*
X-1508370Y966740D01*
X-1508470Y965540D01*
X-1508270Y964340D01*
X-1507970Y963540D01*
X-1507370Y962740D01*
X-1506670Y962207D01*
X-1505970Y961940D01*
X-1505270D01*
X-1504570Y962207D01*
X-1503970Y962607D01*
X-1503470Y963140D01*
G01X-1495970Y961940D02*
X-1499970D01*
Y969940D01*
X-1495970D01*
G01X-1497570Y966073D02*
X-1499970D01*
G01X-1639570Y990607D02*
X-1637170D01*
G01X-1638470Y992340D02*
Y988873D01*
G01X-1632270Y987673D02*
X-1628670Y995940D01*
G01X-1623770Y990607D02*
X-1621170D01*
G01X-1606470Y987940D02*
Y995940D01*
X-1607670Y994340D01*
G01Y987940D02*
X-1605270D01*
G01X-1598470Y995940D02*
X-1599270Y995673D01*
X-1599870Y995007D01*
X-1600270Y994207D01*
X-1600570Y993140D01*
X-1600670Y991940D01*
X-1600570Y990740D01*
X-1600270Y989673D01*
X-1599870Y988873D01*
X-1599270Y988207D01*
X-1598470Y987940D01*
X-1597670Y988207D01*
X-1597070Y988873D01*
X-1596670Y989673D01*
X-1596370Y990740D01*
X-1596270Y991940D01*
X-1596370Y993140D01*
X-1596670Y994207D01*
X-1597070Y995007D01*
X-1597670Y995673D01*
X-1598470Y995940D01*
G01X-1592270Y987673D02*
X-1588670Y995940D01*
G01X-1592270D02*
X-1592870Y995673D01*
X-1593170Y995273D01*
X-1593370Y994473D01*
X-1593170Y993673D01*
X-1592870Y993273D01*
X-1592270Y993007D01*
X-1591670Y993273D01*
X-1591370Y993673D01*
X-1591170Y994473D01*
X-1591370Y995273D01*
X-1591670Y995673D01*
X-1592270Y995940D01*
G01X-1588670Y990607D02*
X-1589270Y990340D01*
X-1589570Y989940D01*
X-1589770Y989140D01*
X-1589570Y988340D01*
X-1589270Y987940D01*
X-1588670Y987673D01*
X-1588070Y987940D01*
X-1587770Y988340D01*
X-1587570Y989140D01*
X-1587770Y989940D01*
X-1588070Y990340D01*
X-1588670Y990607D01*
G01X-1640670Y1016873D02*
X-1639970Y1016207D01*
X-1639170Y1015940D01*
X-1638370Y1016207D01*
X-1637670Y1017006D01*
X-1637170Y1018207D01*
X-1636970Y1019407D01*
Y1020873D01*
X-1637170Y1022073D01*
X-1637670Y1023140D01*
X-1638270Y1023673D01*
X-1638970Y1023940D01*
X-1639770Y1023673D01*
X-1640370Y1023140D01*
X-1640770Y1022340D01*
X-1640970Y1021273D01*
X-1640770Y1020340D01*
X-1640270Y1019407D01*
X-1639670Y1018873D01*
X-1638970Y1018740D01*
X-1638170Y1019006D01*
X-1637570Y1019673D01*
X-1636970Y1020873D01*
G01X-1630970Y1023940D02*
X-1631770Y1023673D01*
X-1632370Y1023007D01*
X-1632770Y1022207D01*
X-1633070Y1021140D01*
X-1633170Y1019940D01*
X-1633070Y1018740D01*
X-1632770Y1017673D01*
X-1632370Y1016873D01*
X-1631770Y1016207D01*
X-1630970Y1015940D01*
X-1630170Y1016207D01*
X-1629570Y1016873D01*
X-1629170Y1017673D01*
X-1628870Y1018740D01*
X-1628770Y1019940D01*
X-1628870Y1021140D01*
X-1629170Y1022207D01*
X-1629570Y1023007D01*
X-1630170Y1023673D01*
X-1630970Y1023940D01*
G01X-1622970Y1015940D02*
X-1623570Y1016073D01*
X-1624170Y1016607D01*
X-1624570Y1017540D01*
X-1624770Y1018607D01*
X-1624570Y1019673D01*
X-1624170Y1020607D01*
X-1623570Y1021140D01*
X-1622970Y1021273D01*
X-1622370Y1021140D01*
X-1621770Y1020607D01*
X-1621370Y1019673D01*
X-1621270Y1018607D01*
X-1621370Y1017540D01*
X-1621770Y1016607D01*
X-1622370Y1016073D01*
X-1622970Y1015940D01*
G01X-1616670D02*
Y1023940D01*
G01Y1020073D02*
X-1616170Y1020740D01*
X-1615670Y1021140D01*
X-1614870Y1021273D01*
X-1614270Y1021140D01*
X-1613570Y1020607D01*
X-1613270Y1019807D01*
Y1015940D01*
G01X-1609970D02*
Y1021273D01*
G01Y1019807D02*
X-1609670Y1020473D01*
X-1609170Y1021007D01*
X-1608470Y1021273D01*
X-1607770Y1021007D01*
X-1607270Y1020473D01*
X-1606970Y1019807D01*
Y1015940D01*
G01Y1019807D02*
X-1606670Y1020473D01*
X-1606170Y1021007D01*
X-1605470Y1021273D01*
X-1604770Y1021007D01*
X-1604270Y1020473D01*
X-1603970Y1019673D01*
Y1015940D01*
G01X-1593170D02*
Y1023940D01*
X-1591170D01*
X-1590370Y1023540D01*
X-1589770Y1023007D01*
X-1589270Y1022207D01*
X-1588870Y1021273D01*
X-1588770Y1019940D01*
X-1588870Y1018607D01*
X-1589270Y1017673D01*
X-1589770Y1016873D01*
X-1590370Y1016340D01*
X-1591170Y1015940D01*
X-1593170D01*
G01X-1584170Y1023940D02*
X-1581770D01*
G01X-1582970D02*
Y1015940D01*
G01X-1584170D02*
X-1581770D01*
G01X-1576870D02*
Y1023940D01*
X-1573070D01*
G01X-1574470Y1020073D02*
X-1576870D01*
G01X-1568870Y1015940D02*
Y1023940D01*
X-1565070D01*
G01X-1566470Y1020073D02*
X-1568870D01*
G01X-1556970Y1015940D02*
X-1560970D01*
Y1023940D01*
X-1556970D01*
G01X-1558570Y1020073D02*
X-1560970D01*
G01X-1552970Y1015940D02*
Y1023940D01*
X-1550470D01*
X-1549670Y1023540D01*
X-1549170Y1023007D01*
X-1548970Y1021940D01*
X-1549170Y1020873D01*
X-1549770Y1020207D01*
X-1550470Y1019807D01*
X-1552970D01*
G01X-1550470D02*
X-1548970Y1015940D01*
G01X-1540970D02*
X-1544970D01*
Y1023940D01*
X-1540970D01*
G01X-1542570Y1020073D02*
X-1544970D01*
G01X-1537270Y1015940D02*
Y1023940D01*
X-1532670Y1015940D01*
Y1023940D01*
G01X-1526970D02*
Y1015940D01*
G01X-1529270Y1023940D02*
X-1524670D01*
G01X-1520170D02*
X-1517770D01*
G01X-1518970D02*
Y1015940D01*
G01X-1520170D02*
X-1517770D01*
G01X-1513470D02*
X-1510970Y1023940D01*
X-1508470Y1015940D01*
G01X-1509370Y1018740D02*
X-1512570D01*
G01X-1504970Y1023940D02*
Y1015940D01*
X-1500970D01*
G01X-1639670Y1009940D02*
X-1637270D01*
G01X-1638470D02*
Y1001940D01*
G01X-1639670D02*
X-1637270D01*
G01X-1633070D02*
Y1009940D01*
X-1630470Y1003273D01*
X-1627870Y1009940D01*
Y1001940D01*
G01X-1624470D02*
Y1009940D01*
X-1622070D01*
X-1621270Y1009540D01*
X-1620670Y1008607D01*
X-1620470Y1007540D01*
X-1620670Y1006473D01*
X-1621170Y1005673D01*
X-1622070Y1005273D01*
X-1624470D01*
G01X-1612470Y1001940D02*
X-1616470D01*
Y1009940D01*
X-1612470D01*
G01X-1614070Y1006073D02*
X-1616470D01*
G01X-1608670Y1001940D02*
Y1009940D01*
X-1606670D01*
X-1605870Y1009540D01*
X-1605270Y1009007D01*
X-1604770Y1008207D01*
X-1604370Y1007273D01*
X-1604270Y1005940D01*
X-1604370Y1004607D01*
X-1604770Y1003673D01*
X-1605270Y1002873D01*
X-1605870Y1002340D01*
X-1606670Y1001940D01*
X-1608670D01*
G01X-1600970D02*
X-1598470Y1009940D01*
X-1595970Y1001940D01*
G01X-1596870Y1004740D02*
X-1600070D01*
G01X-1592770Y1001940D02*
Y1009940D01*
X-1588170Y1001940D01*
Y1009940D01*
G01X-1580270Y1009273D02*
X-1580870Y1009673D01*
X-1581570Y1009940D01*
X-1582370D01*
X-1583270Y1009540D01*
X-1583970Y1008873D01*
X-1584470Y1008073D01*
X-1584870Y1006740D01*
X-1584970Y1005540D01*
X-1584770Y1004340D01*
X-1584470Y1003540D01*
X-1583870Y1002740D01*
X-1583170Y1002207D01*
X-1582470Y1001940D01*
X-1581770D01*
X-1581070Y1002207D01*
X-1580470Y1002607D01*
X-1579970Y1003140D01*
G01X-1572470Y1001940D02*
X-1576470D01*
Y1009940D01*
X-1572470D01*
G01X-1574070Y1006073D02*
X-1576470D01*
G01X-1556270Y1009273D02*
X-1556870Y1009673D01*
X-1557570Y1009940D01*
X-1558370D01*
X-1559270Y1009540D01*
X-1559970Y1008873D01*
X-1560470Y1008073D01*
X-1560870Y1006740D01*
X-1560970Y1005540D01*
X-1560770Y1004340D01*
X-1560470Y1003540D01*
X-1559870Y1002740D01*
X-1559170Y1002207D01*
X-1558470Y1001940D01*
X-1557770D01*
X-1557070Y1002207D01*
X-1556470Y1002607D01*
X-1555970Y1003140D01*
G01X-1550470Y1001940D02*
X-1551270Y1002073D01*
X-1551970Y1002607D01*
X-1552570Y1003407D01*
X-1552970Y1004340D01*
X-1553170Y1005407D01*
Y1006473D01*
X-1552970Y1007540D01*
X-1552570Y1008473D01*
X-1551970Y1009273D01*
X-1551270Y1009807D01*
X-1550470Y1009940D01*
X-1549670Y1009807D01*
X-1548970Y1009273D01*
X-1548370Y1008473D01*
X-1547970Y1007540D01*
X-1547770Y1006473D01*
Y1005407D01*
X-1547970Y1004340D01*
X-1548370Y1003407D01*
X-1548970Y1002607D01*
X-1549670Y1002073D01*
X-1550470Y1001940D01*
G01X-1544770D02*
Y1009940D01*
X-1540170Y1001940D01*
Y1009940D01*
G01X-1534470D02*
Y1001940D01*
G01X-1536770Y1009940D02*
X-1532170D01*
G01X-1528470Y1001940D02*
Y1009940D01*
X-1525970D01*
X-1525170Y1009540D01*
X-1524670Y1009007D01*
X-1524470Y1007940D01*
X-1524670Y1006873D01*
X-1525270Y1006207D01*
X-1525970Y1005807D01*
X-1528470D01*
G01X-1525970D02*
X-1524470Y1001940D01*
G01X-1518470D02*
X-1519270Y1002073D01*
X-1519970Y1002607D01*
X-1520570Y1003407D01*
X-1520970Y1004340D01*
X-1521170Y1005407D01*
Y1006473D01*
X-1520970Y1007540D01*
X-1520570Y1008473D01*
X-1519970Y1009273D01*
X-1519270Y1009807D01*
X-1518470Y1009940D01*
X-1517670Y1009807D01*
X-1516970Y1009273D01*
X-1516370Y1008473D01*
X-1515970Y1007540D01*
X-1515770Y1006473D01*
Y1005407D01*
X-1515970Y1004340D01*
X-1516370Y1003407D01*
X-1516970Y1002607D01*
X-1517670Y1002073D01*
X-1518470Y1001940D01*
G01X-1512470Y1009940D02*
Y1001940D01*
X-1508470D01*
G01X-1602545Y911506D02*
X-1601670Y910673D01*
X-1600670Y910340D01*
X-1599670Y910673D01*
X-1598795Y911673D01*
X-1598170Y913173D01*
X-1597920Y914673D01*
Y916507D01*
X-1598170Y918007D01*
X-1598795Y919340D01*
X-1599545Y920007D01*
X-1600420Y920340D01*
X-1601420Y920007D01*
X-1602170Y919340D01*
X-1602670Y918340D01*
X-1602920Y917006D01*
X-1602670Y915840D01*
X-1602045Y914673D01*
X-1601295Y914006D01*
X-1600420Y913840D01*
X-1599420Y914173D01*
X-1598670Y915007D01*
X-1597920Y916507D01*
G01X-1590420Y910007D02*
X-1590670Y910173D01*
Y910507D01*
X-1590420Y910673D01*
X-1590170Y910507D01*
Y910173D01*
X-1590420Y910007D01*
G01X-1583170Y911840D02*
X-1582420Y911007D01*
X-1581545Y910507D01*
X-1580420Y910340D01*
X-1579295Y910673D01*
X-1578420Y911340D01*
X-1577795Y912507D01*
X-1577670Y913840D01*
X-1577920Y915173D01*
X-1578545Y916007D01*
X-1579420Y916673D01*
X-1580295Y916840D01*
X-1581170Y916673D01*
X-1582295Y916007D01*
X-1581920Y920340D01*
X-1578545D01*
G01X-1572670Y910007D02*
X-1568170Y920340D01*
G01X-1563170Y911840D02*
X-1562420Y911007D01*
X-1561545Y910507D01*
X-1560420Y910340D01*
X-1559295Y910673D01*
X-1558420Y911340D01*
X-1557795Y912507D01*
X-1557670Y913840D01*
X-1557920Y915173D01*
X-1558545Y916007D01*
X-1559420Y916673D01*
X-1560295Y916840D01*
X-1561170Y916673D01*
X-1562295Y916007D01*
X-1561920Y920340D01*
X-1558545D01*
G01X-1602345Y936606D02*
X-1601470Y935773D01*
X-1600470Y935440D01*
X-1599470Y935773D01*
X-1598595Y936773D01*
X-1597970Y938273D01*
X-1597720Y939773D01*
Y941607D01*
X-1597970Y943107D01*
X-1598595Y944440D01*
X-1599345Y945107D01*
X-1600220Y945440D01*
X-1601220Y945107D01*
X-1601970Y944440D01*
X-1602470Y943440D01*
X-1602720Y942106D01*
X-1602470Y940940D01*
X-1601845Y939773D01*
X-1601095Y939106D01*
X-1600220Y938940D01*
X-1599220Y939273D01*
X-1598470Y940107D01*
X-1597720Y941607D01*
G01X-1590220Y935107D02*
X-1590470Y935273D01*
Y935607D01*
X-1590220Y935773D01*
X-1589970Y935607D01*
Y935273D01*
X-1590220Y935107D01*
G01X-1582970Y936940D02*
X-1582220Y936107D01*
X-1581345Y935607D01*
X-1580220Y935440D01*
X-1579095Y935773D01*
X-1578220Y936440D01*
X-1577595Y937607D01*
X-1577470Y938940D01*
X-1577720Y940273D01*
X-1578345Y941107D01*
X-1579220Y941773D01*
X-1580095Y941940D01*
X-1580970Y941773D01*
X-1582095Y941107D01*
X-1581720Y945440D01*
X-1578345D01*
G01X-1572470Y935107D02*
X-1567970Y945440D01*
G01X-1562970Y936940D02*
X-1562220Y936107D01*
X-1561345Y935607D01*
X-1560220Y935440D01*
X-1559095Y935773D01*
X-1558220Y936440D01*
X-1557595Y937607D01*
X-1557470Y938940D01*
X-1557720Y940273D01*
X-1558345Y941107D01*
X-1559220Y941773D01*
X-1560095Y941940D01*
X-1560970Y941773D01*
X-1562095Y941107D01*
X-1561720Y945440D01*
X-1558345D01*
G01X-1482470Y970940D02*
Y962940D01*
G01X-1484770Y970940D02*
X-1480170D01*
G01X-1476470Y962940D02*
Y970940D01*
X-1473970D01*
X-1473170Y970540D01*
X-1472670Y970007D01*
X-1472470Y968940D01*
X-1472670Y967873D01*
X-1473270Y967207D01*
X-1473970Y966807D01*
X-1476470D01*
G01X-1473970D02*
X-1472470Y962940D01*
G01X-1468970D02*
X-1466470Y970940D01*
X-1463970Y962940D01*
G01X-1464870Y965740D02*
X-1468070D01*
G01X-1456270Y970273D02*
X-1456870Y970673D01*
X-1457570Y970940D01*
X-1458370D01*
X-1459270Y970540D01*
X-1459970Y969873D01*
X-1460470Y969073D01*
X-1460870Y967740D01*
X-1460970Y966540D01*
X-1460770Y965340D01*
X-1460470Y964540D01*
X-1459870Y963740D01*
X-1459170Y963207D01*
X-1458470Y962940D01*
X-1457770D01*
X-1457070Y963207D01*
X-1456470Y963607D01*
X-1455970Y964140D01*
G01X-1448470Y962940D02*
X-1452470D01*
Y970940D01*
X-1448470D01*
G01X-1450070Y967073D02*
X-1452470D01*
G01X-1437470Y970940D02*
X-1436070Y962940D01*
X-1434470Y970940D01*
X-1432870Y962940D01*
X-1431470Y970940D01*
G01X-1427670D02*
X-1425270D01*
G01X-1426470D02*
Y962940D01*
G01X-1427670D02*
X-1425270D01*
G01X-1420670D02*
Y970940D01*
X-1418670D01*
X-1417870Y970540D01*
X-1417270Y970007D01*
X-1416770Y969207D01*
X-1416370Y968273D01*
X-1416270Y966940D01*
X-1416370Y965607D01*
X-1416770Y964673D01*
X-1417270Y963873D01*
X-1417870Y963340D01*
X-1418670Y962940D01*
X-1420670D01*
G01X-1410470Y970940D02*
Y962940D01*
G01X-1412770Y970940D02*
X-1408170D01*
G01X-1404570Y962940D02*
Y970940D01*
G01X-1400370D02*
Y962940D01*
G01Y966940D02*
X-1404570D01*
G01X-1388270Y962673D02*
X-1384670Y970940D01*
G01X-1372570Y964006D02*
X-1371770Y963340D01*
X-1370870Y962940D01*
X-1370070D01*
X-1369270Y963340D01*
X-1368670Y964006D01*
X-1368370Y964940D01*
X-1368570Y965873D01*
X-1369070Y966673D01*
X-1369970Y967207D01*
X-1371170Y967473D01*
X-1371870Y968007D01*
X-1372170Y968940D01*
X-1371970Y969873D01*
X-1371470Y970540D01*
X-1370770Y970940D01*
X-1370070D01*
X-1369370Y970673D01*
X-1368770Y970007D01*
G01X-1364470Y962940D02*
Y970940D01*
X-1362070D01*
X-1361270Y970540D01*
X-1360670Y969607D01*
X-1360470Y968540D01*
X-1360670Y967473D01*
X-1361170Y966673D01*
X-1362070Y966273D01*
X-1364470D01*
G01X-1356970Y962940D02*
X-1354470Y970940D01*
X-1351970Y962940D01*
G01X-1352870Y965740D02*
X-1356070D01*
G01X-1344270Y970273D02*
X-1344870Y970673D01*
X-1345570Y970940D01*
X-1346370D01*
X-1347270Y970540D01*
X-1347970Y969873D01*
X-1348470Y969073D01*
X-1348870Y967740D01*
X-1348970Y966540D01*
X-1348770Y965340D01*
X-1348470Y964540D01*
X-1347870Y963740D01*
X-1347170Y963207D01*
X-1346470Y962940D01*
X-1345770D01*
X-1345070Y963207D01*
X-1344470Y963607D01*
X-1343970Y964140D01*
G01X-1336470Y962940D02*
X-1340470D01*
Y970940D01*
X-1336470D01*
G01X-1338070Y967073D02*
X-1340470D01*
G01X-1480070Y991607D02*
X-1477670D01*
G01X-1478970Y993340D02*
Y989873D01*
G01X-1472770Y988673D02*
X-1469170Y996940D01*
G01X-1464270Y991607D02*
X-1461670D01*
G01X-1446970Y988940D02*
Y996940D01*
X-1448170Y995340D01*
G01Y988940D02*
X-1445770D01*
G01X-1438970Y996940D02*
X-1439770Y996673D01*
X-1440370Y996007D01*
X-1440770Y995207D01*
X-1441070Y994140D01*
X-1441170Y992940D01*
X-1441070Y991740D01*
X-1440770Y990673D01*
X-1440370Y989873D01*
X-1439770Y989207D01*
X-1438970Y988940D01*
X-1438170Y989207D01*
X-1437570Y989873D01*
X-1437170Y990673D01*
X-1436870Y991740D01*
X-1436770Y992940D01*
X-1436870Y994140D01*
X-1437170Y995207D01*
X-1437570Y996007D01*
X-1438170Y996673D01*
X-1438970Y996940D01*
G01X-1432770Y988673D02*
X-1429170Y996940D01*
G01X-1432770D02*
X-1433370Y996673D01*
X-1433670Y996273D01*
X-1433870Y995473D01*
X-1433670Y994673D01*
X-1433370Y994273D01*
X-1432770Y994007D01*
X-1432170Y994273D01*
X-1431870Y994673D01*
X-1431670Y995473D01*
X-1431870Y996273D01*
X-1432170Y996673D01*
X-1432770Y996940D01*
G01X-1429170Y991607D02*
X-1429770Y991340D01*
X-1430070Y990940D01*
X-1430270Y990140D01*
X-1430070Y989340D01*
X-1429770Y988940D01*
X-1429170Y988673D01*
X-1428570Y988940D01*
X-1428270Y989340D01*
X-1428070Y990140D01*
X-1428270Y990940D01*
X-1428570Y991340D01*
X-1429170Y991607D01*
G01X-1479470Y1016940D02*
Y1024940D01*
X-1480670Y1023340D01*
G01Y1016940D02*
X-1478270D01*
G01X-1471470Y1024940D02*
X-1472270Y1024673D01*
X-1472870Y1024007D01*
X-1473270Y1023207D01*
X-1473570Y1022140D01*
X-1473670Y1020940D01*
X-1473570Y1019740D01*
X-1473270Y1018673D01*
X-1472870Y1017873D01*
X-1472270Y1017207D01*
X-1471470Y1016940D01*
X-1470670Y1017207D01*
X-1470070Y1017873D01*
X-1469670Y1018673D01*
X-1469370Y1019740D01*
X-1469270Y1020940D01*
X-1469370Y1022140D01*
X-1469670Y1023207D01*
X-1470070Y1024007D01*
X-1470670Y1024673D01*
X-1471470Y1024940D01*
G01X-1463470D02*
X-1464270Y1024673D01*
X-1464870Y1024007D01*
X-1465270Y1023207D01*
X-1465570Y1022140D01*
X-1465670Y1020940D01*
X-1465570Y1019740D01*
X-1465270Y1018673D01*
X-1464870Y1017873D01*
X-1464270Y1017207D01*
X-1463470Y1016940D01*
X-1462670Y1017207D01*
X-1462070Y1017873D01*
X-1461670Y1018673D01*
X-1461370Y1019740D01*
X-1461270Y1020940D01*
X-1461370Y1022140D01*
X-1461670Y1023207D01*
X-1462070Y1024007D01*
X-1462670Y1024673D01*
X-1463470Y1024940D01*
G01X-1455470Y1016940D02*
X-1456070Y1017073D01*
X-1456670Y1017607D01*
X-1457070Y1018540D01*
X-1457270Y1019607D01*
X-1457070Y1020673D01*
X-1456670Y1021607D01*
X-1456070Y1022140D01*
X-1455470Y1022273D01*
X-1454870Y1022140D01*
X-1454270Y1021607D01*
X-1453870Y1020673D01*
X-1453770Y1019607D01*
X-1453870Y1018540D01*
X-1454270Y1017607D01*
X-1454870Y1017073D01*
X-1455470Y1016940D01*
G01X-1449170D02*
Y1024940D01*
G01Y1021073D02*
X-1448670Y1021740D01*
X-1448170Y1022140D01*
X-1447370Y1022273D01*
X-1446770Y1022140D01*
X-1446070Y1021607D01*
X-1445770Y1020807D01*
Y1016940D01*
G01X-1442470D02*
Y1022273D01*
G01Y1020807D02*
X-1442170Y1021473D01*
X-1441670Y1022007D01*
X-1440970Y1022273D01*
X-1440270Y1022007D01*
X-1439770Y1021473D01*
X-1439470Y1020807D01*
Y1016940D01*
G01Y1020807D02*
X-1439170Y1021473D01*
X-1438670Y1022007D01*
X-1437970Y1022273D01*
X-1437270Y1022007D01*
X-1436770Y1021473D01*
X-1436470Y1020673D01*
Y1016940D01*
G01X-1425670D02*
Y1024940D01*
X-1423670D01*
X-1422870Y1024540D01*
X-1422270Y1024007D01*
X-1421770Y1023207D01*
X-1421370Y1022273D01*
X-1421270Y1020940D01*
X-1421370Y1019607D01*
X-1421770Y1018673D01*
X-1422270Y1017873D01*
X-1422870Y1017340D01*
X-1423670Y1016940D01*
X-1425670D01*
G01X-1416670Y1024940D02*
X-1414270D01*
G01X-1415470D02*
Y1016940D01*
G01X-1416670D02*
X-1414270D01*
G01X-1409370D02*
Y1024940D01*
X-1405570D01*
G01X-1406970Y1021073D02*
X-1409370D01*
G01X-1401370Y1016940D02*
Y1024940D01*
X-1397570D01*
G01X-1398970Y1021073D02*
X-1401370D01*
G01X-1389470Y1016940D02*
X-1393470D01*
Y1024940D01*
X-1389470D01*
G01X-1391070Y1021073D02*
X-1393470D01*
G01X-1385470Y1016940D02*
Y1024940D01*
X-1382970D01*
X-1382170Y1024540D01*
X-1381670Y1024007D01*
X-1381470Y1022940D01*
X-1381670Y1021873D01*
X-1382270Y1021207D01*
X-1382970Y1020807D01*
X-1385470D01*
G01X-1382970D02*
X-1381470Y1016940D01*
G01X-1373470D02*
X-1377470D01*
Y1024940D01*
X-1373470D01*
G01X-1375070Y1021073D02*
X-1377470D01*
G01X-1369770Y1016940D02*
Y1024940D01*
X-1365170Y1016940D01*
Y1024940D01*
G01X-1359470D02*
Y1016940D01*
G01X-1361770Y1024940D02*
X-1357170D01*
G01X-1352670D02*
X-1350270D01*
G01X-1351470D02*
Y1016940D01*
G01X-1352670D02*
X-1350270D01*
G01X-1345970D02*
X-1343470Y1024940D01*
X-1340970Y1016940D01*
G01X-1341870Y1019740D02*
X-1345070D01*
G01X-1337470Y1024940D02*
Y1016940D01*
X-1333470D01*
G01X-1480170Y1010940D02*
X-1477770D01*
G01X-1478970D02*
Y1002940D01*
G01X-1480170D02*
X-1477770D01*
G01X-1473570D02*
Y1010940D01*
X-1470970Y1004273D01*
X-1468370Y1010940D01*
Y1002940D01*
G01X-1464970D02*
Y1010940D01*
X-1462570D01*
X-1461770Y1010540D01*
X-1461170Y1009607D01*
X-1460970Y1008540D01*
X-1461170Y1007473D01*
X-1461670Y1006673D01*
X-1462570Y1006273D01*
X-1464970D01*
G01X-1452970Y1002940D02*
X-1456970D01*
Y1010940D01*
X-1452970D01*
G01X-1454570Y1007073D02*
X-1456970D01*
G01X-1449170Y1002940D02*
Y1010940D01*
X-1447170D01*
X-1446370Y1010540D01*
X-1445770Y1010007D01*
X-1445270Y1009207D01*
X-1444870Y1008273D01*
X-1444770Y1006940D01*
X-1444870Y1005607D01*
X-1445270Y1004673D01*
X-1445770Y1003873D01*
X-1446370Y1003340D01*
X-1447170Y1002940D01*
X-1449170D01*
G01X-1441470D02*
X-1438970Y1010940D01*
X-1436470Y1002940D01*
G01X-1437370Y1005740D02*
X-1440570D01*
G01X-1433270Y1002940D02*
Y1010940D01*
X-1428670Y1002940D01*
Y1010940D01*
G01X-1420770Y1010273D02*
X-1421370Y1010673D01*
X-1422070Y1010940D01*
X-1422870D01*
X-1423770Y1010540D01*
X-1424470Y1009873D01*
X-1424970Y1009073D01*
X-1425370Y1007740D01*
X-1425470Y1006540D01*
X-1425270Y1005340D01*
X-1424970Y1004540D01*
X-1424370Y1003740D01*
X-1423670Y1003207D01*
X-1422970Y1002940D01*
X-1422270D01*
X-1421570Y1003207D01*
X-1420970Y1003607D01*
X-1420470Y1004140D01*
G01X-1412970Y1002940D02*
X-1416970D01*
Y1010940D01*
X-1412970D01*
G01X-1414570Y1007073D02*
X-1416970D01*
G01X-1396770Y1010273D02*
X-1397370Y1010673D01*
X-1398070Y1010940D01*
X-1398870D01*
X-1399770Y1010540D01*
X-1400470Y1009873D01*
X-1400970Y1009073D01*
X-1401370Y1007740D01*
X-1401470Y1006540D01*
X-1401270Y1005340D01*
X-1400970Y1004540D01*
X-1400370Y1003740D01*
X-1399670Y1003207D01*
X-1398970Y1002940D01*
X-1398270D01*
X-1397570Y1003207D01*
X-1396970Y1003607D01*
X-1396470Y1004140D01*
G01X-1390970Y1002940D02*
X-1391770Y1003073D01*
X-1392470Y1003607D01*
X-1393070Y1004407D01*
X-1393470Y1005340D01*
X-1393670Y1006407D01*
Y1007473D01*
X-1393470Y1008540D01*
X-1393070Y1009473D01*
X-1392470Y1010273D01*
X-1391770Y1010807D01*
X-1390970Y1010940D01*
X-1390170Y1010807D01*
X-1389470Y1010273D01*
X-1388870Y1009473D01*
X-1388470Y1008540D01*
X-1388270Y1007473D01*
Y1006407D01*
X-1388470Y1005340D01*
X-1388870Y1004407D01*
X-1389470Y1003607D01*
X-1390170Y1003073D01*
X-1390970Y1002940D01*
G01X-1385270D02*
Y1010940D01*
X-1380670Y1002940D01*
Y1010940D01*
G01X-1374970D02*
Y1002940D01*
G01X-1377270Y1010940D02*
X-1372670D01*
G01X-1368970Y1002940D02*
Y1010940D01*
X-1366470D01*
X-1365670Y1010540D01*
X-1365170Y1010007D01*
X-1364970Y1008940D01*
X-1365170Y1007873D01*
X-1365770Y1007207D01*
X-1366470Y1006807D01*
X-1368970D01*
G01X-1366470D02*
X-1364970Y1002940D01*
G01X-1358970D02*
X-1359770Y1003073D01*
X-1360470Y1003607D01*
X-1361070Y1004407D01*
X-1361470Y1005340D01*
X-1361670Y1006407D01*
Y1007473D01*
X-1361470Y1008540D01*
X-1361070Y1009473D01*
X-1360470Y1010273D01*
X-1359770Y1010807D01*
X-1358970Y1010940D01*
X-1358170Y1010807D01*
X-1357470Y1010273D01*
X-1356870Y1009473D01*
X-1356470Y1008540D01*
X-1356270Y1007473D01*
Y1006407D01*
X-1356470Y1005340D01*
X-1356870Y1004407D01*
X-1357470Y1003607D01*
X-1358170Y1003073D01*
X-1358970Y1002940D01*
G01X-1352970Y1010940D02*
Y1002940D01*
X-1348970D01*
G01X-1462795Y914506D02*
X-1461920Y915673D01*
X-1461170Y916340D01*
X-1460170Y916673D01*
X-1459295Y916340D01*
X-1458670Y915673D01*
X-1458170Y914673D01*
X-1458045Y913507D01*
X-1458170Y912507D01*
X-1458670Y911506D01*
X-1459420Y910673D01*
X-1460295Y910340D01*
X-1461295Y910673D01*
X-1462170Y911673D01*
X-1462670Y913173D01*
X-1462795Y914840D01*
X-1462545Y917006D01*
X-1462170Y918173D01*
X-1461545Y919340D01*
X-1460670Y920173D01*
X-1459795Y920340D01*
X-1458920Y920007D01*
X-1458295Y919173D01*
G01X-1450420Y910007D02*
X-1450670Y910173D01*
Y910507D01*
X-1450420Y910673D01*
X-1450170Y910507D01*
Y910173D01*
X-1450420Y910007D01*
G01X-1443170Y911840D02*
X-1442420Y911007D01*
X-1441545Y910507D01*
X-1440420Y910340D01*
X-1439295Y910673D01*
X-1438420Y911340D01*
X-1437795Y912507D01*
X-1437670Y913840D01*
X-1437920Y915173D01*
X-1438545Y916007D01*
X-1439420Y916673D01*
X-1440295Y916840D01*
X-1441170Y916673D01*
X-1442295Y916007D01*
X-1441920Y920340D01*
X-1438545D01*
G01X-1432670Y910007D02*
X-1428170Y920340D01*
G01X-1423170Y911840D02*
X-1422420Y911007D01*
X-1421545Y910507D01*
X-1420420Y910340D01*
X-1419295Y910673D01*
X-1418420Y911340D01*
X-1417795Y912507D01*
X-1417670Y913840D01*
X-1417920Y915173D01*
X-1418545Y916007D01*
X-1419420Y916673D01*
X-1420295Y916840D01*
X-1421170Y916673D01*
X-1422295Y916007D01*
X-1421920Y920340D01*
X-1418545D01*
G01X-1462595Y939606D02*
X-1461720Y940773D01*
X-1460970Y941440D01*
X-1459970Y941773D01*
X-1459095Y941440D01*
X-1458470Y940773D01*
X-1457970Y939773D01*
X-1457845Y938607D01*
X-1457970Y937607D01*
X-1458470Y936606D01*
X-1459220Y935773D01*
X-1460095Y935440D01*
X-1461095Y935773D01*
X-1461970Y936773D01*
X-1462470Y938273D01*
X-1462595Y939940D01*
X-1462345Y942106D01*
X-1461970Y943273D01*
X-1461345Y944440D01*
X-1460470Y945273D01*
X-1459595Y945440D01*
X-1458720Y945107D01*
X-1458095Y944273D01*
G01X-1450220Y935107D02*
X-1450470Y935273D01*
Y935607D01*
X-1450220Y935773D01*
X-1449970Y935607D01*
Y935273D01*
X-1450220Y935107D01*
G01X-1442970Y936940D02*
X-1442220Y936107D01*
X-1441345Y935607D01*
X-1440220Y935440D01*
X-1439095Y935773D01*
X-1438220Y936440D01*
X-1437595Y937607D01*
X-1437470Y938940D01*
X-1437720Y940273D01*
X-1438345Y941107D01*
X-1439220Y941773D01*
X-1440095Y941940D01*
X-1440970Y941773D01*
X-1442095Y941107D01*
X-1441720Y945440D01*
X-1438345D01*
G01X-1432470Y935107D02*
X-1427970Y945440D01*
G01X-1422970Y936940D02*
X-1422220Y936107D01*
X-1421345Y935607D01*
X-1420220Y935440D01*
X-1419095Y935773D01*
X-1418220Y936440D01*
X-1417595Y937607D01*
X-1417470Y938940D01*
X-1417720Y940273D01*
X-1418345Y941107D01*
X-1419220Y941773D01*
X-1420095Y941940D01*
X-1420970Y941773D01*
X-1422095Y941107D01*
X-1421720Y945440D01*
X-1418345D01*
G01X-1123500Y1032000D02*
G03X-1118500Y1037000I0J5000D01*
G01Y1136500D01*
G03X-1123500Y1141500I-5000J0D01*
G01X-1223000D01*
G03X-1228000Y1136500I0J-5000D01*
G01Y1037000D01*
G03X-1223000Y1032000I5000J0D01*
G01X-1123500D01*
G01X-1163000Y1037000D02*
X-1223000D01*
G01D02*
Y1027000D01*
X-1163000D01*
G01X-1233000Y1097000D02*
Y1037000D01*
G01D02*
X-1223000D01*
Y1097000D01*
G01X-1233000Y1136500D02*
Y1097000D01*
G01X-1223000D02*
Y1136500D01*
G01D02*
X-1233000D01*
G01X-1223000D02*
X-1183500D01*
G01X-1223000Y1146500D02*
Y1136500D01*
G01X-1183500Y1146500D02*
X-1223000D01*
G01X-1183500Y1136500D02*
X-1123500D01*
G01D02*
Y1146500D01*
X-1183500D01*
G01X-1123500Y1037000D02*
X-1163000D01*
G01Y1027000D02*
X-1123500D01*
G01D02*
Y1037000D01*
G01D02*
X-1113500D01*
G01X-1123500Y1076500D02*
Y1037000D01*
G01X-1113500Y1136500D02*
X-1123500D01*
Y1076500D01*
G01X-1113500Y1037000D02*
Y1076500D01*
G01D02*
Y1136500D01*
G54D13*
G01X-2187070Y902340D02*
X-2187100Y1071920D01*
G01X-2186630Y902400D02*
X-1327070Y902440D01*
G01X-2186630Y926400D02*
X-1327070Y926440D01*
G01X-2187100Y951920D02*
X-1327100D01*
G01X-2187100Y981920D02*
X-1327100D01*
G01X-2187100Y1031920D02*
X-1327100D01*
G01X-2187100Y1071920D02*
X-1327100D01*
X-1327070Y902740D01*
G01X-1911470Y981940D02*
Y902840D01*
G01X-1801470Y1031940D02*
Y902840D01*
G01X-1647470Y1031940D02*
Y902840D01*
G01X-1489470Y1031940D02*
Y902740D01*
M02*
