G04 ================== begin FILE IDENTIFICATION RECORD ==================*
G04 Layout Name:  G:/2022/TEST/QIANG/07_IIC_UART_Hub/IIC_UART_Hub_V1.0.brd*
G04 Film Name:    sold_bottom*
G04 File Format:  Gerber RS274X*
G04 File Origin:  Cadence Allegro 17.2-061*
G04 Origin Date:  Fri Jun 24 10:23:06 2022*
G04 *
G04 Layer:  PIN/SOLDERMASK_BOTTOM*
G04 Layer:  PACKAGE GEOMETRY/SOLDERMASK_BOTTOM*
G04 Layer:  BOARD GEOMETRY/SOLDERMASK_BOTTOM*
G04 Layer:  BOARD GEOMETRY/OUTLINE*
G04 *
G04 Offset:    (0.00 0.00)*
G04 Mirror:    No*
G04 Mode:      Positive*
G04 Rotation:  0*
G04 FullContactRelief:  No*
G04 UndefLineWidth:     6.00*
G04 ================== end FILE IDENTIFICATION RECORD ====================*
%FSLAX25Y25*MOIN*%
%IR0*IPPOS*OFA0.00000B0.00000*MIA0B0*SFA1.00000B1.00000*%
%ADD11C,.079*%
%ADD10R,.079X.079*%
%ADD12C,.005*%
%ADD13C,.006*%
G75*
%LPD*%
G75*
G54D10*
X-1218000Y1032000D03*
X-1228000Y1042000D03*
X-1118500Y1131500D03*
X-1128500Y1141500D03*
G54D11*
X-1228000Y1052000D03*
Y1062000D03*
Y1072000D03*
Y1082000D03*
Y1092000D03*
Y1112000D03*
Y1102000D03*
Y1132000D03*
Y1122000D03*
X-1218500Y1141500D03*
X-1208000Y1032000D03*
X-1198000D03*
X-1208500Y1141500D03*
X-1198500D03*
X-1188000Y1032000D03*
X-1178000D03*
X-1188500Y1141500D03*
X-1178500D03*
X-1158000Y1032000D03*
X-1168000D03*
X-1158500Y1141500D03*
X-1168500D03*
X-1138000Y1032000D03*
X-1148000D03*
X-1138500Y1141500D03*
X-1148500D03*
X-1128000Y1032000D03*
X-1118500Y1041500D03*
Y1051500D03*
Y1061500D03*
Y1071500D03*
Y1081500D03*
Y1101500D03*
Y1091500D03*
Y1121500D03*
Y1111500D03*
G54D12*
G01X-1223000Y1141500D02*
X-1123500D01*
G02X-1118500Y1136500I0J-5000D01*
G01Y1037000D01*
G02X-1123500Y1032000I-5000J0D01*
G01X-1223000D01*
G02X-1228000Y1037000I0J5000D01*
G01Y1136500D01*
G02X-1223000Y1141500I5000J0D01*
G54D13*
G01X-1123500Y1032000D02*
G03X-1118500Y1037000I0J5000D01*
G01Y1136500D01*
G03X-1123500Y1141500I-5000J0D01*
G01X-1223000D01*
G03X-1228000Y1136500I0J-5000D01*
G01Y1037000D01*
G03X-1223000Y1032000I5000J0D01*
G01X-1123500D01*
M02*
