M48
INCH,TZ
T01C.01
T02C.04331
;LEADER: 12 
;HEADER: 
;CODE  : ASCII 
;FILE  : dwin-1-4.drl for  ... layers TOP and BOTTOM
;DESIGN: dwin.brd
;T01 Holesize 1. = 10.000000 Tolerance = +0.000000/-0.000000 PLATED MILS Quantity = 123
;T02 Holesize 2. = 43.310000 Tolerance = +0.000000/-0.000000 PLATED MILS Quantity = 40
%
G90
T01
X-1127500Y1093500
X-1128000Y1087500
X-1127500Y1081500
X-1153000Y1096500
X-1139000Y1089382
X-1150500Y1098500
X-1139000Y1091941
X-1120000Y1021500
X-1228000Y1016500
X-1230500Y1025500
X-1231000Y1040000
X-1220500Y1041500
X-1112500Y1016500
X-1112000Y1032000
X-1112000Y1043500
X-1112000Y1057000
X-1120000Y1040000
X-1134500Y1044000
X-1122500Y1054500
X-1133500Y1058000
X-1112000Y1080000
X-1112000Y1088000
X-1113500Y1104500
X-1113500Y1119000
X-1114500Y1132500
X-1115000Y1145000
X-1134500Y1108500
X-1228500Y1140000
X-1230500Y1126500
X-1216000Y1126500
X-1217500Y1118000
X-1235000Y1108500
X-1233500Y1094500
X-1231000Y1081000
X-1231500Y1066500
X-1230500Y1053500
X-1219500Y1051500
X-1224000Y1116500
X-1121500Y1090300
X-1121400Y1084500
X-1139500Y1086823
X-1173500Y1098250
X-1178177Y1086823
X-1152823Y1081677
X-1201464Y1070425
X-1228000Y1088500
X-1210500Y1081677
X-1121500Y1066500
X-1164500Y1065500
X-1218000Y1067500
X-1149500Y1072500
X-1151500Y1074500
X-1165000Y1080500
X-1167500Y1077250
X-1228000Y1100500
X-1165500Y1085770
X-1162500Y1093500
X-1228000Y1106500
X-1171000Y1091500
X-1170500Y1098000
X-1138984Y1095516
X-1221000Y1085500
X-1153500Y1066500
X-1141000Y1074000
X-1221000Y1091500
X-1174000Y1039000
X-1169000Y1039000
X-1221000Y1079500
X-1178000Y1089500
X-1192500Y1074000
X-1179500Y1064000
X-1189500Y1094000
X-1214500Y1106450
X-1143500Y1076281
X-1145000Y1078500
X-1178630Y1096016
X-1221000Y1103500
X-1201500Y1094500
X-1172500Y1125500
X-1192500Y1126500
X-1151000Y1066500
X-1139500Y1081500
X-1178000Y1081677
X-1178000Y1074500
X-1176500Y1064000
X-1200709Y1092128
X-1175500Y1124500
X-1195000Y1127500
X-1212000Y1071441
X-1211000Y1091500
X-1228000Y1112500
X-1195000Y1076500
X-1161941Y1071441
X-1143500Y1100500
X-1139500Y1097981
X-1143500Y1090500
X-1152000Y1091941
X-1152500Y1102500
X-1213000Y1089382
X-1212000Y1066323
X-1192500Y1079118
X-1164000Y1090000
X-1150000Y1104000
X-1141500Y1102000
X-1141500Y1088500
X-1150000Y1089382
X-1164000Y1073500
X-1224000Y1067500
X-1224000Y1073500
X-1121425Y1096575
X-1121425Y1072425
X-1221000Y1109500
X-1210323Y1102177
X-1130500Y1081500
X-1176590Y1098575
X-1167500Y1098250
X-1173500Y1065500
X-1127750Y1063500
X-1184500Y1140500
X-1181500Y1140500
X-1158500Y1040500
X-1148500Y1040500
X-1214500Y1112500
T02
X-1128500Y1030500
R09X-10000
X-1128500Y1020500
R09X-10000
X-1218000Y1135500
R09X10000
X-1218000Y1145500
R09X10000
M30
