G04 ================== begin FILE IDENTIFICATION RECORD ==================*
G04 Layout Name:  G:/2022/TEST/QIANG/Light/Test/sch_pcb/dwin.brd*
G04 Film Name:    paste_bottom*
G04 File Format:  Gerber RS274X*
G04 File Origin:  Cadence Allegro 17.2-061*
G04 Origin Date:  Tue May 31 09:43:27 2022*
G04 *
G04 Layer:  PACKAGE GEOMETRY/PASTEMASK_BOTTOM*
G04 Layer:  PIN/PASTEMASK_BOTTOM*
G04 Layer:  BOARD GEOMETRY/OUTLINE*
G04 *
G04 Offset:    (0.00 0.00)*
G04 Mirror:    No*
G04 Mode:      Positive*
G04 Rotation:  0*
G04 FullContactRelief:  No*
G04 UndefLineWidth:     6.00*
G04 ================== end FILE IDENTIFICATION RECORD ====================*
%FSLAX25Y25*MOIN*%
%IR0*IPPOS*OFA0.00000B0.00000*MIA0B0*SFA1.00000B1.00000*%
%AMMACRO10*
4,1,40,.01356,-.0175,
-.01356,-.0175,
-.014244,-.01744,
-.014908,-.017262,
-.01553,-.016972,
-.016093,-.016578,
-.016578,-.016093,
-.016972,-.01553,
-.017262,-.014908,
-.01744,-.014244,
-.0175,-.01356,
-.0175,.01356,
-.01744,.014244,
-.017262,.014908,
-.016972,.01553,
-.016578,.016093,
-.016093,.016578,
-.01553,.016972,
-.014908,.017262,
-.014244,.01744,
-.01356,.0175,
.01356,.0175,
.014244,.01744,
.014908,.017262,
.01553,.016972,
.016093,.016578,
.016578,.016093,
.016972,.01553,
.017262,.014908,
.01744,.014244,
.0175,.01356,
.0175,-.01356,
.01744,-.014244,
.017262,-.014908,
.016972,-.01553,
.016578,-.016093,
.016093,-.016578,
.01553,-.016972,
.014908,-.017262,
.014244,-.01744,
.01356,-.0175,
0.0*
%
%ADD10MACRO10*%
%AMMACRO12*
4,1,44,.02362,.0059,
.02362,-.0059,
.023591,-.006242,
.023503,-.006574,
.023359,-.006886,
.023162,-.007167,
.02292,-.007411,
.022639,-.007609,
.022328,-.007754,
.021997,-.007844,
.021655,-.007875,
.02165,-.00787,
-.02165,-.00787,
-.021992,-.007845,
-.022324,-.007756,
-.022635,-.007611,
-.022916,-.007414,
-.023159,-.007171,
-.023356,-.00689,
-.023501,-.006579,
-.02359,-.006247,
-.02362,-.005905,
-.02362,-.0059,
-.02362,.0059,
-.023591,.006242,
-.023503,.006574,
-.023359,.006886,
-.023162,.007167,
-.02292,.007411,
-.022639,.007609,
-.022328,.007754,
-.021997,.007844,
-.021655,.007875,
-.02165,.00787,
.02165,.00787,
.021992,.007845,
.022324,.007756,
.022635,.007611,
.022916,.007414,
.023159,.007171,
.023356,.00689,
.023501,.006579,
.02359,.006247,
.02362,.005905,
.02362,.0059,
0.0*
%
%ADD12MACRO12*%
%AMMACRO11*
4,1,40,-.01356,.0175,
.01356,.0175,
.014244,.01744,
.014908,.017262,
.01553,.016972,
.016093,.016578,
.016578,.016093,
.016972,.01553,
.017262,.014908,
.01744,.014244,
.0175,.01356,
.0175,-.01356,
.01744,-.014244,
.017262,-.014908,
.016972,-.01553,
.016578,-.016093,
.016093,-.016578,
.01553,-.016972,
.014908,-.017262,
.014244,-.01744,
.01356,-.0175,
-.01356,-.0175,
-.014244,-.01744,
-.014908,-.017262,
-.01553,-.016972,
-.016093,-.016578,
-.016578,-.016093,
-.016972,-.01553,
-.017262,-.014908,
-.01744,-.014244,
-.0175,-.01356,
-.0175,.01356,
-.01744,.014244,
-.017262,.014908,
-.016972,.01553,
-.016578,.016093,
-.016093,.016578,
-.01553,.016972,
-.014908,.017262,
-.014244,.01744,
-.01356,.0175,
0.0*
%
%ADD11MACRO11*%
%AMMACRO13*
4,1,44,-.02362,-.0059,
-.02362,.0059,
-.023591,.006242,
-.023503,.006574,
-.023359,.006886,
-.023162,.007167,
-.02292,.007411,
-.022639,.007609,
-.022328,.007754,
-.021997,.007844,
-.021655,.007875,
-.02165,.00787,
.02165,.00787,
.021992,.007845,
.022324,.007756,
.022635,.007611,
.022916,.007414,
.023159,.007171,
.023356,.00689,
.023501,.006579,
.02359,.006247,
.02362,.005905,
.02362,.0059,
.02362,-.0059,
.023591,-.006242,
.023503,-.006574,
.023359,-.006886,
.023162,-.007167,
.02292,-.007411,
.022639,-.007609,
.022328,-.007754,
.021997,-.007844,
.021655,-.007875,
.02165,-.00787,
-.02165,-.00787,
-.021992,-.007845,
-.022324,-.007756,
-.022635,-.007611,
-.022916,-.007414,
-.023159,-.007171,
-.023356,-.00689,
-.023501,-.006579,
-.02359,-.006247,
-.02362,-.005905,
-.02362,-.0059,
0.0*
%
%ADD13MACRO13*%
%ADD14C,.005*%
G75*
%LPD*%
G75*
G54D10*
X-1218000Y1082500D03*
X-1224000D03*
X-1218000Y1100500D03*
X-1224000D03*
X-1218000Y1094500D03*
X-1224000D03*
X-1218000Y1088500D03*
X-1224000D03*
X-1218000Y1106500D03*
X-1224000D03*
X-1167500Y1068500D03*
X-1173500D03*
X-1167500Y1089000D03*
X-1173500D03*
X-1167500Y1095000D03*
X-1173500D03*
X-1124350Y1081450D03*
X-1124500Y1063500D03*
X-1124350Y1087450D03*
Y1093450D03*
X-1118350Y1081450D03*
X-1118500Y1063500D03*
X-1118350Y1087450D03*
Y1093450D03*
G54D11*
X-1224000Y1112500D03*
X-1218000D03*
X-1173500Y1074500D03*
X-1167500D03*
X-1173500Y1080500D03*
X-1167500D03*
X-1173500Y1101000D03*
X-1167500D03*
X-1124500Y1069500D03*
Y1075500D03*
X-1118500Y1069500D03*
Y1075500D03*
G54D12*
X-1206016Y1081677D03*
Y1079118D03*
Y1076559D03*
Y1074000D03*
Y1071441D03*
Y1068882D03*
Y1066323D03*
X-1182984D03*
Y1068882D03*
Y1071441D03*
Y1074000D03*
Y1076559D03*
Y1079118D03*
Y1081677D03*
X-1158016D03*
Y1079118D03*
Y1076559D03*
Y1074000D03*
Y1071441D03*
Y1068882D03*
Y1066323D03*
X-1134984D03*
Y1068882D03*
Y1071441D03*
Y1074000D03*
Y1076559D03*
Y1079118D03*
Y1081677D03*
G54D13*
X-1206016Y1102177D03*
Y1099618D03*
Y1097059D03*
Y1094500D03*
Y1091941D03*
Y1089382D03*
Y1086823D03*
X-1182984D03*
Y1089382D03*
Y1091941D03*
Y1094500D03*
Y1097059D03*
Y1099618D03*
Y1102177D03*
X-1158016D03*
Y1099618D03*
Y1097059D03*
Y1094500D03*
Y1091941D03*
Y1089382D03*
Y1086823D03*
X-1134984D03*
Y1089382D03*
Y1091941D03*
Y1094500D03*
Y1097059D03*
Y1099618D03*
Y1102177D03*
G54D14*
G01X-1231000Y1154000D02*
X-1114000D01*
G02X-1109000Y1149000I0J-5000D01*
G01Y1017500D01*
G02X-1114000Y1012500I-5000J0D01*
G01X-1234000D01*
G02X-1239000Y1017500I0J5000D01*
G01Y1149000D01*
G02X-1234000Y1154000I5000J0D01*
G01X-1231000D01*
M02*
